%TF.GenerationSoftware,KiCad,Pcbnew,9.0.2*%
%TF.CreationDate,2025-07-30T22:52:36+05:30*%
%TF.ProjectId,VoidLens VR PCB,566f6964-4c65-46e7-9320-565220504342,rev?*%
%TF.SameCoordinates,Original*%
%TF.FileFunction,Legend,Top*%
%TF.FilePolarity,Positive*%
%FSLAX46Y46*%
G04 Gerber Fmt 4.6, Leading zero omitted, Abs format (unit mm)*
G04 Created by KiCad (PCBNEW 9.0.2) date 2025-07-30 22:52:36*
%MOMM*%
%LPD*%
G01*
G04 APERTURE LIST*
%ADD10C,0.150000*%
%ADD11C,0.120000*%
%ADD12C,0.254000*%
G04 APERTURE END LIST*
D10*
X138433333Y-80654819D02*
X138100000Y-80178628D01*
X137861905Y-80654819D02*
X137861905Y-79654819D01*
X137861905Y-79654819D02*
X138242857Y-79654819D01*
X138242857Y-79654819D02*
X138338095Y-79702438D01*
X138338095Y-79702438D02*
X138385714Y-79750057D01*
X138385714Y-79750057D02*
X138433333Y-79845295D01*
X138433333Y-79845295D02*
X138433333Y-79988152D01*
X138433333Y-79988152D02*
X138385714Y-80083390D01*
X138385714Y-80083390D02*
X138338095Y-80131009D01*
X138338095Y-80131009D02*
X138242857Y-80178628D01*
X138242857Y-80178628D02*
X137861905Y-80178628D01*
X139385714Y-80654819D02*
X138814286Y-80654819D01*
X139100000Y-80654819D02*
X139100000Y-79654819D01*
X139100000Y-79654819D02*
X139004762Y-79797676D01*
X139004762Y-79797676D02*
X138909524Y-79892914D01*
X138909524Y-79892914D02*
X138814286Y-79940533D01*
X152738095Y-82429819D02*
X152738095Y-83239342D01*
X152738095Y-83239342D02*
X152785714Y-83334580D01*
X152785714Y-83334580D02*
X152833333Y-83382200D01*
X152833333Y-83382200D02*
X152928571Y-83429819D01*
X152928571Y-83429819D02*
X153119047Y-83429819D01*
X153119047Y-83429819D02*
X153214285Y-83382200D01*
X153214285Y-83382200D02*
X153261904Y-83334580D01*
X153261904Y-83334580D02*
X153309523Y-83239342D01*
X153309523Y-83239342D02*
X153309523Y-82429819D01*
X154309523Y-83429819D02*
X153738095Y-83429819D01*
X154023809Y-83429819D02*
X154023809Y-82429819D01*
X154023809Y-82429819D02*
X153928571Y-82572676D01*
X153928571Y-82572676D02*
X153833333Y-82667914D01*
X153833333Y-82667914D02*
X153738095Y-82715533D01*
X110174819Y-118561904D02*
X110984342Y-118561904D01*
X110984342Y-118561904D02*
X111079580Y-118514285D01*
X111079580Y-118514285D02*
X111127200Y-118466666D01*
X111127200Y-118466666D02*
X111174819Y-118371428D01*
X111174819Y-118371428D02*
X111174819Y-118180952D01*
X111174819Y-118180952D02*
X111127200Y-118085714D01*
X111127200Y-118085714D02*
X111079580Y-118038095D01*
X111079580Y-118038095D02*
X110984342Y-117990476D01*
X110984342Y-117990476D02*
X110174819Y-117990476D01*
X110174819Y-117609523D02*
X110174819Y-116990476D01*
X110174819Y-116990476D02*
X110555771Y-117323809D01*
X110555771Y-117323809D02*
X110555771Y-117180952D01*
X110555771Y-117180952D02*
X110603390Y-117085714D01*
X110603390Y-117085714D02*
X110651009Y-117038095D01*
X110651009Y-117038095D02*
X110746247Y-116990476D01*
X110746247Y-116990476D02*
X110984342Y-116990476D01*
X110984342Y-116990476D02*
X111079580Y-117038095D01*
X111079580Y-117038095D02*
X111127200Y-117085714D01*
X111127200Y-117085714D02*
X111174819Y-117180952D01*
X111174819Y-117180952D02*
X111174819Y-117466666D01*
X111174819Y-117466666D02*
X111127200Y-117561904D01*
X111127200Y-117561904D02*
X111079580Y-117609523D01*
X142233333Y-111859580D02*
X142185714Y-111907200D01*
X142185714Y-111907200D02*
X142042857Y-111954819D01*
X142042857Y-111954819D02*
X141947619Y-111954819D01*
X141947619Y-111954819D02*
X141804762Y-111907200D01*
X141804762Y-111907200D02*
X141709524Y-111811961D01*
X141709524Y-111811961D02*
X141661905Y-111716723D01*
X141661905Y-111716723D02*
X141614286Y-111526247D01*
X141614286Y-111526247D02*
X141614286Y-111383390D01*
X141614286Y-111383390D02*
X141661905Y-111192914D01*
X141661905Y-111192914D02*
X141709524Y-111097676D01*
X141709524Y-111097676D02*
X141804762Y-111002438D01*
X141804762Y-111002438D02*
X141947619Y-110954819D01*
X141947619Y-110954819D02*
X142042857Y-110954819D01*
X142042857Y-110954819D02*
X142185714Y-111002438D01*
X142185714Y-111002438D02*
X142233333Y-111050057D01*
X143185714Y-111954819D02*
X142614286Y-111954819D01*
X142900000Y-111954819D02*
X142900000Y-110954819D01*
X142900000Y-110954819D02*
X142804762Y-111097676D01*
X142804762Y-111097676D02*
X142709524Y-111192914D01*
X142709524Y-111192914D02*
X142614286Y-111240533D01*
X182766666Y-90354819D02*
X182766666Y-91069104D01*
X182766666Y-91069104D02*
X182719047Y-91211961D01*
X182719047Y-91211961D02*
X182623809Y-91307200D01*
X182623809Y-91307200D02*
X182480952Y-91354819D01*
X182480952Y-91354819D02*
X182385714Y-91354819D01*
X183766666Y-91354819D02*
X183195238Y-91354819D01*
X183480952Y-91354819D02*
X183480952Y-90354819D01*
X183480952Y-90354819D02*
X183385714Y-90497676D01*
X183385714Y-90497676D02*
X183290476Y-90592914D01*
X183290476Y-90592914D02*
X183195238Y-90640533D01*
X130538095Y-95654819D02*
X130538095Y-96464342D01*
X130538095Y-96464342D02*
X130585714Y-96559580D01*
X130585714Y-96559580D02*
X130633333Y-96607200D01*
X130633333Y-96607200D02*
X130728571Y-96654819D01*
X130728571Y-96654819D02*
X130919047Y-96654819D01*
X130919047Y-96654819D02*
X131014285Y-96607200D01*
X131014285Y-96607200D02*
X131061904Y-96559580D01*
X131061904Y-96559580D02*
X131109523Y-96464342D01*
X131109523Y-96464342D02*
X131109523Y-95654819D01*
X132014285Y-95988152D02*
X132014285Y-96654819D01*
X131776190Y-95607200D02*
X131538095Y-96321485D01*
X131538095Y-96321485D02*
X132157142Y-96321485D01*
X144833333Y-85254819D02*
X144500000Y-84778628D01*
X144261905Y-85254819D02*
X144261905Y-84254819D01*
X144261905Y-84254819D02*
X144642857Y-84254819D01*
X144642857Y-84254819D02*
X144738095Y-84302438D01*
X144738095Y-84302438D02*
X144785714Y-84350057D01*
X144785714Y-84350057D02*
X144833333Y-84445295D01*
X144833333Y-84445295D02*
X144833333Y-84588152D01*
X144833333Y-84588152D02*
X144785714Y-84683390D01*
X144785714Y-84683390D02*
X144738095Y-84731009D01*
X144738095Y-84731009D02*
X144642857Y-84778628D01*
X144642857Y-84778628D02*
X144261905Y-84778628D01*
X145214286Y-84350057D02*
X145261905Y-84302438D01*
X145261905Y-84302438D02*
X145357143Y-84254819D01*
X145357143Y-84254819D02*
X145595238Y-84254819D01*
X145595238Y-84254819D02*
X145690476Y-84302438D01*
X145690476Y-84302438D02*
X145738095Y-84350057D01*
X145738095Y-84350057D02*
X145785714Y-84445295D01*
X145785714Y-84445295D02*
X145785714Y-84540533D01*
X145785714Y-84540533D02*
X145738095Y-84683390D01*
X145738095Y-84683390D02*
X145166667Y-85254819D01*
X145166667Y-85254819D02*
X145785714Y-85254819D01*
X144661905Y-78654819D02*
X144661905Y-77654819D01*
X144661905Y-77654819D02*
X144900000Y-77654819D01*
X144900000Y-77654819D02*
X145042857Y-77702438D01*
X145042857Y-77702438D02*
X145138095Y-77797676D01*
X145138095Y-77797676D02*
X145185714Y-77892914D01*
X145185714Y-77892914D02*
X145233333Y-78083390D01*
X145233333Y-78083390D02*
X145233333Y-78226247D01*
X145233333Y-78226247D02*
X145185714Y-78416723D01*
X145185714Y-78416723D02*
X145138095Y-78511961D01*
X145138095Y-78511961D02*
X145042857Y-78607200D01*
X145042857Y-78607200D02*
X144900000Y-78654819D01*
X144900000Y-78654819D02*
X144661905Y-78654819D01*
X146185714Y-78654819D02*
X145614286Y-78654819D01*
X145900000Y-78654819D02*
X145900000Y-77654819D01*
X145900000Y-77654819D02*
X145804762Y-77797676D01*
X145804762Y-77797676D02*
X145709524Y-77892914D01*
X145709524Y-77892914D02*
X145614286Y-77940533D01*
X151533333Y-80554819D02*
X151200000Y-80078628D01*
X150961905Y-80554819D02*
X150961905Y-79554819D01*
X150961905Y-79554819D02*
X151342857Y-79554819D01*
X151342857Y-79554819D02*
X151438095Y-79602438D01*
X151438095Y-79602438D02*
X151485714Y-79650057D01*
X151485714Y-79650057D02*
X151533333Y-79745295D01*
X151533333Y-79745295D02*
X151533333Y-79888152D01*
X151533333Y-79888152D02*
X151485714Y-79983390D01*
X151485714Y-79983390D02*
X151438095Y-80031009D01*
X151438095Y-80031009D02*
X151342857Y-80078628D01*
X151342857Y-80078628D02*
X150961905Y-80078628D01*
X151866667Y-79554819D02*
X152485714Y-79554819D01*
X152485714Y-79554819D02*
X152152381Y-79935771D01*
X152152381Y-79935771D02*
X152295238Y-79935771D01*
X152295238Y-79935771D02*
X152390476Y-79983390D01*
X152390476Y-79983390D02*
X152438095Y-80031009D01*
X152438095Y-80031009D02*
X152485714Y-80126247D01*
X152485714Y-80126247D02*
X152485714Y-80364342D01*
X152485714Y-80364342D02*
X152438095Y-80459580D01*
X152438095Y-80459580D02*
X152390476Y-80507200D01*
X152390476Y-80507200D02*
X152295238Y-80554819D01*
X152295238Y-80554819D02*
X152009524Y-80554819D01*
X152009524Y-80554819D02*
X151914286Y-80507200D01*
X151914286Y-80507200D02*
X151866667Y-80459580D01*
X181566666Y-83654819D02*
X181566666Y-84369104D01*
X181566666Y-84369104D02*
X181519047Y-84511961D01*
X181519047Y-84511961D02*
X181423809Y-84607200D01*
X181423809Y-84607200D02*
X181280952Y-84654819D01*
X181280952Y-84654819D02*
X181185714Y-84654819D01*
X181995238Y-83750057D02*
X182042857Y-83702438D01*
X182042857Y-83702438D02*
X182138095Y-83654819D01*
X182138095Y-83654819D02*
X182376190Y-83654819D01*
X182376190Y-83654819D02*
X182471428Y-83702438D01*
X182471428Y-83702438D02*
X182519047Y-83750057D01*
X182519047Y-83750057D02*
X182566666Y-83845295D01*
X182566666Y-83845295D02*
X182566666Y-83940533D01*
X182566666Y-83940533D02*
X182519047Y-84083390D01*
X182519047Y-84083390D02*
X181947619Y-84654819D01*
X181947619Y-84654819D02*
X182566666Y-84654819D01*
X147133333Y-111959580D02*
X147085714Y-112007200D01*
X147085714Y-112007200D02*
X146942857Y-112054819D01*
X146942857Y-112054819D02*
X146847619Y-112054819D01*
X146847619Y-112054819D02*
X146704762Y-112007200D01*
X146704762Y-112007200D02*
X146609524Y-111911961D01*
X146609524Y-111911961D02*
X146561905Y-111816723D01*
X146561905Y-111816723D02*
X146514286Y-111626247D01*
X146514286Y-111626247D02*
X146514286Y-111483390D01*
X146514286Y-111483390D02*
X146561905Y-111292914D01*
X146561905Y-111292914D02*
X146609524Y-111197676D01*
X146609524Y-111197676D02*
X146704762Y-111102438D01*
X146704762Y-111102438D02*
X146847619Y-111054819D01*
X146847619Y-111054819D02*
X146942857Y-111054819D01*
X146942857Y-111054819D02*
X147085714Y-111102438D01*
X147085714Y-111102438D02*
X147133333Y-111150057D01*
X147514286Y-111150057D02*
X147561905Y-111102438D01*
X147561905Y-111102438D02*
X147657143Y-111054819D01*
X147657143Y-111054819D02*
X147895238Y-111054819D01*
X147895238Y-111054819D02*
X147990476Y-111102438D01*
X147990476Y-111102438D02*
X148038095Y-111150057D01*
X148038095Y-111150057D02*
X148085714Y-111245295D01*
X148085714Y-111245295D02*
X148085714Y-111340533D01*
X148085714Y-111340533D02*
X148038095Y-111483390D01*
X148038095Y-111483390D02*
X147466667Y-112054819D01*
X147466667Y-112054819D02*
X148085714Y-112054819D01*
X144023810Y-95654819D02*
X144023810Y-94654819D01*
X145071428Y-95559580D02*
X145023809Y-95607200D01*
X145023809Y-95607200D02*
X144880952Y-95654819D01*
X144880952Y-95654819D02*
X144785714Y-95654819D01*
X144785714Y-95654819D02*
X144642857Y-95607200D01*
X144642857Y-95607200D02*
X144547619Y-95511961D01*
X144547619Y-95511961D02*
X144500000Y-95416723D01*
X144500000Y-95416723D02*
X144452381Y-95226247D01*
X144452381Y-95226247D02*
X144452381Y-95083390D01*
X144452381Y-95083390D02*
X144500000Y-94892914D01*
X144500000Y-94892914D02*
X144547619Y-94797676D01*
X144547619Y-94797676D02*
X144642857Y-94702438D01*
X144642857Y-94702438D02*
X144785714Y-94654819D01*
X144785714Y-94654819D02*
X144880952Y-94654819D01*
X144880952Y-94654819D02*
X145023809Y-94702438D01*
X145023809Y-94702438D02*
X145071428Y-94750057D01*
X146023809Y-95654819D02*
X145452381Y-95654819D01*
X145738095Y-95654819D02*
X145738095Y-94654819D01*
X145738095Y-94654819D02*
X145642857Y-94797676D01*
X145642857Y-94797676D02*
X145547619Y-94892914D01*
X145547619Y-94892914D02*
X145452381Y-94940533D01*
X154933333Y-101159580D02*
X154885714Y-101207200D01*
X154885714Y-101207200D02*
X154742857Y-101254819D01*
X154742857Y-101254819D02*
X154647619Y-101254819D01*
X154647619Y-101254819D02*
X154504762Y-101207200D01*
X154504762Y-101207200D02*
X154409524Y-101111961D01*
X154409524Y-101111961D02*
X154361905Y-101016723D01*
X154361905Y-101016723D02*
X154314286Y-100826247D01*
X154314286Y-100826247D02*
X154314286Y-100683390D01*
X154314286Y-100683390D02*
X154361905Y-100492914D01*
X154361905Y-100492914D02*
X154409524Y-100397676D01*
X154409524Y-100397676D02*
X154504762Y-100302438D01*
X154504762Y-100302438D02*
X154647619Y-100254819D01*
X154647619Y-100254819D02*
X154742857Y-100254819D01*
X154742857Y-100254819D02*
X154885714Y-100302438D01*
X154885714Y-100302438D02*
X154933333Y-100350057D01*
X155266667Y-100254819D02*
X155885714Y-100254819D01*
X155885714Y-100254819D02*
X155552381Y-100635771D01*
X155552381Y-100635771D02*
X155695238Y-100635771D01*
X155695238Y-100635771D02*
X155790476Y-100683390D01*
X155790476Y-100683390D02*
X155838095Y-100731009D01*
X155838095Y-100731009D02*
X155885714Y-100826247D01*
X155885714Y-100826247D02*
X155885714Y-101064342D01*
X155885714Y-101064342D02*
X155838095Y-101159580D01*
X155838095Y-101159580D02*
X155790476Y-101207200D01*
X155790476Y-101207200D02*
X155695238Y-101254819D01*
X155695238Y-101254819D02*
X155409524Y-101254819D01*
X155409524Y-101254819D02*
X155314286Y-101207200D01*
X155314286Y-101207200D02*
X155266667Y-101159580D01*
X138816667Y-116557200D02*
X138959524Y-116604819D01*
X138959524Y-116604819D02*
X139197619Y-116604819D01*
X139197619Y-116604819D02*
X139292857Y-116557200D01*
X139292857Y-116557200D02*
X139340476Y-116509580D01*
X139340476Y-116509580D02*
X139388095Y-116414342D01*
X139388095Y-116414342D02*
X139388095Y-116319104D01*
X139388095Y-116319104D02*
X139340476Y-116223866D01*
X139340476Y-116223866D02*
X139292857Y-116176247D01*
X139292857Y-116176247D02*
X139197619Y-116128628D01*
X139197619Y-116128628D02*
X139007143Y-116081009D01*
X139007143Y-116081009D02*
X138911905Y-116033390D01*
X138911905Y-116033390D02*
X138864286Y-115985771D01*
X138864286Y-115985771D02*
X138816667Y-115890533D01*
X138816667Y-115890533D02*
X138816667Y-115795295D01*
X138816667Y-115795295D02*
X138864286Y-115700057D01*
X138864286Y-115700057D02*
X138911905Y-115652438D01*
X138911905Y-115652438D02*
X139007143Y-115604819D01*
X139007143Y-115604819D02*
X139245238Y-115604819D01*
X139245238Y-115604819D02*
X139388095Y-115652438D01*
X139721429Y-115604819D02*
X139959524Y-116604819D01*
X139959524Y-116604819D02*
X140150000Y-115890533D01*
X140150000Y-115890533D02*
X140340476Y-116604819D01*
X140340476Y-116604819D02*
X140578572Y-115604819D01*
X141483333Y-116604819D02*
X140911905Y-116604819D01*
X141197619Y-116604819D02*
X141197619Y-115604819D01*
X141197619Y-115604819D02*
X141102381Y-115747676D01*
X141102381Y-115747676D02*
X141007143Y-115842914D01*
X141007143Y-115842914D02*
X140911905Y-115890533D01*
X164588095Y-112574819D02*
X164588095Y-113384342D01*
X164588095Y-113384342D02*
X164635714Y-113479580D01*
X164635714Y-113479580D02*
X164683333Y-113527200D01*
X164683333Y-113527200D02*
X164778571Y-113574819D01*
X164778571Y-113574819D02*
X164969047Y-113574819D01*
X164969047Y-113574819D02*
X165064285Y-113527200D01*
X165064285Y-113527200D02*
X165111904Y-113479580D01*
X165111904Y-113479580D02*
X165159523Y-113384342D01*
X165159523Y-113384342D02*
X165159523Y-112574819D01*
X165588095Y-112670057D02*
X165635714Y-112622438D01*
X165635714Y-112622438D02*
X165730952Y-112574819D01*
X165730952Y-112574819D02*
X165969047Y-112574819D01*
X165969047Y-112574819D02*
X166064285Y-112622438D01*
X166064285Y-112622438D02*
X166111904Y-112670057D01*
X166111904Y-112670057D02*
X166159523Y-112765295D01*
X166159523Y-112765295D02*
X166159523Y-112860533D01*
X166159523Y-112860533D02*
X166111904Y-113003390D01*
X166111904Y-113003390D02*
X165540476Y-113574819D01*
X165540476Y-113574819D02*
X166159523Y-113574819D01*
D11*
%TO.C,R1*%
X137876263Y-78845000D02*
X139323737Y-78845000D01*
X137876263Y-81555000D02*
X139323737Y-81555000D01*
%TO.C,U1*%
X150710500Y-83875000D02*
X150710500Y-83875000D01*
X150710500Y-83875000D02*
X179910500Y-83875000D01*
X150710500Y-99325000D02*
X150710500Y-83875000D01*
X151040500Y-84451000D02*
X151040500Y-84451000D01*
X151040500Y-84451000D02*
X156374500Y-84451000D01*
X151040500Y-95119000D02*
X151040500Y-84451000D01*
X151040500Y-95119000D02*
X151040500Y-95119000D01*
X156374500Y-84451000D02*
X156374500Y-95119000D01*
X156374500Y-95119000D02*
X151040500Y-95119000D01*
X179910500Y-83875000D02*
X179910500Y-99325000D01*
X179910500Y-99325000D02*
X150710500Y-99325000D01*
X150510500Y-85975000D02*
X150174500Y-86215000D01*
X150174500Y-85735000D01*
X150510500Y-85975000D01*
G36*
X150510500Y-85975000D02*
G01*
X150174500Y-86215000D01*
X150174500Y-85735000D01*
X150510500Y-85975000D01*
G37*
%TO.C,U3*%
X111720000Y-119180000D02*
X111720000Y-117800000D01*
X113100000Y-119180000D02*
X111720000Y-119180000D01*
X114370000Y-116420000D02*
X137340000Y-116420000D01*
X114370000Y-119180000D02*
X114370000Y-116420000D01*
X114370000Y-119180000D02*
X137340000Y-119180000D01*
X137340000Y-119180000D02*
X137340000Y-116420000D01*
%TO.C,C1*%
X140080000Y-108745000D02*
X140080000Y-110655000D01*
X140080000Y-110655000D02*
X144000000Y-110655000D01*
X144000000Y-108745000D02*
X140080000Y-108745000D01*
%TO.C,J1*%
X181020000Y-92120000D02*
X182400000Y-92120000D01*
X181020000Y-93500000D02*
X181020000Y-92120000D01*
X181020000Y-94770000D02*
X181020000Y-97420000D01*
X181020000Y-94770000D02*
X183780000Y-94770000D01*
X181020000Y-97420000D02*
X183780000Y-97420000D01*
X183780000Y-94770000D02*
X183780000Y-97420000D01*
%TO.C,U4*%
X109940000Y-83770000D02*
X139140000Y-83770000D01*
X109940000Y-99220000D02*
X109940000Y-83770000D01*
X133476000Y-87976000D02*
X138810000Y-87976000D01*
X133476000Y-98644000D02*
X133476000Y-87976000D01*
X138810000Y-87976000D02*
X138810000Y-87976000D01*
X138810000Y-87976000D02*
X138810000Y-98644000D01*
X138810000Y-98644000D02*
X133476000Y-98644000D01*
X138810000Y-98644000D02*
X138810000Y-98644000D01*
X139140000Y-83770000D02*
X139140000Y-99220000D01*
X139140000Y-99220000D02*
X109940000Y-99220000D01*
X139140000Y-99220000D02*
X139140000Y-99220000D01*
X139676000Y-97360000D02*
X139340000Y-97120000D01*
X139676000Y-96880000D01*
X139676000Y-97360000D01*
G36*
X139676000Y-97360000D02*
G01*
X139340000Y-97120000D01*
X139676000Y-96880000D01*
X139676000Y-97360000D01*
G37*
%TO.C,R2*%
X145723737Y-83445000D02*
X144276263Y-83445000D01*
X145723737Y-86155000D02*
X144276263Y-86155000D01*
%TO.C,D1*%
X142440000Y-78155000D02*
X142440000Y-78620000D01*
X142440000Y-80780000D02*
X142440000Y-81245000D01*
X142440000Y-78155170D02*
G75*
G02*
X147788136Y-78620000I2560000J-1544830D01*
G01*
X142745316Y-78620000D02*
G75*
G02*
X147254684Y-78620000I2254684J-1080000D01*
G01*
X147254684Y-80780000D02*
G75*
G02*
X142745316Y-80780000I-2254684J1080000D01*
G01*
X147788136Y-80780000D02*
G75*
G02*
X142440000Y-81244830I-2788136J1080000D01*
G01*
%TO.C,R3*%
X152423737Y-78745000D02*
X150976263Y-78745000D01*
X152423737Y-81455000D02*
X150976263Y-81455000D01*
D10*
%TO.C,J2*%
X181200000Y-85380000D02*
X181700000Y-85380000D01*
X181200000Y-85415000D02*
X181200000Y-85380000D01*
X181200000Y-85450000D02*
X181200000Y-85380000D01*
X181200000Y-85880000D02*
X181200000Y-85450000D01*
X181200000Y-89480000D02*
X181200000Y-85880000D01*
X181200000Y-89480000D02*
X181200000Y-89980000D01*
X181200000Y-89980000D02*
X181700000Y-89980000D01*
X181700000Y-85380000D02*
X182500000Y-85380000D01*
X182500000Y-85380000D02*
X183000000Y-85380000D01*
X182500000Y-89980000D02*
X181700000Y-89980000D01*
X182500000Y-89980000D02*
X183000000Y-89980000D01*
X183000000Y-85880000D02*
X183000000Y-85380000D01*
X183000000Y-85880000D02*
X183000000Y-89480000D01*
X183000000Y-89480000D02*
X183000000Y-89980000D01*
D11*
%TO.C,C2*%
X145700000Y-110655000D02*
X149620000Y-110655000D01*
X149620000Y-108745000D02*
X145700000Y-108745000D01*
X149620000Y-110655000D02*
X149620000Y-108745000D01*
%TO.C,IC1*%
X139890000Y-87260000D02*
X150110000Y-87260000D01*
X139890000Y-103130000D02*
X139890000Y-87260000D01*
X139890000Y-103130000D02*
X150110000Y-103130000D01*
X141975000Y-103130000D02*
X141975000Y-105570000D01*
X142945000Y-103130000D02*
X142945000Y-105570000D01*
X144515000Y-103130000D02*
X144515000Y-105570000D01*
X145485000Y-103130000D02*
X145485000Y-105570000D01*
X147055000Y-103130000D02*
X147055000Y-105570000D01*
X148025000Y-103130000D02*
X148025000Y-105570000D01*
X150110000Y-103130000D02*
X150110000Y-87260000D01*
%TO.C,C3*%
X157000000Y-101755000D02*
X160920000Y-101755000D01*
X160920000Y-99845000D02*
X157000000Y-99845000D01*
X160920000Y-101755000D02*
X160920000Y-99845000D01*
D12*
%TO.C,SW1*%
X141850000Y-113250000D02*
X141850000Y-113319000D01*
X141850000Y-113250000D02*
X148050000Y-113250000D01*
X141850000Y-114881000D02*
X141850000Y-117819000D01*
X141850000Y-119381000D02*
X141850000Y-119450000D01*
X141850000Y-119450000D02*
X148050000Y-119450000D01*
X148050000Y-113250000D02*
X148050000Y-113319000D01*
X148050000Y-114881000D02*
X148050000Y-117819000D01*
X148050000Y-119381000D02*
X148050000Y-119450000D01*
X146431000Y-116350000D02*
G75*
G02*
X143469000Y-116350000I-1481000J0D01*
G01*
X143469000Y-116350000D02*
G75*
G02*
X146431000Y-116350000I1481000J0D01*
G01*
X146888500Y-116350000D02*
G75*
G02*
X143011500Y-116350000I-1938500J0D01*
G01*
X143011500Y-116350000D02*
G75*
G02*
X146888500Y-116350000I1938500J0D01*
G01*
D11*
%TO.C,U2*%
X151370000Y-102203000D02*
X151370000Y-117570000D01*
X151370000Y-104870000D02*
X151370000Y-102200000D01*
X151370000Y-104870000D02*
X181850000Y-104870000D01*
X151370000Y-117570000D02*
X151370000Y-120237000D01*
X151370000Y-120237000D02*
X184390000Y-120237000D01*
X153910000Y-117570000D02*
X151370000Y-117570000D01*
X153910000Y-117570000D02*
X181850000Y-117570000D01*
X179310000Y-104870000D02*
X179310000Y-102200000D01*
X181850000Y-104870000D02*
X181850000Y-102200000D01*
X181850000Y-117570000D02*
X181850000Y-120240000D01*
X184390000Y-102203000D02*
X151370000Y-102200000D01*
X184390000Y-107283000D02*
X184390000Y-102203000D01*
X184390000Y-120237000D02*
X184390000Y-115157000D01*
X186930000Y-107283000D02*
X184390000Y-107283000D01*
X186930000Y-115157000D02*
X184390000Y-115157000D01*
X186930000Y-115157000D02*
X186930000Y-107283000D01*
%TD*%
M02*
