%TF.GenerationSoftware,KiCad,Pcbnew,9.0.2*%
%TF.CreationDate,2025-07-30T22:52:36+05:30*%
%TF.ProjectId,VoidLens VR PCB,566f6964-4c65-46e7-9320-565220504342,rev?*%
%TF.SameCoordinates,Original*%
%TF.FileFunction,Copper,L1,Top*%
%TF.FilePolarity,Positive*%
%FSLAX46Y46*%
G04 Gerber Fmt 4.6, Leading zero omitted, Abs format (unit mm)*
G04 Created by KiCad (PCBNEW 9.0.2) date 2025-07-30 22:52:36*
%MOMM*%
%LPD*%
G01*
G04 APERTURE LIST*
G04 Aperture macros list*
%AMRoundRect*
0 Rectangle with rounded corners*
0 $1 Rounding radius*
0 $2 $3 $4 $5 $6 $7 $8 $9 X,Y pos of 4 corners*
0 Add a 4 corners polygon primitive as box body*
4,1,4,$2,$3,$4,$5,$6,$7,$8,$9,$2,$3,0*
0 Add four circle primitives for the rounded corners*
1,1,$1+$1,$2,$3*
1,1,$1+$1,$4,$5*
1,1,$1+$1,$6,$7*
1,1,$1+$1,$8,$9*
0 Add four rect primitives between the rounded corners*
20,1,$1+$1,$2,$3,$4,$5,0*
20,1,$1+$1,$4,$5,$6,$7,0*
20,1,$1+$1,$6,$7,$8,$9,0*
20,1,$1+$1,$8,$9,$2,$3,0*%
G04 Aperture macros list end*
%TA.AperFunction,SMDPad,CuDef*%
%ADD10RoundRect,0.250000X-0.312500X-1.075000X0.312500X-1.075000X0.312500X1.075000X-0.312500X1.075000X0*%
%TD*%
%TA.AperFunction,ComponentPad*%
%ADD11R,1.700000X1.700000*%
%TD*%
%TA.AperFunction,ComponentPad*%
%ADD12C,1.700000*%
%TD*%
%TA.AperFunction,SMDPad,CuDef*%
%ADD13RoundRect,0.250000X-0.457500X-0.445000X0.457500X-0.445000X0.457500X0.445000X-0.457500X0.445000X0*%
%TD*%
%TA.AperFunction,SMDPad,CuDef*%
%ADD14RoundRect,0.250000X0.312500X1.075000X-0.312500X1.075000X-0.312500X-1.075000X0.312500X-1.075000X0*%
%TD*%
%TA.AperFunction,ComponentPad*%
%ADD15R,1.800000X1.800000*%
%TD*%
%TA.AperFunction,ComponentPad*%
%ADD16O,1.800000X1.800000*%
%TD*%
%TA.AperFunction,SMDPad,CuDef*%
%ADD17R,1.400000X1.500000*%
%TD*%
%TA.AperFunction,SMDPad,CuDef*%
%ADD18RoundRect,0.250000X0.457500X0.445000X-0.457500X0.445000X-0.457500X-0.445000X0.457500X-0.445000X0*%
%TD*%
%TA.AperFunction,ComponentPad*%
%ADD19R,1.905000X2.000000*%
%TD*%
%TA.AperFunction,ComponentPad*%
%ADD20O,1.905000X2.000000*%
%TD*%
%TA.AperFunction,SMDPad,CuDef*%
%ADD21R,2.500000X1.100000*%
%TD*%
%TA.AperFunction,ComponentPad*%
%ADD22R,1.600000X1.600000*%
%TD*%
%TA.AperFunction,ComponentPad*%
%ADD23O,1.600000X1.600000*%
%TD*%
%TA.AperFunction,ViaPad*%
%ADD24C,0.600000*%
%TD*%
%TA.AperFunction,Conductor*%
%ADD25C,0.400000*%
%TD*%
G04 APERTURE END LIST*
D10*
%TO.P,R1,1*%
%TO.N,R*%
X137137500Y-80200000D03*
%TO.P,R1,2*%
%TO.N,Net-(D1-RK)*%
X140062500Y-80200000D03*
%TD*%
D11*
%TO.P,U1,1,GND*%
%TO.N,GND*%
X152310500Y-85975000D03*
D12*
%TO.P,U1,2,VCC*%
%TO.N,+3.3V*%
X154850500Y-85975000D03*
%TO.P,U1,3,CE*%
%TO.N,Net-(U1-CE)*%
X152310500Y-88515000D03*
%TO.P,U1,4,~{CSN}*%
%TO.N,Net-(U1-~{CSN})*%
X154850500Y-88515000D03*
%TO.P,U1,5,SCK*%
%TO.N,SCK*%
X152310500Y-91055000D03*
%TO.P,U1,6,MOSI*%
%TO.N,MOSI*%
X154850500Y-91055000D03*
%TO.P,U1,7,MISO*%
%TO.N,MISO*%
X152310500Y-93595000D03*
%TO.P,U1,8,IRQ*%
%TO.N,unconnected-(U1-IRQ-Pad8)*%
X154850500Y-93595000D03*
%TD*%
D11*
%TO.P,U3,1,VCC*%
%TO.N,+3.3V*%
X113100000Y-117800000D03*
D12*
%TO.P,U3,2,GND*%
%TO.N,GND*%
X115640000Y-117800000D03*
%TO.P,U3,3,SCL*%
%TO.N,Net-(U2-D3{slash}SCL)*%
X118180000Y-117800000D03*
%TO.P,U3,4,SDA*%
%TO.N,Net-(U2-D2{slash}SDA)*%
X120720000Y-117800000D03*
%TO.P,U3,5,EDA
*%
%TO.N,unconnected-(U3-EDA-Pad5)*%
X123260000Y-117800000D03*
%TO.P,U3,6,ECL*%
%TO.N,unconnected-(U3-ECL-Pad6)*%
X125800000Y-117800000D03*
%TO.P,U3,7,ADO*%
%TO.N,unconnected-(U3-ADO-Pad7)*%
X128340000Y-117800000D03*
%TO.P,U3,8,INT*%
%TO.N,unconnected-(U3-INT-Pad8)*%
X130880000Y-117800000D03*
%TO.P,U3,9,NCS*%
%TO.N,unconnected-(U3-NCS-Pad9)*%
X133420000Y-117800000D03*
%TO.P,U3,10,FSYNC*%
%TO.N,unconnected-(U3-FSYNC-Pad10)*%
X135960000Y-117800000D03*
%TD*%
D13*
%TO.P,C1,1*%
%TO.N,+5V*%
X141047500Y-109700000D03*
%TO.P,C1,2*%
%TO.N,GND*%
X143752500Y-109700000D03*
%TD*%
D11*
%TO.P,J1,1,Pin_1*%
%TO.N,GND*%
X182400000Y-93500000D03*
D12*
%TO.P,J1,2,Pin_2*%
%TO.N,Net-(J1-Pin_2)*%
X182400000Y-96040000D03*
%TD*%
D11*
%TO.P,U4,1,GND*%
%TO.N,GND*%
X137540000Y-97120000D03*
D12*
%TO.P,U4,2,VCC*%
%TO.N,+3.3V*%
X135000000Y-97120000D03*
%TO.P,U4,3,CE*%
%TO.N,CE*%
X137540000Y-94580000D03*
%TO.P,U4,4,~{CSN}*%
%TO.N,CSN*%
X135000000Y-94580000D03*
%TO.P,U4,5,SCK*%
%TO.N,SCK*%
X137540000Y-92040000D03*
%TO.P,U4,6,MOSI*%
%TO.N,MOSI*%
X135000000Y-92040000D03*
%TO.P,U4,7,MISO*%
%TO.N,MISO*%
X137540000Y-89500000D03*
%TO.P,U4,8,IRQ*%
%TO.N,unconnected-(U4-IRQ-Pad8)*%
X135000000Y-89500000D03*
%TD*%
D14*
%TO.P,R2,1*%
%TO.N,G*%
X146462500Y-84800000D03*
%TO.P,R2,2*%
%TO.N,Net-(D1-GK)*%
X143537500Y-84800000D03*
%TD*%
D15*
%TO.P,D1,1,A*%
%TO.N,+5V*%
X142095000Y-79700000D03*
D16*
%TO.P,D1,2,RK*%
%TO.N,Net-(D1-RK)*%
X144095000Y-79700000D03*
%TO.P,D1,3,GK*%
%TO.N,Net-(D1-GK)*%
X146095000Y-79700000D03*
%TO.P,D1,4,BK*%
%TO.N,Net-(D1-BK)*%
X148095000Y-79700000D03*
%TD*%
D14*
%TO.P,R3,1*%
%TO.N,B*%
X153162500Y-80100000D03*
%TO.P,R3,2*%
%TO.N,Net-(D1-BK)*%
X150237500Y-80100000D03*
%TD*%
D17*
%TO.P,J2,1,Pin_1*%
%TO.N,+5V*%
X182100000Y-88950000D03*
%TO.P,J2,2,Pin_2*%
%TO.N,GND*%
X182100000Y-86410000D03*
%TD*%
D18*
%TO.P,C2,1*%
%TO.N,GND*%
X148652500Y-109700000D03*
%TO.P,C2,2*%
%TO.N,+3.3V*%
X145947500Y-109700000D03*
%TD*%
D19*
%TO.P,IC1,1,IN*%
%TO.N,+5V*%
X142460000Y-106830000D03*
D20*
%TO.P,IC1,2,GND*%
%TO.N,GND*%
X145000000Y-106830000D03*
%TO.P,IC1,3,OUT*%
%TO.N,+3.3V*%
X147540000Y-106830000D03*
%TD*%
D18*
%TO.P,C3,1*%
%TO.N,GND*%
X159952500Y-100800000D03*
%TO.P,C3,2*%
%TO.N,+5V*%
X157247500Y-100800000D03*
%TD*%
D21*
%TO.P,SW1,1,1*%
%TO.N,SW*%
X140700000Y-114100000D03*
%TO.P,SW1,2,2*%
X149200000Y-114100000D03*
%TO.P,SW1,3,3*%
%TO.N,GND*%
X140700000Y-118600000D03*
%TO.P,SW1,4,4*%
X149200000Y-118600000D03*
%TD*%
D22*
%TO.P,U2,1,D1/TX*%
%TO.N,unconnected-(U2-D1{slash}TX-Pad1)*%
X180580000Y-103600000D03*
D23*
%TO.P,U2,2,D0/RX*%
%TO.N,unconnected-(U2-D0{slash}RX-Pad2)*%
X178040000Y-103600000D03*
%TO.P,U2,3,GND*%
%TO.N,GND*%
X175500000Y-103600000D03*
%TO.P,U2,4,GND*%
X172960000Y-103600000D03*
%TO.P,U2,5,D2/SDA*%
%TO.N,Net-(U2-D2{slash}SDA)*%
X170420000Y-103600000D03*
%TO.P,U2,6,D3/SCL*%
%TO.N,Net-(U2-D3{slash}SCL)*%
X167880000Y-103600000D03*
%TO.P,U2,7,A6/D4*%
%TO.N,SW*%
X165340000Y-103600000D03*
%TO.P,U2,8,D5*%
%TO.N,R*%
X162800000Y-103600000D03*
%TO.P,U2,9,A7/D6*%
%TO.N,G*%
X160260000Y-103600000D03*
%TO.P,U2,10,D7*%
%TO.N,unconnected-(U2-D7-Pad10)*%
X157720000Y-103600000D03*
%TO.P,U2,11,A8/D8*%
%TO.N,Net-(U1-CE)*%
X155180000Y-103600000D03*
%TO.P,U2,12,A9/D9*%
%TO.N,B*%
X152640000Y-103600000D03*
%TO.P,U2,13,A10/D10*%
%TO.N,Net-(U1-~{CSN})*%
X152640000Y-118840000D03*
%TO.P,U2,14,MOSI/D16*%
%TO.N,MOSI*%
X155180000Y-118840000D03*
%TO.P,U2,15,MISO/D14*%
%TO.N,MISO*%
X157720000Y-118840000D03*
%TO.P,U2,16,SCLK/D15*%
%TO.N,SCK*%
X160260000Y-118840000D03*
%TO.P,U2,17,A0*%
%TO.N,SW*%
X162800000Y-118840000D03*
%TO.P,U2,18,A1*%
%TO.N,CE*%
X165340000Y-118840000D03*
%TO.P,U2,19,A2*%
%TO.N,CSN*%
X167880000Y-118840000D03*
%TO.P,U2,20,A3*%
%TO.N,unconnected-(U2-A3-Pad20)*%
X170420000Y-118840000D03*
%TO.P,U2,21,VCC
*%
%TO.N,+5V*%
X172960000Y-118840000D03*
%TO.P,U2,22,RST*%
%TO.N,unconnected-(U2-RST-Pad22)*%
X175500000Y-118840000D03*
%TO.P,U2,23,GND*%
%TO.N,GND*%
X178040000Y-118840000D03*
%TO.P,U2,24,RAW*%
%TO.N,Net-(J1-Pin_2)*%
X180580000Y-118840000D03*
%TD*%
D24*
%TO.N,GND*%
X159952500Y-100800000D03*
X143752500Y-109700000D03*
X148652500Y-109700000D03*
%TO.N,+5V*%
X142200000Y-92400000D03*
X143200000Y-103400000D03*
X144300000Y-102300000D03*
X145800000Y-96000000D03*
X145900000Y-100800000D03*
X142200000Y-89200000D03*
%TO.N,R*%
X162800000Y-100000000D03*
X156300000Y-98400000D03*
X158000000Y-99100000D03*
X147000000Y-95800000D03*
X153486407Y-95837281D03*
%TO.N,G*%
X158800000Y-95100000D03*
%TO.N,B*%
X149400000Y-89000000D03*
X153100000Y-80100000D03*
X153300000Y-100100000D03*
%TO.N,SW*%
X140700000Y-114100000D03*
X149200000Y-114100000D03*
%TO.N,MOSI*%
X149950000Y-102950000D03*
X147100000Y-93800000D03*
X145444975Y-93255025D03*
%TO.N,MISO*%
X151389949Y-96499999D03*
X147200000Y-96800000D03*
X148300000Y-101900000D03*
%TO.N,SCK*%
X157800000Y-106100000D03*
X148700000Y-88000000D03*
X154337613Y-99288073D03*
%TO.N,Net-(U1-~{CSN})*%
X150700000Y-104900000D03*
%TO.N,Net-(U2-D2{slash}SDA)*%
X163200000Y-107600000D03*
%TO.N,Net-(U2-D3{slash}SCL)*%
X162600000Y-106500000D03*
%TO.N,CE*%
X137900000Y-103500000D03*
X140700000Y-99100000D03*
%TO.N,CSN*%
X134800000Y-103000000D03*
%TD*%
D25*
%TO.N,GND*%
X172960000Y-103600000D02*
X175500000Y-103600000D01*
X175500000Y-112600000D02*
X175500000Y-103600000D01*
X147100000Y-111252500D02*
X148652500Y-109700000D01*
X175500000Y-102200000D02*
X175500000Y-100400000D01*
X143752500Y-115547500D02*
X143752500Y-109700000D01*
X175500000Y-103600000D02*
X174250000Y-102350000D01*
X172960000Y-103600000D02*
X174210000Y-102350000D01*
X174400000Y-102200000D02*
X174250000Y-102350000D01*
X183800000Y-88110000D02*
X183800000Y-88200000D01*
X178040000Y-118840000D02*
X178040000Y-115140000D01*
X147100000Y-116500000D02*
X147100000Y-111252500D01*
X182400000Y-93500000D02*
X183800000Y-92100000D01*
X182100000Y-86410000D02*
X183800000Y-88110000D01*
X183800000Y-92100000D02*
X183800000Y-88200000D01*
X149200000Y-118600000D02*
X147100000Y-116500000D01*
X174250000Y-102350000D02*
X172700000Y-100800000D01*
X178040000Y-115140000D02*
X175500000Y-112600000D01*
X140700000Y-118600000D02*
X143752500Y-115547500D01*
X175500000Y-102200000D02*
X174400000Y-102200000D01*
X175500000Y-103600000D02*
X175500000Y-102200000D01*
X174210000Y-102350000D02*
X174250000Y-102350000D01*
X172700000Y-100800000D02*
X159952500Y-100800000D01*
X175500000Y-100400000D02*
X182400000Y-93500000D01*
%TO.N,+5V*%
X145900000Y-100800000D02*
X145800000Y-100800000D01*
X141047500Y-108242500D02*
X142460000Y-106830000D01*
X159000000Y-102552500D02*
X159000000Y-104880000D01*
X141047500Y-109700000D02*
X141047500Y-108242500D01*
X157247500Y-100800000D02*
X157247500Y-98652500D01*
X142460000Y-104640000D02*
X142460000Y-104140000D01*
X153400000Y-100800000D02*
X145900000Y-100800000D01*
X142200000Y-92400000D02*
X145800000Y-96000000D01*
X145800000Y-100800000D02*
X144300000Y-102300000D01*
X159000000Y-104880000D02*
X172960000Y-118840000D01*
X166950000Y-88950000D02*
X182100000Y-88950000D01*
X142460000Y-104140000D02*
X143200000Y-103400000D01*
X157247500Y-98652500D02*
X166950000Y-88950000D01*
X142200000Y-89200000D02*
X142095000Y-89095000D01*
X142095000Y-89095000D02*
X142095000Y-79700000D01*
X142460000Y-106830000D02*
X142460000Y-104640000D01*
X153400000Y-100800000D02*
X157247500Y-100800000D01*
X157247500Y-100800000D02*
X159000000Y-102552500D01*
%TO.N,+3.3V*%
X145947500Y-109700000D02*
X145947500Y-108422500D01*
X151300000Y-84400000D02*
X147900000Y-87800000D01*
X140080000Y-102200000D02*
X128700000Y-102200000D01*
X145947500Y-108422500D02*
X147540000Y-106830000D01*
X154850500Y-85975000D02*
X154850500Y-85050500D01*
X135000000Y-97120000D02*
X140080000Y-102200000D01*
X147900000Y-97500000D02*
X143200000Y-102200000D01*
X128700000Y-102200000D02*
X113100000Y-117800000D01*
X147900000Y-87800000D02*
X147900000Y-97500000D01*
X140080000Y-102200000D02*
X143200000Y-102200000D01*
X147540000Y-106830000D02*
X147540000Y-106540000D01*
X147540000Y-106540000D02*
X143200000Y-102200000D01*
X154850500Y-85050500D02*
X154200000Y-84400000D01*
X154200000Y-84400000D02*
X151300000Y-84400000D01*
%TO.N,Net-(D1-BK)*%
X148495000Y-80100000D02*
X148095000Y-79700000D01*
X150237500Y-80100000D02*
X148495000Y-80100000D01*
%TO.N,Net-(D1-GK)*%
X143537500Y-84800000D02*
X143537500Y-82257500D01*
X143537500Y-82257500D02*
X146095000Y-79700000D01*
%TO.N,Net-(D1-RK)*%
X144095000Y-79700000D02*
X144095000Y-78700000D01*
X140062500Y-79037500D02*
X140062500Y-80200000D01*
X143395000Y-78000000D02*
X141100000Y-78000000D01*
X144095000Y-78700000D02*
X143395000Y-78000000D01*
X141100000Y-78000000D02*
X140062500Y-79037500D01*
%TO.N,Net-(J1-Pin_2)*%
X182400000Y-96040000D02*
X182400000Y-117020000D01*
X182400000Y-117020000D02*
X180580000Y-118840000D01*
%TO.N,R*%
X153486407Y-95837281D02*
X153737281Y-95837281D01*
X158000000Y-99100000D02*
X161900000Y-99100000D01*
X153737281Y-95837281D02*
X156300000Y-98400000D01*
X147000000Y-95800000D02*
X137137500Y-85937500D01*
X137137500Y-85937500D02*
X137137500Y-80200000D01*
X161900000Y-99100000D02*
X162800000Y-100000000D01*
%TO.N,G*%
X155700000Y-83100000D02*
X158800000Y-86200000D01*
X146462500Y-84800000D02*
X148162500Y-83100000D01*
X158800000Y-86200000D02*
X158800000Y-95100000D01*
X148162500Y-83100000D02*
X155700000Y-83100000D01*
%TO.N,B*%
X153300000Y-100100000D02*
X153300000Y-99400000D01*
X153300000Y-99400000D02*
X149400000Y-95500000D01*
X149400000Y-95500000D02*
X149400000Y-89000000D01*
%TO.N,MOSI*%
X146555025Y-93255025D02*
X147100000Y-93800000D01*
X155180000Y-108180000D02*
X155180000Y-118840000D01*
X145444975Y-93255025D02*
X146555025Y-93255025D01*
X149950000Y-102950000D02*
X155180000Y-108180000D01*
%TO.N,MISO*%
X155178471Y-101900000D02*
X148300000Y-101900000D01*
X151389949Y-96499999D02*
X151389949Y-94515551D01*
X157720000Y-118840000D02*
X156519000Y-117639000D01*
X156519000Y-117639000D02*
X156519000Y-103240529D01*
X137540000Y-89500000D02*
X144840000Y-96800000D01*
X156519000Y-103240529D02*
X155178471Y-101900000D01*
X144840000Y-96800000D02*
X147200000Y-96800000D01*
X151389949Y-94515551D02*
X152310500Y-93595000D01*
%TO.N,SCK*%
X152785407Y-94889275D02*
X153561500Y-94113182D01*
X153561500Y-94113182D02*
X153561500Y-92306000D01*
X148900000Y-88000000D02*
X148700000Y-88000000D01*
X153561500Y-92306000D02*
X152310500Y-91055000D01*
X152310500Y-90919136D02*
X149391364Y-88000000D01*
X149391364Y-88000000D02*
X149101000Y-88000000D01*
X152310500Y-91055000D02*
X152310500Y-90919136D01*
X154337613Y-98137613D02*
X152785407Y-96585407D01*
X160260000Y-108560000D02*
X157800000Y-106100000D01*
X152785407Y-96585407D02*
X152785407Y-94889275D01*
X154337613Y-99288073D02*
X154337613Y-98137613D01*
X160260000Y-118840000D02*
X160260000Y-108560000D01*
X149101000Y-88000000D02*
X148900000Y-88000000D01*
%TO.N,Net-(U1-~{CSN})*%
X152640000Y-118840000D02*
X152640000Y-106840000D01*
X152640000Y-106840000D02*
X150700000Y-104900000D01*
%TO.N,Net-(U2-D2{slash}SDA)*%
X163200000Y-107600000D02*
X166420000Y-107600000D01*
X166420000Y-107600000D02*
X170420000Y-103600000D01*
%TO.N,Net-(U2-D3{slash}SCL)*%
X164980000Y-106500000D02*
X167880000Y-103600000D01*
X162600000Y-106500000D02*
X164980000Y-106500000D01*
%TO.N,CE*%
X139539000Y-120041000D02*
X137900000Y-118402000D01*
X137900000Y-118402000D02*
X137900000Y-103500000D01*
X140700000Y-99100000D02*
X140700000Y-97740000D01*
X140700000Y-97740000D02*
X137540000Y-94580000D01*
X165340000Y-118840000D02*
X164139000Y-120041000D01*
X164139000Y-120041000D02*
X139539000Y-120041000D01*
%TO.N,CSN*%
X139348058Y-120700000D02*
X137211000Y-118562942D01*
X137200000Y-105400000D02*
X134800000Y-103000000D01*
X166020000Y-120700000D02*
X139348058Y-120700000D01*
X167880000Y-118840000D02*
X166020000Y-120700000D01*
X137211000Y-118562942D02*
X137211000Y-110611000D01*
X137211000Y-110611000D02*
X137200000Y-110600000D01*
X137200000Y-110600000D02*
X137200000Y-105400000D01*
%TD*%
%TA.AperFunction,NonConductor*%
G36*
X143423119Y-80944551D02*
G01*
X143437949Y-80942956D01*
X143471438Y-80954101D01*
X143471814Y-80954289D01*
X143557394Y-80997895D01*
X143561785Y-80999321D01*
X143570107Y-81003487D01*
X143621246Y-81051096D01*
X143638527Y-81118795D01*
X143616465Y-81185090D01*
X143602287Y-81202054D01*
X143007181Y-81797161D01*
X142945858Y-81830646D01*
X142876167Y-81825662D01*
X142820233Y-81783791D01*
X142795816Y-81718326D01*
X142795500Y-81709480D01*
X142795500Y-81224499D01*
X142815185Y-81157460D01*
X142867989Y-81111705D01*
X142919500Y-81100499D01*
X143042871Y-81100499D01*
X143042872Y-81100499D01*
X143102483Y-81094091D01*
X143237331Y-81043796D01*
X143291177Y-81003487D01*
X143341626Y-80965721D01*
X143356291Y-80960250D01*
X143368480Y-80950428D01*
X143388358Y-80948289D01*
X143407090Y-80941303D01*
X143423119Y-80944551D01*
G37*
%TD.AperFunction*%
%TA.AperFunction,NonConductor*%
G36*
X153774078Y-86858488D02*
G01*
X153828918Y-86870417D01*
X153857173Y-86891569D01*
X153970713Y-87005109D01*
X154142682Y-87130050D01*
X154151446Y-87134516D01*
X154202242Y-87182491D01*
X154219036Y-87250312D01*
X154196498Y-87316447D01*
X154151446Y-87355484D01*
X154142682Y-87359949D01*
X153970713Y-87484890D01*
X153820390Y-87635213D01*
X153695449Y-87807182D01*
X153690984Y-87815946D01*
X153643009Y-87866742D01*
X153575188Y-87883536D01*
X153509053Y-87860998D01*
X153470016Y-87815946D01*
X153465550Y-87807182D01*
X153340609Y-87635213D01*
X153227069Y-87521673D01*
X153193584Y-87460350D01*
X153198568Y-87390658D01*
X153240440Y-87334725D01*
X153271415Y-87317810D01*
X153402831Y-87268796D01*
X153518046Y-87182546D01*
X153604296Y-87067331D01*
X153653311Y-86935914D01*
X153695182Y-86879983D01*
X153752152Y-86858734D01*
X153760645Y-86855566D01*
X153760646Y-86855566D01*
X153774078Y-86858488D01*
G37*
%TD.AperFunction*%
%TA.AperFunction,NonConductor*%
G36*
X150879334Y-85913835D02*
G01*
X150935267Y-85955707D01*
X150959684Y-86021171D01*
X150960000Y-86030017D01*
X150960000Y-86872870D01*
X150960001Y-86872876D01*
X150966408Y-86932483D01*
X151016702Y-87067328D01*
X151016706Y-87067335D01*
X151102952Y-87182544D01*
X151102955Y-87182547D01*
X151218164Y-87268793D01*
X151218171Y-87268797D01*
X151349582Y-87317810D01*
X151405516Y-87359681D01*
X151429933Y-87425145D01*
X151415082Y-87493418D01*
X151393931Y-87521673D01*
X151280389Y-87635215D01*
X151155451Y-87807179D01*
X151058944Y-87996585D01*
X150993253Y-88198759D01*
X150974926Y-88314469D01*
X150944996Y-88377603D01*
X150885684Y-88414534D01*
X150815822Y-88413536D01*
X150764772Y-88382751D01*
X149837910Y-87455888D01*
X149837909Y-87455887D01*
X149723171Y-87379222D01*
X149603481Y-87329646D01*
X149549077Y-87285805D01*
X149527012Y-87219511D01*
X149544291Y-87151812D01*
X149563248Y-87127407D01*
X150748321Y-85942334D01*
X150809642Y-85908851D01*
X150879334Y-85913835D01*
G37*
%TD.AperFunction*%
%TA.AperFunction,NonConductor*%
G36*
X153842539Y-76520185D02*
G01*
X153888294Y-76572989D01*
X153899500Y-76624500D01*
X153899500Y-78203314D01*
X153879815Y-78270353D01*
X153827011Y-78316108D01*
X153757853Y-78326052D01*
X153736497Y-78321020D01*
X153627799Y-78285001D01*
X153627795Y-78285000D01*
X153525010Y-78274500D01*
X152799998Y-78274500D01*
X152799980Y-78274501D01*
X152697203Y-78285000D01*
X152697200Y-78285001D01*
X152530668Y-78340185D01*
X152530663Y-78340187D01*
X152381342Y-78432289D01*
X152257289Y-78556342D01*
X152165187Y-78705663D01*
X152165186Y-78705666D01*
X152110001Y-78872203D01*
X152110001Y-78872204D01*
X152110000Y-78872204D01*
X152099500Y-78974983D01*
X152099500Y-81225001D01*
X152099501Y-81225018D01*
X152110000Y-81327796D01*
X152110001Y-81327799D01*
X152143137Y-81427795D01*
X152165186Y-81494334D01*
X152257288Y-81643656D01*
X152381344Y-81767712D01*
X152530666Y-81859814D01*
X152697203Y-81914999D01*
X152799991Y-81925500D01*
X153525008Y-81925499D01*
X153525016Y-81925498D01*
X153525019Y-81925498D01*
X153603705Y-81917460D01*
X153627797Y-81914999D01*
X153736498Y-81878978D01*
X153806324Y-81876577D01*
X153866366Y-81912308D01*
X153897559Y-81974828D01*
X153899500Y-81996685D01*
X153899500Y-82034108D01*
X153899500Y-82165892D01*
X153920270Y-82243407D01*
X153918607Y-82313257D01*
X153879444Y-82371119D01*
X153815216Y-82398623D01*
X153800495Y-82399500D01*
X148093504Y-82399500D01*
X147958177Y-82426418D01*
X147958167Y-82426421D01*
X147830692Y-82479222D01*
X147715954Y-82555887D01*
X147248597Y-83023244D01*
X147187274Y-83056729D01*
X147117582Y-83051745D01*
X147095824Y-83041104D01*
X147094345Y-83040192D01*
X147094338Y-83040188D01*
X147094334Y-83040186D01*
X146927797Y-82985001D01*
X146927795Y-82985000D01*
X146825010Y-82974500D01*
X146099998Y-82974500D01*
X146099980Y-82974501D01*
X145997203Y-82985000D01*
X145997200Y-82985001D01*
X145830668Y-83040185D01*
X145830663Y-83040187D01*
X145681342Y-83132289D01*
X145557289Y-83256342D01*
X145465187Y-83405663D01*
X145465186Y-83405666D01*
X145410001Y-83572203D01*
X145410001Y-83572204D01*
X145410000Y-83572204D01*
X145399500Y-83674983D01*
X145399500Y-85925001D01*
X145399501Y-85925018D01*
X145410000Y-86027796D01*
X145410001Y-86027799D01*
X145465185Y-86194331D01*
X145465186Y-86194334D01*
X145557288Y-86343656D01*
X145681344Y-86467712D01*
X145830666Y-86559814D01*
X145997203Y-86614999D01*
X146099991Y-86625500D01*
X146825008Y-86625499D01*
X146825016Y-86625498D01*
X146825019Y-86625498D01*
X146881302Y-86619748D01*
X146927797Y-86614999D01*
X147094334Y-86559814D01*
X147243656Y-86467712D01*
X147367712Y-86343656D01*
X147459814Y-86194334D01*
X147514999Y-86027797D01*
X147525500Y-85925009D01*
X147525499Y-84779017D01*
X147545184Y-84711979D01*
X147561813Y-84691342D01*
X148416338Y-83836819D01*
X148477661Y-83803334D01*
X148504019Y-83800500D01*
X150609480Y-83800500D01*
X150676519Y-83820185D01*
X150722274Y-83872989D01*
X150732218Y-83942147D01*
X150703193Y-84005703D01*
X150697161Y-84012181D01*
X147355888Y-87353453D01*
X147355887Y-87353454D01*
X147279224Y-87468190D01*
X147226421Y-87595666D01*
X147226420Y-87595672D01*
X147221418Y-87620821D01*
X147199500Y-87731004D01*
X147199500Y-89707437D01*
X147179815Y-89774476D01*
X147127011Y-89820231D01*
X147057853Y-89830175D01*
X146994297Y-89801150D01*
X146956523Y-89742372D01*
X146955725Y-89739531D01*
X146952051Y-89725819D01*
X146898398Y-89525581D01*
X146898394Y-89525571D01*
X146798046Y-89283309D01*
X146798041Y-89283299D01*
X146666924Y-89056196D01*
X146544424Y-88896554D01*
X146507282Y-88848149D01*
X146507281Y-88848148D01*
X146507274Y-88848140D01*
X146321860Y-88662726D01*
X146321851Y-88662718D01*
X146113803Y-88503075D01*
X145886700Y-88371958D01*
X145886690Y-88371953D01*
X145644428Y-88271605D01*
X145644421Y-88271603D01*
X145644419Y-88271602D01*
X145391116Y-88203730D01*
X145333339Y-88196123D01*
X145131127Y-88169500D01*
X145131120Y-88169500D01*
X144868880Y-88169500D01*
X144868872Y-88169500D01*
X144646634Y-88198760D01*
X144608884Y-88203730D01*
X144355581Y-88271602D01*
X144355571Y-88271605D01*
X144113309Y-88371953D01*
X144113299Y-88371958D01*
X143886196Y-88503075D01*
X143678148Y-88662718D01*
X143492718Y-88848148D01*
X143333075Y-89056196D01*
X143231887Y-89231462D01*
X143181320Y-89279677D01*
X143112713Y-89292901D01*
X143047849Y-89266933D01*
X143007320Y-89210019D01*
X143000500Y-89169462D01*
X143000500Y-89121155D01*
X143000499Y-89121153D01*
X142984028Y-89038349D01*
X142969737Y-88966503D01*
X142920714Y-88848149D01*
X142909397Y-88820827D01*
X142909390Y-88820814D01*
X142818405Y-88684646D01*
X142820061Y-88683539D01*
X142796332Y-88627652D01*
X142795500Y-88613309D01*
X142795500Y-86695028D01*
X142815185Y-86627989D01*
X142867989Y-86582234D01*
X142937147Y-86572290D01*
X142958495Y-86577320D01*
X143072203Y-86614999D01*
X143174991Y-86625500D01*
X143900008Y-86625499D01*
X143900016Y-86625498D01*
X143900019Y-86625498D01*
X143956302Y-86619748D01*
X144002797Y-86614999D01*
X144169334Y-86559814D01*
X144318656Y-86467712D01*
X144442712Y-86343656D01*
X144534814Y-86194334D01*
X144589999Y-86027797D01*
X144600500Y-85925009D01*
X144600499Y-83674992D01*
X144589999Y-83572203D01*
X144534814Y-83405666D01*
X144442712Y-83256344D01*
X144318656Y-83132288D01*
X144306030Y-83124500D01*
X144296900Y-83118868D01*
X144250177Y-83066918D01*
X144238000Y-83013331D01*
X144238000Y-82599018D01*
X144257685Y-82531979D01*
X144274314Y-82511342D01*
X145681449Y-81104206D01*
X145742770Y-81070723D01*
X145788522Y-81069416D01*
X145984778Y-81100500D01*
X145984779Y-81100500D01*
X146205221Y-81100500D01*
X146205222Y-81100500D01*
X146422951Y-81066015D01*
X146632606Y-80997895D01*
X146829022Y-80897815D01*
X147007365Y-80768242D01*
X147007371Y-80768235D01*
X147011061Y-80765085D01*
X147011736Y-80765875D01*
X147068642Y-80734803D01*
X147138334Y-80739787D01*
X147178498Y-80765600D01*
X147178939Y-80765085D01*
X147182641Y-80768247D01*
X147259630Y-80824182D01*
X147360978Y-80897815D01*
X147483512Y-80960250D01*
X147557393Y-80997895D01*
X147557396Y-80997896D01*
X147662221Y-81031955D01*
X147767049Y-81066015D01*
X147984778Y-81100500D01*
X147984779Y-81100500D01*
X148205221Y-81100500D01*
X148205222Y-81100500D01*
X148422951Y-81066015D01*
X148632606Y-80997895D01*
X148829022Y-80897815D01*
X148896278Y-80848950D01*
X148930370Y-80824182D01*
X148950414Y-80817029D01*
X148968320Y-80805523D01*
X148992346Y-80802068D01*
X148996176Y-80800702D01*
X149003255Y-80800500D01*
X149050501Y-80800500D01*
X149117540Y-80820185D01*
X149163295Y-80872989D01*
X149174501Y-80924500D01*
X149174501Y-81225018D01*
X149185000Y-81327796D01*
X149185001Y-81327799D01*
X149218137Y-81427795D01*
X149240186Y-81494334D01*
X149332288Y-81643656D01*
X149456344Y-81767712D01*
X149605666Y-81859814D01*
X149772203Y-81914999D01*
X149874991Y-81925500D01*
X150600008Y-81925499D01*
X150600016Y-81925498D01*
X150600019Y-81925498D01*
X150678705Y-81917460D01*
X150702797Y-81914999D01*
X150869334Y-81859814D01*
X151018656Y-81767712D01*
X151142712Y-81643656D01*
X151234814Y-81494334D01*
X151289999Y-81327797D01*
X151300500Y-81225009D01*
X151300499Y-78974992D01*
X151289999Y-78872203D01*
X151234814Y-78705666D01*
X151142712Y-78556344D01*
X151018656Y-78432288D01*
X150869334Y-78340186D01*
X150702797Y-78285001D01*
X150702795Y-78285000D01*
X150600010Y-78274500D01*
X149874998Y-78274500D01*
X149874980Y-78274501D01*
X149772203Y-78285000D01*
X149772200Y-78285001D01*
X149605668Y-78340185D01*
X149605663Y-78340187D01*
X149456342Y-78432289D01*
X149332289Y-78556342D01*
X149261890Y-78670478D01*
X149209942Y-78717202D01*
X149140979Y-78728425D01*
X149076897Y-78700581D01*
X149068670Y-78693063D01*
X149040804Y-78665197D01*
X149007365Y-78631758D01*
X149007361Y-78631755D01*
X149007357Y-78631751D01*
X148829025Y-78502187D01*
X148829024Y-78502186D01*
X148829022Y-78502185D01*
X148755829Y-78464891D01*
X148632606Y-78402104D01*
X148632603Y-78402103D01*
X148422952Y-78333985D01*
X148310080Y-78316108D01*
X148205222Y-78299500D01*
X147984778Y-78299500D01*
X147912201Y-78310995D01*
X147767047Y-78333985D01*
X147557396Y-78402103D01*
X147557393Y-78402104D01*
X147360974Y-78502187D01*
X147182641Y-78631752D01*
X147178939Y-78634915D01*
X147178263Y-78634124D01*
X147121358Y-78665197D01*
X147051666Y-78660213D01*
X147011501Y-78634399D01*
X147011061Y-78634915D01*
X147007358Y-78631752D01*
X146829025Y-78502187D01*
X146829024Y-78502186D01*
X146829022Y-78502185D01*
X146755829Y-78464891D01*
X146632606Y-78402104D01*
X146632603Y-78402103D01*
X146422952Y-78333985D01*
X146310080Y-78316108D01*
X146205222Y-78299500D01*
X145984778Y-78299500D01*
X145912201Y-78310995D01*
X145767047Y-78333985D01*
X145557396Y-78402103D01*
X145557393Y-78402104D01*
X145360974Y-78502187D01*
X145182641Y-78631752D01*
X145178939Y-78634915D01*
X145178263Y-78634124D01*
X145121358Y-78665197D01*
X145051666Y-78660213D01*
X145011501Y-78634399D01*
X145011061Y-78634915D01*
X145007358Y-78631752D01*
X144829025Y-78502186D01*
X144796587Y-78485658D01*
X144745792Y-78437683D01*
X144738328Y-78422637D01*
X144715775Y-78368189D01*
X144715771Y-78368182D01*
X144639115Y-78253459D01*
X144639114Y-78253458D01*
X144541542Y-78155886D01*
X143841546Y-77455888D01*
X143841545Y-77455887D01*
X143726807Y-77379222D01*
X143599332Y-77326421D01*
X143599322Y-77326418D01*
X143463996Y-77299500D01*
X143463994Y-77299500D01*
X143463993Y-77299500D01*
X141168994Y-77299500D01*
X141031006Y-77299500D01*
X141031004Y-77299500D01*
X140895677Y-77326418D01*
X140895667Y-77326421D01*
X140768192Y-77379222D01*
X140653454Y-77455887D01*
X139770000Y-78339341D01*
X139708677Y-78372826D01*
X139694921Y-78375018D01*
X139597202Y-78385001D01*
X139597200Y-78385001D01*
X139430668Y-78440185D01*
X139430663Y-78440187D01*
X139281342Y-78532289D01*
X139157289Y-78656342D01*
X139065187Y-78805663D01*
X139065185Y-78805668D01*
X139043139Y-78872200D01*
X139010001Y-78972203D01*
X139010001Y-78972204D01*
X139010000Y-78972204D01*
X138999500Y-79074983D01*
X138999500Y-81325001D01*
X138999501Y-81325018D01*
X139010000Y-81427796D01*
X139010001Y-81427799D01*
X139065185Y-81594331D01*
X139065186Y-81594334D01*
X139157288Y-81743656D01*
X139281344Y-81867712D01*
X139430666Y-81959814D01*
X139597203Y-82014999D01*
X139699991Y-82025500D01*
X140425008Y-82025499D01*
X140425016Y-82025498D01*
X140425019Y-82025498D01*
X140481302Y-82019748D01*
X140527797Y-82014999D01*
X140694334Y-81959814D01*
X140843656Y-81867712D01*
X140967712Y-81743656D01*
X141059814Y-81594334D01*
X141114999Y-81427797D01*
X141125500Y-81325009D01*
X141125499Y-81224498D01*
X141128049Y-81215813D01*
X141126761Y-81206852D01*
X141137738Y-81182813D01*
X141145183Y-81157461D01*
X141152024Y-81151532D01*
X141155786Y-81143296D01*
X141178016Y-81129009D01*
X141197986Y-81111705D01*
X141208502Y-81109417D01*
X141214564Y-81105522D01*
X141249494Y-81100499D01*
X141270501Y-81100499D01*
X141337539Y-81120184D01*
X141383294Y-81172988D01*
X141394500Y-81224499D01*
X141394500Y-88904481D01*
X141374815Y-88971520D01*
X141322011Y-89017275D01*
X141252853Y-89027219D01*
X141189297Y-88998194D01*
X141182819Y-88992162D01*
X137874319Y-85683662D01*
X137840834Y-85622339D01*
X137838000Y-85595981D01*
X137838000Y-81986667D01*
X137857685Y-81919628D01*
X137896905Y-81881127D01*
X137918656Y-81867712D01*
X138042712Y-81743656D01*
X138134814Y-81594334D01*
X138189999Y-81427797D01*
X138200500Y-81325009D01*
X138200499Y-79074992D01*
X138189999Y-78972203D01*
X138134814Y-78805666D01*
X138042712Y-78656344D01*
X137918656Y-78532288D01*
X137825888Y-78475069D01*
X137769336Y-78440187D01*
X137769331Y-78440185D01*
X137745499Y-78432288D01*
X137602797Y-78385001D01*
X137602795Y-78385000D01*
X137500010Y-78374500D01*
X136774998Y-78374500D01*
X136774980Y-78374501D01*
X136672203Y-78385000D01*
X136672202Y-78385001D01*
X136663502Y-78387884D01*
X136593674Y-78390284D01*
X136533632Y-78354552D01*
X136502441Y-78292031D01*
X136500500Y-78270177D01*
X136500500Y-76624500D01*
X136520185Y-76557461D01*
X136572989Y-76511706D01*
X136624500Y-76500500D01*
X153134108Y-76500500D01*
X153334108Y-76500500D01*
X153775500Y-76500500D01*
X153842539Y-76520185D01*
G37*
%TD.AperFunction*%
%TA.AperFunction,NonConductor*%
G36*
X153651944Y-89168999D02*
G01*
X153690986Y-89214056D01*
X153695451Y-89222820D01*
X153820390Y-89394786D01*
X153970713Y-89545109D01*
X154142682Y-89670050D01*
X154151446Y-89674516D01*
X154202242Y-89722491D01*
X154219036Y-89790312D01*
X154196498Y-89856447D01*
X154151446Y-89895484D01*
X154142682Y-89899949D01*
X153970713Y-90024890D01*
X153820390Y-90175213D01*
X153695449Y-90347182D01*
X153690984Y-90355946D01*
X153643009Y-90406742D01*
X153575188Y-90423536D01*
X153509053Y-90400998D01*
X153470016Y-90355946D01*
X153465550Y-90347182D01*
X153340609Y-90175213D01*
X153190286Y-90024890D01*
X153018320Y-89899951D01*
X153017615Y-89899591D01*
X153009554Y-89895485D01*
X152958759Y-89847512D01*
X152941963Y-89779692D01*
X152964499Y-89713556D01*
X153009554Y-89674515D01*
X153018316Y-89670051D01*
X153045226Y-89650500D01*
X153190286Y-89545109D01*
X153190288Y-89545106D01*
X153190292Y-89545104D01*
X153340604Y-89394792D01*
X153340606Y-89394788D01*
X153340609Y-89394786D01*
X153465548Y-89222820D01*
X153465547Y-89222820D01*
X153465551Y-89222816D01*
X153470014Y-89214054D01*
X153517988Y-89163259D01*
X153585808Y-89146463D01*
X153651944Y-89168999D01*
G37*
%TD.AperFunction*%
%TA.AperFunction,NonConductor*%
G36*
X142909187Y-89682769D02*
G01*
X142939160Y-89682413D01*
X142943668Y-89685235D01*
X142948976Y-89685615D01*
X142972976Y-89703580D01*
X142998383Y-89719485D01*
X143000650Y-89724297D01*
X143004910Y-89727486D01*
X143015387Y-89755577D01*
X143028162Y-89782691D01*
X143028249Y-89790061D01*
X143029327Y-89792950D01*
X143028582Y-89817982D01*
X142999501Y-90038870D01*
X142999500Y-90038886D01*
X142999500Y-90301127D01*
X143028798Y-90523654D01*
X143018033Y-90592690D01*
X142971653Y-90644946D01*
X142904384Y-90663831D01*
X142837583Y-90643351D01*
X142818178Y-90627521D01*
X142369744Y-90179087D01*
X142336259Y-90117764D01*
X142341243Y-90048072D01*
X142383115Y-89992139D01*
X142427870Y-89972184D01*
X142427665Y-89971506D01*
X142433066Y-89969867D01*
X142433247Y-89969786D01*
X142433497Y-89969737D01*
X142546166Y-89923067D01*
X142579172Y-89909397D01*
X142579172Y-89909396D01*
X142579179Y-89909394D01*
X142710289Y-89821789D01*
X142817963Y-89714114D01*
X142844274Y-89699747D01*
X142869295Y-89683244D01*
X142874614Y-89683180D01*
X142879284Y-89680631D01*
X142909187Y-89682769D01*
G37*
%TD.AperFunction*%
%TA.AperFunction,NonConductor*%
G36*
X136341444Y-90153999D02*
G01*
X136380484Y-90199054D01*
X136384591Y-90207115D01*
X136384951Y-90207820D01*
X136509890Y-90379786D01*
X136660213Y-90530109D01*
X136832182Y-90655050D01*
X136840946Y-90659516D01*
X136891742Y-90707491D01*
X136908536Y-90775312D01*
X136885998Y-90841447D01*
X136840946Y-90880484D01*
X136832182Y-90884949D01*
X136660213Y-91009890D01*
X136509890Y-91160213D01*
X136384949Y-91332182D01*
X136380484Y-91340946D01*
X136332509Y-91391742D01*
X136264688Y-91408536D01*
X136198553Y-91385998D01*
X136159516Y-91340946D01*
X136155050Y-91332182D01*
X136030109Y-91160213D01*
X135879786Y-91009890D01*
X135707820Y-90884951D01*
X135707115Y-90884591D01*
X135699054Y-90880485D01*
X135648259Y-90832512D01*
X135631463Y-90764692D01*
X135653999Y-90698556D01*
X135699054Y-90659515D01*
X135707816Y-90655051D01*
X135745708Y-90627521D01*
X135879786Y-90530109D01*
X135879788Y-90530106D01*
X135879792Y-90530104D01*
X136030104Y-90379792D01*
X136030106Y-90379788D01*
X136030109Y-90379786D01*
X136155048Y-90207820D01*
X136155047Y-90207820D01*
X136155051Y-90207816D01*
X136159514Y-90199054D01*
X136207488Y-90148259D01*
X136275308Y-90131463D01*
X136341444Y-90153999D01*
G37*
%TD.AperFunction*%
%TA.AperFunction,NonConductor*%
G36*
X138930268Y-88720926D02*
G01*
X141761414Y-91552071D01*
X141794899Y-91613394D01*
X141789915Y-91683086D01*
X141748043Y-91739019D01*
X141742625Y-91742853D01*
X141689713Y-91778208D01*
X141689707Y-91778213D01*
X141578213Y-91889707D01*
X141578210Y-91889711D01*
X141490609Y-92020814D01*
X141490604Y-92020824D01*
X141433006Y-92159879D01*
X141389165Y-92214282D01*
X141322871Y-92236347D01*
X141255171Y-92219068D01*
X141230764Y-92200107D01*
X138900507Y-89869850D01*
X138867022Y-89808527D01*
X138865715Y-89762771D01*
X138866855Y-89755577D01*
X138890500Y-89606287D01*
X138890500Y-89393713D01*
X138857246Y-89183757D01*
X138791557Y-88981588D01*
X138732101Y-88864900D01*
X138719206Y-88796233D01*
X138745482Y-88731493D01*
X138802588Y-88691235D01*
X138872394Y-88688243D01*
X138930268Y-88720926D01*
G37*
%TD.AperFunction*%
%TA.AperFunction,NonConductor*%
G36*
X147124312Y-90518574D02*
G01*
X147178190Y-90563059D01*
X147199465Y-90629611D01*
X147199500Y-90632562D01*
X147199500Y-92611176D01*
X147179815Y-92678215D01*
X147127011Y-92723970D01*
X147057853Y-92733914D01*
X147006610Y-92714279D01*
X146936919Y-92667714D01*
X146886836Y-92634250D01*
X146886833Y-92634248D01*
X146886832Y-92634248D01*
X146759357Y-92581446D01*
X146759347Y-92581443D01*
X146624021Y-92554525D01*
X146624019Y-92554525D01*
X146624018Y-92554525D01*
X145870291Y-92554525D01*
X145822839Y-92545086D01*
X145678476Y-92485289D01*
X145678464Y-92485286D01*
X145523820Y-92454525D01*
X145523817Y-92454525D01*
X145366133Y-92454525D01*
X145366130Y-92454525D01*
X145211485Y-92485286D01*
X145211473Y-92485289D01*
X145065802Y-92545627D01*
X145065789Y-92545634D01*
X144952884Y-92621076D01*
X144886206Y-92641954D01*
X144818826Y-92623470D01*
X144796312Y-92605655D01*
X144542478Y-92351821D01*
X144508993Y-92290498D01*
X144513977Y-92220806D01*
X144555849Y-92164873D01*
X144621313Y-92140456D01*
X144646335Y-92141200D01*
X144868880Y-92170500D01*
X144868887Y-92170500D01*
X145131113Y-92170500D01*
X145131120Y-92170500D01*
X145391116Y-92136270D01*
X145644419Y-92068398D01*
X145886697Y-91968043D01*
X146113803Y-91836924D01*
X146321851Y-91677282D01*
X146321855Y-91677277D01*
X146321860Y-91677274D01*
X146507274Y-91491860D01*
X146507277Y-91491855D01*
X146507282Y-91491851D01*
X146666924Y-91283803D01*
X146798043Y-91056697D01*
X146898398Y-90814419D01*
X146955725Y-90600467D01*
X146992090Y-90540808D01*
X147054937Y-90510279D01*
X147124312Y-90518574D01*
G37*
%TD.AperFunction*%
%TA.AperFunction,NonConductor*%
G36*
X136341444Y-92693999D02*
G01*
X136380486Y-92739056D01*
X136384951Y-92747820D01*
X136509890Y-92919786D01*
X136660213Y-93070109D01*
X136832182Y-93195050D01*
X136840946Y-93199516D01*
X136891742Y-93247491D01*
X136908536Y-93315312D01*
X136885998Y-93381447D01*
X136840946Y-93420484D01*
X136832182Y-93424949D01*
X136660213Y-93549890D01*
X136509890Y-93700213D01*
X136384949Y-93872182D01*
X136380484Y-93880946D01*
X136332509Y-93931742D01*
X136264688Y-93948536D01*
X136198553Y-93925998D01*
X136159516Y-93880946D01*
X136155050Y-93872182D01*
X136030109Y-93700213D01*
X135879786Y-93549890D01*
X135707820Y-93424951D01*
X135707115Y-93424591D01*
X135699054Y-93420485D01*
X135648259Y-93372512D01*
X135631463Y-93304692D01*
X135653999Y-93238556D01*
X135699054Y-93199515D01*
X135707816Y-93195051D01*
X135783372Y-93140157D01*
X135879786Y-93070109D01*
X135879788Y-93070106D01*
X135879792Y-93070104D01*
X136030104Y-92919792D01*
X136030106Y-92919788D01*
X136030109Y-92919786D01*
X136155048Y-92747820D01*
X136155047Y-92747820D01*
X136155051Y-92747816D01*
X136159514Y-92739054D01*
X136207488Y-92688259D01*
X136275308Y-92671463D01*
X136341444Y-92693999D01*
G37*
%TD.AperFunction*%
%TA.AperFunction,NonConductor*%
G36*
X150305703Y-89905442D02*
G01*
X150312181Y-89911474D01*
X150975378Y-90574671D01*
X151008863Y-90635994D01*
X151005629Y-90700668D01*
X150993253Y-90738757D01*
X150960000Y-90948713D01*
X150960000Y-91161286D01*
X150987067Y-91332184D01*
X150993254Y-91371243D01*
X151042104Y-91521588D01*
X151058944Y-91573414D01*
X151155451Y-91762820D01*
X151280390Y-91934786D01*
X151430713Y-92085109D01*
X151602682Y-92210050D01*
X151611446Y-92214516D01*
X151662242Y-92262491D01*
X151679036Y-92330312D01*
X151656498Y-92396447D01*
X151611446Y-92435484D01*
X151602682Y-92439949D01*
X151430713Y-92564890D01*
X151280390Y-92715213D01*
X151155451Y-92887179D01*
X151058944Y-93076585D01*
X150993253Y-93278760D01*
X150960000Y-93488713D01*
X150960000Y-93701287D01*
X150959999Y-93701287D01*
X150984784Y-93857771D01*
X150975829Y-93927064D01*
X150949993Y-93964848D01*
X150845836Y-94069006D01*
X150845834Y-94069009D01*
X150769171Y-94183743D01*
X150716370Y-94311218D01*
X150716367Y-94311230D01*
X150693638Y-94425498D01*
X150693638Y-94425503D01*
X150689449Y-94446558D01*
X150689449Y-95499430D01*
X150669764Y-95566469D01*
X150616960Y-95612224D01*
X150547802Y-95622168D01*
X150484246Y-95593143D01*
X150477768Y-95587111D01*
X150136819Y-95246162D01*
X150103334Y-95184839D01*
X150100500Y-95158481D01*
X150100500Y-89999155D01*
X150120185Y-89932116D01*
X150172989Y-89886361D01*
X150242147Y-89876417D01*
X150305703Y-89905442D01*
G37*
%TD.AperFunction*%
%TA.AperFunction,NonConductor*%
G36*
X136341444Y-95233999D02*
G01*
X136380486Y-95279056D01*
X136384951Y-95287820D01*
X136509890Y-95459786D01*
X136623430Y-95573326D01*
X136656915Y-95634649D01*
X136651931Y-95704341D01*
X136610059Y-95760274D01*
X136579083Y-95777189D01*
X136447669Y-95826203D01*
X136447664Y-95826206D01*
X136332455Y-95912452D01*
X136332452Y-95912455D01*
X136246206Y-96027664D01*
X136246203Y-96027669D01*
X136197189Y-96159083D01*
X136155317Y-96215016D01*
X136089853Y-96239433D01*
X136021580Y-96224581D01*
X135993326Y-96203430D01*
X135879786Y-96089890D01*
X135707820Y-95964951D01*
X135707115Y-95964591D01*
X135699054Y-95960485D01*
X135648259Y-95912512D01*
X135631463Y-95844692D01*
X135653999Y-95778556D01*
X135699054Y-95739515D01*
X135707816Y-95735051D01*
X135750103Y-95704328D01*
X135879786Y-95610109D01*
X135879788Y-95610106D01*
X135879792Y-95610104D01*
X136030104Y-95459792D01*
X136030106Y-95459788D01*
X136030109Y-95459786D01*
X136155048Y-95287820D01*
X136155047Y-95287820D01*
X136155051Y-95287816D01*
X136159514Y-95279054D01*
X136207488Y-95228259D01*
X136275308Y-95211463D01*
X136341444Y-95233999D01*
G37*
%TD.AperFunction*%
%TA.AperFunction,NonConductor*%
G36*
X155425520Y-83820185D02*
G01*
X155446162Y-83836819D01*
X158063181Y-86453838D01*
X158096666Y-86515161D01*
X158099500Y-86541519D01*
X158099500Y-94674684D01*
X158090061Y-94722136D01*
X158030264Y-94866498D01*
X158030261Y-94866510D01*
X157999500Y-95021153D01*
X157999500Y-95178846D01*
X158030261Y-95333489D01*
X158030264Y-95333501D01*
X158090602Y-95479172D01*
X158090609Y-95479185D01*
X158178210Y-95610288D01*
X158178213Y-95610292D01*
X158289707Y-95721786D01*
X158289711Y-95721789D01*
X158420814Y-95809390D01*
X158420827Y-95809397D01*
X158563379Y-95868443D01*
X158566503Y-95869737D01*
X158615037Y-95879391D01*
X158721155Y-95900500D01*
X158722129Y-95900596D01*
X158722606Y-95900788D01*
X158727132Y-95901689D01*
X158726961Y-95902547D01*
X158786918Y-95926754D01*
X158827279Y-95983787D01*
X158830398Y-96053587D01*
X158797661Y-96111680D01*
X157058391Y-97850950D01*
X156997068Y-97884435D01*
X156927376Y-97879451D01*
X156883029Y-97850950D01*
X156810292Y-97778213D01*
X156810288Y-97778210D01*
X156679185Y-97690609D01*
X156679172Y-97690602D01*
X156534814Y-97630808D01*
X156494585Y-97603928D01*
X154183827Y-95293169D01*
X154183826Y-95293168D01*
X154069088Y-95216503D01*
X153941613Y-95163702D01*
X153941602Y-95163699D01*
X153933862Y-95162159D01*
X153903022Y-95151659D01*
X153895838Y-95148100D01*
X153865586Y-95127887D01*
X153801159Y-95101200D01*
X153797423Y-95099350D01*
X153774692Y-95078363D01*
X153750608Y-95058955D01*
X153749249Y-95054872D01*
X153746087Y-95051953D01*
X153738311Y-95022009D01*
X153728543Y-94992660D01*
X153729607Y-94988490D01*
X153728526Y-94984326D01*
X153738169Y-94954944D01*
X153745822Y-94924961D01*
X153749610Y-94920084D01*
X153750314Y-94917941D01*
X153752922Y-94915820D01*
X153764779Y-94900558D01*
X153936092Y-94729245D01*
X153997413Y-94695762D01*
X154067105Y-94700746D01*
X154096653Y-94716608D01*
X154142684Y-94750051D01*
X154332088Y-94846557D01*
X154534257Y-94912246D01*
X154744213Y-94945500D01*
X154744214Y-94945500D01*
X154956786Y-94945500D01*
X154956787Y-94945500D01*
X155166743Y-94912246D01*
X155368912Y-94846557D01*
X155558316Y-94750051D01*
X155633039Y-94695762D01*
X155730286Y-94625109D01*
X155730288Y-94625106D01*
X155730292Y-94625104D01*
X155880604Y-94474792D01*
X155880606Y-94474788D01*
X155880609Y-94474786D01*
X156005548Y-94302820D01*
X156005547Y-94302820D01*
X156005551Y-94302816D01*
X156102057Y-94113412D01*
X156167746Y-93911243D01*
X156201000Y-93701287D01*
X156201000Y-93488713D01*
X156167746Y-93278757D01*
X156102057Y-93076588D01*
X156005551Y-92887184D01*
X156005549Y-92887181D01*
X156005548Y-92887179D01*
X155880609Y-92715213D01*
X155730286Y-92564890D01*
X155558320Y-92439951D01*
X155557615Y-92439591D01*
X155549554Y-92435485D01*
X155498759Y-92387512D01*
X155481963Y-92319692D01*
X155504499Y-92253556D01*
X155549554Y-92214515D01*
X155558316Y-92210051D01*
X155620499Y-92164873D01*
X155730286Y-92085109D01*
X155730288Y-92085106D01*
X155730292Y-92085104D01*
X155880604Y-91934792D01*
X155880606Y-91934788D01*
X155880609Y-91934786D01*
X155989586Y-91784789D01*
X156005551Y-91762816D01*
X156102057Y-91573412D01*
X156167746Y-91371243D01*
X156201000Y-91161287D01*
X156201000Y-90948713D01*
X156167746Y-90738757D01*
X156102057Y-90536588D01*
X156005551Y-90347184D01*
X156005549Y-90347181D01*
X156005548Y-90347179D01*
X155880609Y-90175213D01*
X155730286Y-90024890D01*
X155558320Y-89899951D01*
X155557615Y-89899591D01*
X155549554Y-89895485D01*
X155498759Y-89847512D01*
X155481963Y-89779692D01*
X155504499Y-89713556D01*
X155549554Y-89674515D01*
X155558316Y-89670051D01*
X155585226Y-89650500D01*
X155730286Y-89545109D01*
X155730288Y-89545106D01*
X155730292Y-89545104D01*
X155880604Y-89394792D01*
X155880606Y-89394788D01*
X155880609Y-89394786D01*
X156005548Y-89222820D01*
X156005547Y-89222820D01*
X156005551Y-89222816D01*
X156102057Y-89033412D01*
X156167746Y-88831243D01*
X156201000Y-88621287D01*
X156201000Y-88408713D01*
X156167746Y-88198757D01*
X156102057Y-87996588D01*
X156005551Y-87807184D01*
X156005549Y-87807181D01*
X156005548Y-87807179D01*
X155880609Y-87635213D01*
X155730286Y-87484890D01*
X155558320Y-87359951D01*
X155557615Y-87359591D01*
X155549554Y-87355485D01*
X155498759Y-87307512D01*
X155481963Y-87239692D01*
X155504499Y-87173556D01*
X155549554Y-87134515D01*
X155558316Y-87130051D01*
X155644638Y-87067335D01*
X155730286Y-87005109D01*
X155730288Y-87005106D01*
X155730292Y-87005104D01*
X155880604Y-86854792D01*
X155880606Y-86854788D01*
X155880609Y-86854786D01*
X155989586Y-86704789D01*
X156005551Y-86682816D01*
X156102057Y-86493412D01*
X156167746Y-86291243D01*
X156201000Y-86081287D01*
X156201000Y-85868713D01*
X156167746Y-85658757D01*
X156102057Y-85456588D01*
X156005551Y-85267184D01*
X156005549Y-85267181D01*
X156005548Y-85267179D01*
X155880609Y-85095213D01*
X155730286Y-84944890D01*
X155558319Y-84819950D01*
X155541910Y-84811589D01*
X155527841Y-84798300D01*
X155510828Y-84789086D01*
X155498286Y-84770385D01*
X155491116Y-84763613D01*
X155489580Y-84760904D01*
X155486271Y-84754894D01*
X155471275Y-84718689D01*
X155446228Y-84681204D01*
X155443267Y-84676772D01*
X155443264Y-84676767D01*
X155394615Y-84603958D01*
X155394609Y-84603951D01*
X154802839Y-84012181D01*
X154769354Y-83950858D01*
X154774338Y-83881166D01*
X154816210Y-83825233D01*
X154881674Y-83800816D01*
X154890520Y-83800500D01*
X155358481Y-83800500D01*
X155425520Y-83820185D01*
G37*
%TD.AperFunction*%
%TA.AperFunction,NonConductor*%
G36*
X161587921Y-99809144D02*
G01*
X161617908Y-99815668D01*
X161622923Y-99819422D01*
X161625520Y-99820185D01*
X161646162Y-99836819D01*
X161697162Y-99887819D01*
X161730647Y-99949142D01*
X161725663Y-100018834D01*
X161683791Y-100074767D01*
X161618327Y-100099184D01*
X161609481Y-100099500D01*
X161203394Y-100099500D01*
X161136355Y-100079815D01*
X161097855Y-100040597D01*
X161094812Y-100035663D01*
X161066397Y-99989595D01*
X161047958Y-99922204D01*
X161068881Y-99855541D01*
X161122523Y-99810771D01*
X161171937Y-99800500D01*
X161558481Y-99800500D01*
X161587921Y-99809144D01*
G37*
%TD.AperFunction*%
%TA.AperFunction,NonConductor*%
G36*
X155243316Y-98334419D02*
G01*
X155249794Y-98340451D01*
X155503928Y-98594585D01*
X155530808Y-98634814D01*
X155590602Y-98779172D01*
X155590609Y-98779185D01*
X155678210Y-98910288D01*
X155678213Y-98910292D01*
X155789707Y-99021786D01*
X155789711Y-99021789D01*
X155920814Y-99109390D01*
X155920827Y-99109397D01*
X156052998Y-99164143D01*
X156066503Y-99169737D01*
X156195559Y-99195408D01*
X156221153Y-99200499D01*
X156221156Y-99200500D01*
X156221158Y-99200500D01*
X156378844Y-99200500D01*
X156378845Y-99200499D01*
X156383307Y-99199611D01*
X156398809Y-99196529D01*
X156419792Y-99198406D01*
X156440647Y-99195408D01*
X156453894Y-99201458D01*
X156468400Y-99202756D01*
X156485038Y-99215680D01*
X156504203Y-99224433D01*
X156512076Y-99236684D01*
X156523578Y-99245619D01*
X156530587Y-99265487D01*
X156541977Y-99283211D01*
X156545511Y-99307794D01*
X156546822Y-99311509D01*
X156547000Y-99318146D01*
X156547000Y-99555594D01*
X156527315Y-99622633D01*
X156475406Y-99667975D01*
X156470673Y-99670181D01*
X156321342Y-99762289D01*
X156197289Y-99886342D01*
X156164637Y-99939279D01*
X156106456Y-100033608D01*
X156102145Y-100040597D01*
X156050197Y-100087321D01*
X155996606Y-100099500D01*
X154957627Y-100099500D01*
X154890588Y-100079815D01*
X154844833Y-100027011D01*
X154834889Y-99957853D01*
X154863914Y-99894297D01*
X154869946Y-99887819D01*
X154959399Y-99798365D01*
X154959402Y-99798362D01*
X155047007Y-99667252D01*
X155107350Y-99521570D01*
X155138113Y-99366915D01*
X155138113Y-99209231D01*
X155138113Y-99209228D01*
X155138112Y-99209226D01*
X155129144Y-99164143D01*
X155107350Y-99054576D01*
X155047585Y-98910289D01*
X155047552Y-98910209D01*
X155038113Y-98862757D01*
X155038113Y-98428132D01*
X155057798Y-98361093D01*
X155110602Y-98315338D01*
X155179760Y-98305394D01*
X155243316Y-98334419D01*
G37*
%TD.AperFunction*%
%TA.AperFunction,NonConductor*%
G36*
X148805703Y-95879391D02*
G01*
X148827603Y-95904214D01*
X148855887Y-95946545D01*
X148855888Y-95946546D01*
X152543605Y-99634262D01*
X152577090Y-99695585D01*
X152572106Y-99765277D01*
X152570486Y-99769395D01*
X152530263Y-99866503D01*
X152530262Y-99866506D01*
X152530262Y-99866507D01*
X152530261Y-99866508D01*
X152503769Y-99999692D01*
X152471384Y-100061603D01*
X152410668Y-100096177D01*
X152382152Y-100099500D01*
X146590518Y-100099500D01*
X146523479Y-100079815D01*
X146477724Y-100027011D01*
X146467780Y-99957853D01*
X146496805Y-99894297D01*
X146502837Y-99887819D01*
X147368868Y-99021789D01*
X148444114Y-97946543D01*
X148520775Y-97831811D01*
X148573580Y-97704328D01*
X148593551Y-97603928D01*
X148600500Y-97568996D01*
X148600500Y-95973104D01*
X148620185Y-95906065D01*
X148672989Y-95860310D01*
X148742147Y-95850366D01*
X148805703Y-95879391D01*
G37*
%TD.AperFunction*%
%TA.AperFunction,NonConductor*%
G36*
X158800102Y-99820185D02*
G01*
X158845857Y-99872989D01*
X158855801Y-99942147D01*
X158838602Y-99989594D01*
X158832375Y-99999692D01*
X158810187Y-100035663D01*
X158810185Y-100035668D01*
X158802848Y-100057810D01*
X158755001Y-100202203D01*
X158755001Y-100202204D01*
X158755000Y-100202204D01*
X158744500Y-100304983D01*
X158744500Y-101006981D01*
X158738261Y-101028226D01*
X158736682Y-101050315D01*
X158728609Y-101061098D01*
X158724815Y-101074020D01*
X158708081Y-101088519D01*
X158694810Y-101106248D01*
X158682189Y-101110955D01*
X158672011Y-101119775D01*
X158650093Y-101122926D01*
X158629346Y-101130665D01*
X158616185Y-101127802D01*
X158602853Y-101129719D01*
X158582709Y-101120519D01*
X158561073Y-101115813D01*
X158543347Y-101102544D01*
X158539297Y-101100694D01*
X158532819Y-101094662D01*
X158491818Y-101053661D01*
X158458333Y-100992338D01*
X158455499Y-100965980D01*
X158455499Y-100304998D01*
X158455498Y-100304981D01*
X158444999Y-100202203D01*
X158444998Y-100202200D01*
X158419886Y-100126418D01*
X158389814Y-100035666D01*
X158361397Y-99989595D01*
X158342958Y-99922204D01*
X158363881Y-99855541D01*
X158417523Y-99810771D01*
X158466937Y-99800500D01*
X158733063Y-99800500D01*
X158800102Y-99820185D01*
G37*
%TD.AperFunction*%
%TA.AperFunction,NonConductor*%
G36*
X180779851Y-89651146D02*
G01*
X180782077Y-89650579D01*
X180813218Y-89660944D01*
X180844688Y-89670185D01*
X180846190Y-89671919D01*
X180848371Y-89672645D01*
X180868966Y-89698204D01*
X180890443Y-89722989D01*
X180891219Y-89725819D01*
X180892211Y-89727050D01*
X180900939Y-89761248D01*
X180905908Y-89807483D01*
X180956202Y-89942328D01*
X180956206Y-89942335D01*
X181042452Y-90057544D01*
X181042455Y-90057547D01*
X181157664Y-90143793D01*
X181157671Y-90143797D01*
X181292517Y-90194091D01*
X181292516Y-90194091D01*
X181299444Y-90194835D01*
X181352127Y-90200500D01*
X182847872Y-90200499D01*
X182907483Y-90194091D01*
X182932165Y-90184884D01*
X183001856Y-90179899D01*
X183063180Y-90213384D01*
X183096666Y-90274706D01*
X183099500Y-90301066D01*
X183099500Y-91758480D01*
X183079815Y-91825519D01*
X183063181Y-91846161D01*
X182796161Y-92113181D01*
X182734838Y-92146666D01*
X182708480Y-92149500D01*
X181502129Y-92149500D01*
X181502123Y-92149501D01*
X181442516Y-92155908D01*
X181307671Y-92206202D01*
X181307664Y-92206206D01*
X181192455Y-92292452D01*
X181192452Y-92292455D01*
X181106206Y-92407664D01*
X181106202Y-92407671D01*
X181055908Y-92542517D01*
X181049501Y-92602116D01*
X181049500Y-92602135D01*
X181049500Y-93808480D01*
X181029815Y-93875519D01*
X181013181Y-93896161D01*
X174955890Y-99953451D01*
X174955887Y-99953454D01*
X174925121Y-99999500D01*
X174910906Y-100020775D01*
X174900958Y-100035663D01*
X174879225Y-100068188D01*
X174879221Y-100068195D01*
X174826421Y-100195667D01*
X174826418Y-100195677D01*
X174799500Y-100331004D01*
X174799500Y-101375500D01*
X174796949Y-101384185D01*
X174798238Y-101393147D01*
X174787259Y-101417187D01*
X174779815Y-101442539D01*
X174772974Y-101448466D01*
X174769213Y-101456703D01*
X174746978Y-101470992D01*
X174727011Y-101488294D01*
X174716496Y-101490581D01*
X174710435Y-101494477D01*
X174675500Y-101499500D01*
X174441519Y-101499500D01*
X174374480Y-101479815D01*
X174353838Y-101463181D01*
X173146546Y-100255888D01*
X173146545Y-100255887D01*
X173031807Y-100179222D01*
X172904332Y-100126421D01*
X172904322Y-100126418D01*
X172768996Y-100099500D01*
X172768994Y-100099500D01*
X172768993Y-100099500D01*
X163724500Y-100099500D01*
X163657461Y-100079815D01*
X163611706Y-100027011D01*
X163600500Y-99975500D01*
X163600500Y-99921155D01*
X163600499Y-99921153D01*
X163593575Y-99886342D01*
X163569737Y-99766503D01*
X163550815Y-99720821D01*
X163509397Y-99620827D01*
X163509390Y-99620814D01*
X163421789Y-99489711D01*
X163421786Y-99489707D01*
X163310292Y-99378213D01*
X163310288Y-99378210D01*
X163179185Y-99290609D01*
X163179172Y-99290602D01*
X163034814Y-99230808D01*
X162994585Y-99203928D01*
X162346546Y-98555888D01*
X162346545Y-98555887D01*
X162231807Y-98479222D01*
X162104332Y-98426421D01*
X162104322Y-98426418D01*
X161968996Y-98399500D01*
X161968994Y-98399500D01*
X161968993Y-98399500D01*
X158790519Y-98399500D01*
X158723480Y-98379815D01*
X158677725Y-98327011D01*
X158667781Y-98257853D01*
X158696806Y-98194297D01*
X158702838Y-98187819D01*
X167203838Y-89686819D01*
X167265161Y-89653334D01*
X167291519Y-89650500D01*
X180777649Y-89650500D01*
X180779851Y-89651146D01*
G37*
%TD.AperFunction*%
%TA.AperFunction,NonConductor*%
G36*
X139095703Y-92046806D02*
G01*
X139102181Y-92052838D01*
X144393453Y-97344111D01*
X144393454Y-97344112D01*
X144508192Y-97420777D01*
X144635667Y-97473578D01*
X144635672Y-97473580D01*
X144635676Y-97473580D01*
X144635677Y-97473581D01*
X144771003Y-97500500D01*
X144771006Y-97500500D01*
X144771007Y-97500500D01*
X146609480Y-97500500D01*
X146676519Y-97520185D01*
X146722274Y-97572989D01*
X146732218Y-97642147D01*
X146703193Y-97705703D01*
X146697161Y-97712181D01*
X142946162Y-101463181D01*
X142884839Y-101496666D01*
X142858481Y-101499500D01*
X140421519Y-101499500D01*
X140354480Y-101479815D01*
X140333838Y-101463181D01*
X137552837Y-98682180D01*
X137519352Y-98620857D01*
X137524336Y-98551165D01*
X137566208Y-98495232D01*
X137631672Y-98470815D01*
X137640518Y-98470499D01*
X138437871Y-98470499D01*
X138437872Y-98470499D01*
X138497483Y-98464091D01*
X138632331Y-98413796D01*
X138747546Y-98327546D01*
X138833796Y-98212331D01*
X138884091Y-98077483D01*
X138890500Y-98017873D01*
X138890499Y-97220517D01*
X138910183Y-97153479D01*
X138962987Y-97107724D01*
X139032146Y-97097780D01*
X139095702Y-97126805D01*
X139102180Y-97132837D01*
X139963181Y-97993838D01*
X139996666Y-98055161D01*
X139999500Y-98081519D01*
X139999500Y-98674684D01*
X139990061Y-98722136D01*
X139930264Y-98866498D01*
X139930261Y-98866510D01*
X139899500Y-99021153D01*
X139899500Y-99178846D01*
X139930261Y-99333489D01*
X139930264Y-99333501D01*
X139990602Y-99479172D01*
X139990609Y-99479185D01*
X140078210Y-99610288D01*
X140078213Y-99610292D01*
X140189707Y-99721786D01*
X140189711Y-99721789D01*
X140320814Y-99809390D01*
X140320827Y-99809397D01*
X140432839Y-99855793D01*
X140466503Y-99869737D01*
X140589974Y-99894297D01*
X140621153Y-99900499D01*
X140621156Y-99900500D01*
X140621158Y-99900500D01*
X140778844Y-99900500D01*
X140778845Y-99900499D01*
X140933497Y-99869737D01*
X141079179Y-99809394D01*
X141210289Y-99721789D01*
X141321789Y-99610289D01*
X141409394Y-99479179D01*
X141469737Y-99333497D01*
X141500500Y-99178842D01*
X141500500Y-99021158D01*
X141500500Y-99021155D01*
X141500499Y-99021153D01*
X141478447Y-98910292D01*
X141469737Y-98866503D01*
X141433569Y-98779185D01*
X141409939Y-98722136D01*
X141400500Y-98674684D01*
X141400500Y-97671006D01*
X141394016Y-97638413D01*
X141394016Y-97638410D01*
X141373581Y-97535679D01*
X141373580Y-97535672D01*
X141367165Y-97520185D01*
X141320777Y-97408192D01*
X141244112Y-97293454D01*
X141244111Y-97293453D01*
X138900507Y-94949850D01*
X138867022Y-94888527D01*
X138865715Y-94842771D01*
X138873473Y-94793793D01*
X138890500Y-94686287D01*
X138890500Y-94473713D01*
X138857246Y-94263757D01*
X138791557Y-94061588D01*
X138695051Y-93872184D01*
X138695049Y-93872181D01*
X138695048Y-93872179D01*
X138570109Y-93700213D01*
X138419786Y-93549890D01*
X138247820Y-93424951D01*
X138247115Y-93424591D01*
X138239054Y-93420485D01*
X138188259Y-93372512D01*
X138171463Y-93304692D01*
X138193999Y-93238556D01*
X138239054Y-93199515D01*
X138247816Y-93195051D01*
X138323372Y-93140157D01*
X138419786Y-93070109D01*
X138419788Y-93070106D01*
X138419792Y-93070104D01*
X138570104Y-92919792D01*
X138570106Y-92919788D01*
X138570109Y-92919786D01*
X138695048Y-92747820D01*
X138695047Y-92747820D01*
X138695051Y-92747816D01*
X138791557Y-92558412D01*
X138857246Y-92356243D01*
X138890500Y-92146287D01*
X138890500Y-92140519D01*
X138910185Y-92073480D01*
X138962989Y-92027725D01*
X139032147Y-92017781D01*
X139095703Y-92046806D01*
G37*
%TD.AperFunction*%
%TA.AperFunction,NonConductor*%
G36*
X156560918Y-101959720D02*
G01*
X156637203Y-101984999D01*
X156739991Y-101995500D01*
X157400980Y-101995499D01*
X157430426Y-102004145D01*
X157460407Y-102010667D01*
X157465420Y-102014419D01*
X157468019Y-102015183D01*
X157488661Y-102031818D01*
X157565295Y-102108452D01*
X157598780Y-102169775D01*
X157593796Y-102239467D01*
X157551924Y-102295400D01*
X157497014Y-102318606D01*
X157415463Y-102331523D01*
X157220776Y-102394781D01*
X157038391Y-102487712D01*
X157038383Y-102487717D01*
X156960995Y-102543941D01*
X156895189Y-102567420D01*
X156827135Y-102551593D01*
X156800431Y-102531303D01*
X156434236Y-102165108D01*
X156400751Y-102103785D01*
X156405735Y-102034093D01*
X156447607Y-101978160D01*
X156513071Y-101953743D01*
X156560918Y-101959720D01*
G37*
%TD.AperFunction*%
%TA.AperFunction,NonConductor*%
G36*
X180955398Y-96023375D02*
G01*
X180968834Y-96024336D01*
X180986560Y-96037606D01*
X181006703Y-96046805D01*
X181013985Y-96058136D01*
X181024767Y-96066208D01*
X181032504Y-96086953D01*
X181044477Y-96105583D01*
X181047628Y-96127501D01*
X181049184Y-96131672D01*
X181049500Y-96140518D01*
X181049500Y-96146286D01*
X181064376Y-96240213D01*
X181082754Y-96356243D01*
X181122898Y-96479794D01*
X181148444Y-96558414D01*
X181244951Y-96747820D01*
X181369890Y-96919786D01*
X181520211Y-97070107D01*
X181571988Y-97107724D01*
X181648385Y-97163229D01*
X181691051Y-97218558D01*
X181699500Y-97263547D01*
X181699500Y-102206392D01*
X181679815Y-102273431D01*
X181627011Y-102319186D01*
X181557853Y-102329130D01*
X181532169Y-102322575D01*
X181487481Y-102305908D01*
X181487483Y-102305908D01*
X181427883Y-102299501D01*
X181427881Y-102299500D01*
X181427873Y-102299500D01*
X181427864Y-102299500D01*
X179732129Y-102299500D01*
X179732123Y-102299501D01*
X179672516Y-102305908D01*
X179537671Y-102356202D01*
X179537664Y-102356206D01*
X179422455Y-102442452D01*
X179422452Y-102442455D01*
X179336206Y-102557664D01*
X179336202Y-102557671D01*
X179285908Y-102692516D01*
X179281939Y-102729440D01*
X179255201Y-102793991D01*
X179197809Y-102833839D01*
X179127983Y-102836332D01*
X179067895Y-102800679D01*
X179058332Y-102789070D01*
X179031967Y-102752782D01*
X178887213Y-102608028D01*
X178721613Y-102487715D01*
X178721612Y-102487714D01*
X178721610Y-102487713D01*
X178664653Y-102458691D01*
X178539223Y-102394781D01*
X178344534Y-102331522D01*
X178169995Y-102303878D01*
X178142352Y-102299500D01*
X177937648Y-102299500D01*
X177913329Y-102303351D01*
X177735465Y-102331522D01*
X177540776Y-102394781D01*
X177358386Y-102487715D01*
X177192786Y-102608028D01*
X177048028Y-102752786D01*
X176927715Y-102918386D01*
X176880485Y-103011080D01*
X176832510Y-103061876D01*
X176764689Y-103078671D01*
X176698554Y-103056134D01*
X176659515Y-103011080D01*
X176644273Y-102981166D01*
X176612287Y-102918390D01*
X176594105Y-102893364D01*
X176491971Y-102752786D01*
X176347217Y-102608032D01*
X176347212Y-102608028D01*
X176251615Y-102538573D01*
X176208949Y-102483243D01*
X176200500Y-102438255D01*
X176200500Y-100741518D01*
X176220185Y-100674479D01*
X176236814Y-100653842D01*
X180837819Y-96052836D01*
X180857255Y-96042224D01*
X180873989Y-96027724D01*
X180887320Y-96025807D01*
X180899142Y-96019352D01*
X180921228Y-96020931D01*
X180943147Y-96017780D01*
X180955398Y-96023375D01*
G37*
%TD.AperFunction*%
%TA.AperFunction,NonConductor*%
G36*
X172425520Y-101520185D02*
G01*
X172446162Y-101536819D01*
X172997162Y-102087819D01*
X173030647Y-102149142D01*
X173025663Y-102218834D01*
X172983791Y-102274767D01*
X172918327Y-102299184D01*
X172909481Y-102299500D01*
X172857648Y-102299500D01*
X172833329Y-102303351D01*
X172655465Y-102331522D01*
X172460776Y-102394781D01*
X172278386Y-102487715D01*
X172112786Y-102608028D01*
X171968028Y-102752786D01*
X171847715Y-102918386D01*
X171800485Y-103011080D01*
X171752510Y-103061876D01*
X171684689Y-103078671D01*
X171618554Y-103056134D01*
X171579515Y-103011080D01*
X171564273Y-102981166D01*
X171532287Y-102918390D01*
X171514105Y-102893364D01*
X171411971Y-102752786D01*
X171267213Y-102608028D01*
X171101613Y-102487715D01*
X171101612Y-102487714D01*
X171101610Y-102487713D01*
X171044653Y-102458691D01*
X170919223Y-102394781D01*
X170724534Y-102331522D01*
X170549995Y-102303878D01*
X170522352Y-102299500D01*
X170317648Y-102299500D01*
X170293329Y-102303351D01*
X170115465Y-102331522D01*
X169920776Y-102394781D01*
X169738386Y-102487715D01*
X169572786Y-102608028D01*
X169428028Y-102752786D01*
X169307715Y-102918386D01*
X169260485Y-103011080D01*
X169212510Y-103061876D01*
X169144689Y-103078671D01*
X169078554Y-103056134D01*
X169039515Y-103011080D01*
X169024273Y-102981166D01*
X168992287Y-102918390D01*
X168974105Y-102893364D01*
X168871971Y-102752786D01*
X168727213Y-102608028D01*
X168561613Y-102487715D01*
X168561612Y-102487714D01*
X168561610Y-102487713D01*
X168504653Y-102458691D01*
X168379223Y-102394781D01*
X168184534Y-102331522D01*
X168009995Y-102303878D01*
X167982352Y-102299500D01*
X167777648Y-102299500D01*
X167753329Y-102303351D01*
X167575465Y-102331522D01*
X167380776Y-102394781D01*
X167198386Y-102487715D01*
X167032786Y-102608028D01*
X166888028Y-102752786D01*
X166767715Y-102918386D01*
X166720485Y-103011080D01*
X166672510Y-103061876D01*
X166604689Y-103078671D01*
X166538554Y-103056134D01*
X166499515Y-103011080D01*
X166484273Y-102981166D01*
X166452287Y-102918390D01*
X166434105Y-102893364D01*
X166331971Y-102752786D01*
X166187213Y-102608028D01*
X166021613Y-102487715D01*
X166021612Y-102487714D01*
X166021610Y-102487713D01*
X165964653Y-102458691D01*
X165839223Y-102394781D01*
X165644534Y-102331522D01*
X165469995Y-102303878D01*
X165442352Y-102299500D01*
X165237648Y-102299500D01*
X165213329Y-102303351D01*
X165035465Y-102331522D01*
X164840776Y-102394781D01*
X164658386Y-102487715D01*
X164492786Y-102608028D01*
X164348028Y-102752786D01*
X164227715Y-102918386D01*
X164180485Y-103011080D01*
X164132510Y-103061876D01*
X164064689Y-103078671D01*
X163998554Y-103056134D01*
X163959515Y-103011080D01*
X163944273Y-102981166D01*
X163912287Y-102918390D01*
X163894105Y-102893364D01*
X163791971Y-102752786D01*
X163647213Y-102608028D01*
X163481613Y-102487715D01*
X163481612Y-102487714D01*
X163481610Y-102487713D01*
X163424653Y-102458691D01*
X163299223Y-102394781D01*
X163104534Y-102331522D01*
X162929995Y-102303878D01*
X162902352Y-102299500D01*
X162697648Y-102299500D01*
X162673329Y-102303351D01*
X162495465Y-102331522D01*
X162300776Y-102394781D01*
X162118386Y-102487715D01*
X161952786Y-102608028D01*
X161808028Y-102752786D01*
X161687715Y-102918386D01*
X161640485Y-103011080D01*
X161592510Y-103061876D01*
X161524689Y-103078671D01*
X161458554Y-103056134D01*
X161419515Y-103011080D01*
X161404273Y-102981166D01*
X161372287Y-102918390D01*
X161354105Y-102893364D01*
X161251971Y-102752786D01*
X161107213Y-102608028D01*
X160941613Y-102487715D01*
X160941612Y-102487714D01*
X160941610Y-102487713D01*
X160884653Y-102458691D01*
X160759223Y-102394781D01*
X160564534Y-102331522D01*
X160389995Y-102303878D01*
X160362352Y-102299500D01*
X160157648Y-102299500D01*
X160117184Y-102305909D01*
X159955464Y-102331523D01*
X159955461Y-102331523D01*
X159809953Y-102378802D01*
X159809891Y-102378803D01*
X159809840Y-102378839D01*
X159774679Y-102379809D01*
X159740112Y-102380797D01*
X159740059Y-102380765D01*
X159739996Y-102380767D01*
X159709409Y-102362282D01*
X159680279Y-102344716D01*
X159680234Y-102344651D01*
X159680198Y-102344629D01*
X159679900Y-102344161D01*
X159660305Y-102315475D01*
X159658577Y-102311951D01*
X159620775Y-102220689D01*
X159594605Y-102181523D01*
X159590966Y-102174103D01*
X159586386Y-102147485D01*
X159578316Y-102121711D01*
X159580550Y-102113567D01*
X159579118Y-102105245D01*
X159589655Y-102080376D01*
X159596801Y-102054331D01*
X159603083Y-102048688D01*
X159606378Y-102040913D01*
X159628690Y-102025687D01*
X159648781Y-102007642D01*
X159658301Y-102005481D01*
X159664091Y-102001531D01*
X159677322Y-102001165D01*
X159702292Y-101995499D01*
X160460008Y-101995499D01*
X160460016Y-101995498D01*
X160460019Y-101995498D01*
X160516302Y-101989748D01*
X160562797Y-101984999D01*
X160729334Y-101929814D01*
X160878656Y-101837712D01*
X161002712Y-101713656D01*
X161094814Y-101564334D01*
X161094814Y-101564332D01*
X161097855Y-101559403D01*
X161149803Y-101512679D01*
X161203394Y-101500500D01*
X172358481Y-101500500D01*
X172425520Y-101520185D01*
G37*
%TD.AperFunction*%
%TA.AperFunction,NonConductor*%
G36*
X154122348Y-102620185D02*
G01*
X154168103Y-102672989D01*
X154178047Y-102742147D01*
X154155627Y-102797385D01*
X154067715Y-102918386D01*
X154020485Y-103011080D01*
X153972510Y-103061876D01*
X153904689Y-103078671D01*
X153838554Y-103056134D01*
X153799515Y-103011080D01*
X153784273Y-102981166D01*
X153752287Y-102918390D01*
X153683471Y-102823672D01*
X153664373Y-102797385D01*
X153640893Y-102731579D01*
X153656719Y-102663525D01*
X153706825Y-102614830D01*
X153764691Y-102600500D01*
X154055309Y-102600500D01*
X154122348Y-102620185D01*
G37*
%TD.AperFunction*%
%TA.AperFunction,NonConductor*%
G36*
X151527389Y-102604047D02*
G01*
X151539934Y-102602970D01*
X151560279Y-102613704D01*
X151582348Y-102620185D01*
X151590591Y-102629698D01*
X151601729Y-102635575D01*
X151613041Y-102655607D01*
X151628103Y-102672989D01*
X151629894Y-102685450D01*
X151636086Y-102696414D01*
X151634773Y-102719378D01*
X151638047Y-102742147D01*
X151632721Y-102755268D01*
X151632098Y-102766170D01*
X151615627Y-102797385D01*
X151527715Y-102918386D01*
X151434781Y-103100776D01*
X151413109Y-103167478D01*
X151373671Y-103225153D01*
X151309312Y-103252351D01*
X151240466Y-103240436D01*
X151207497Y-103216840D01*
X150802838Y-102812181D01*
X150769353Y-102750858D01*
X150774337Y-102681166D01*
X150816209Y-102625233D01*
X150881673Y-102600816D01*
X150890519Y-102600500D01*
X151515309Y-102600500D01*
X151527389Y-102604047D01*
G37*
%TD.AperFunction*%
%TA.AperFunction,NonConductor*%
G36*
X137172871Y-102920185D02*
G01*
X137218626Y-102972989D01*
X137228570Y-103042147D01*
X137208933Y-103093392D01*
X137190610Y-103120812D01*
X137190602Y-103120827D01*
X137130264Y-103266498D01*
X137130261Y-103266510D01*
X137099500Y-103421153D01*
X137099500Y-103578846D01*
X137130261Y-103733489D01*
X137130264Y-103733501D01*
X137190061Y-103877864D01*
X137191687Y-103886040D01*
X137194477Y-103890381D01*
X137199500Y-103925316D01*
X137199500Y-104109481D01*
X137179815Y-104176520D01*
X137127011Y-104222275D01*
X137057853Y-104232219D01*
X136994297Y-104203194D01*
X136987819Y-104197162D01*
X135902838Y-103112181D01*
X135869353Y-103050858D01*
X135874337Y-102981166D01*
X135916209Y-102925233D01*
X135981673Y-102900816D01*
X135990519Y-102900500D01*
X137105832Y-102900500D01*
X137172871Y-102920185D01*
G37*
%TD.AperFunction*%
%TA.AperFunction,NonConductor*%
G36*
X158199758Y-104830087D02*
G01*
X158207022Y-104829880D01*
X158231108Y-104844404D01*
X158256703Y-104856093D01*
X158260632Y-104862207D01*
X158266855Y-104865960D01*
X158279267Y-104891203D01*
X158294477Y-104914871D01*
X158295953Y-104925140D01*
X158297684Y-104928660D01*
X158298956Y-104943476D01*
X158299499Y-104948996D01*
X158326418Y-105084322D01*
X158326421Y-105084332D01*
X158379223Y-105211808D01*
X158379224Y-105211810D01*
X158379225Y-105211811D01*
X158409426Y-105257011D01*
X158410061Y-105257960D01*
X158430939Y-105324637D01*
X158412455Y-105392018D01*
X158360476Y-105438708D01*
X158291506Y-105449884D01*
X158238069Y-105429954D01*
X158179183Y-105390608D01*
X158179172Y-105390602D01*
X158033501Y-105330264D01*
X158033489Y-105330261D01*
X157878845Y-105299500D01*
X157878842Y-105299500D01*
X157721158Y-105299500D01*
X157721155Y-105299500D01*
X157566510Y-105330261D01*
X157566498Y-105330264D01*
X157420827Y-105390602D01*
X157420809Y-105390612D01*
X157412390Y-105396238D01*
X157345713Y-105417116D01*
X157278333Y-105398631D01*
X157231643Y-105346652D01*
X157219500Y-105293136D01*
X157219500Y-104975475D01*
X157239185Y-104908436D01*
X157291989Y-104862681D01*
X157361147Y-104852737D01*
X157381820Y-104857545D01*
X157415458Y-104868475D01*
X157415461Y-104868475D01*
X157415466Y-104868477D01*
X157617648Y-104900500D01*
X157617649Y-104900500D01*
X157822351Y-104900500D01*
X157822352Y-104900500D01*
X158024534Y-104868477D01*
X158137183Y-104831874D01*
X158165302Y-104831071D01*
X158193147Y-104827068D01*
X158199758Y-104830087D01*
G37*
%TD.AperFunction*%
%TA.AperFunction,NonConductor*%
G36*
X143914045Y-103920548D02*
G01*
X143958392Y-103949049D01*
X145127162Y-105117819D01*
X145160647Y-105179142D01*
X145155663Y-105248834D01*
X145113791Y-105304767D01*
X145048327Y-105329184D01*
X145039481Y-105329500D01*
X144885646Y-105329500D01*
X144845188Y-105335908D01*
X144659753Y-105365278D01*
X144659750Y-105365278D01*
X144442244Y-105435950D01*
X144238461Y-105539783D01*
X144055759Y-105672525D01*
X143989952Y-105696005D01*
X143921898Y-105680180D01*
X143873203Y-105630074D01*
X143866690Y-105615538D01*
X143856296Y-105587669D01*
X143856293Y-105587664D01*
X143770047Y-105472455D01*
X143770044Y-105472452D01*
X143654835Y-105386206D01*
X143654828Y-105386202D01*
X143519982Y-105335908D01*
X143519983Y-105335908D01*
X143460383Y-105329501D01*
X143460381Y-105329500D01*
X143460373Y-105329500D01*
X143460365Y-105329500D01*
X143284500Y-105329500D01*
X143217461Y-105309815D01*
X143171706Y-105257011D01*
X143160500Y-105205500D01*
X143160500Y-104481518D01*
X143180185Y-104414479D01*
X143196815Y-104393841D01*
X143394586Y-104196069D01*
X143434810Y-104169192D01*
X143550368Y-104121328D01*
X143579173Y-104109397D01*
X143579176Y-104109395D01*
X143579179Y-104109394D01*
X143710289Y-104021789D01*
X143738365Y-103993713D01*
X143783030Y-103949049D01*
X143844353Y-103915564D01*
X143914045Y-103920548D01*
G37*
%TD.AperFunction*%
%TA.AperFunction,NonConductor*%
G36*
X164141445Y-104143865D02*
G01*
X164180483Y-104188917D01*
X164202547Y-104232219D01*
X164227715Y-104281614D01*
X164348028Y-104447213D01*
X164492786Y-104591971D01*
X164631407Y-104692683D01*
X164658390Y-104712287D01*
X164747212Y-104757544D01*
X164840776Y-104805218D01*
X164840778Y-104805218D01*
X164840781Y-104805220D01*
X164916677Y-104829880D01*
X165035465Y-104868477D01*
X165136557Y-104884488D01*
X165237648Y-104900500D01*
X165237649Y-104900500D01*
X165289481Y-104900500D01*
X165356520Y-104920185D01*
X165402275Y-104972989D01*
X165412219Y-105042147D01*
X165383194Y-105105703D01*
X165377162Y-105112181D01*
X164726162Y-105763181D01*
X164664839Y-105796666D01*
X164638481Y-105799500D01*
X163025316Y-105799500D01*
X162977864Y-105790061D01*
X162833501Y-105730264D01*
X162833489Y-105730261D01*
X162678845Y-105699500D01*
X162678842Y-105699500D01*
X162521158Y-105699500D01*
X162521155Y-105699500D01*
X162366510Y-105730261D01*
X162366498Y-105730264D01*
X162220827Y-105790602D01*
X162220814Y-105790609D01*
X162089711Y-105878210D01*
X162089707Y-105878213D01*
X161978213Y-105989707D01*
X161978210Y-105989711D01*
X161890609Y-106120814D01*
X161890602Y-106120827D01*
X161830264Y-106266498D01*
X161830261Y-106266508D01*
X161800345Y-106416902D01*
X161767960Y-106478813D01*
X161707243Y-106513387D01*
X161637474Y-106509646D01*
X161591047Y-106480391D01*
X160222838Y-105112181D01*
X160189353Y-105050858D01*
X160194337Y-104981166D01*
X160236209Y-104925233D01*
X160301673Y-104900816D01*
X160310519Y-104900500D01*
X160362351Y-104900500D01*
X160362352Y-104900500D01*
X160564534Y-104868477D01*
X160759219Y-104805220D01*
X160941610Y-104712287D01*
X161096847Y-104599502D01*
X161107213Y-104591971D01*
X161107215Y-104591968D01*
X161107219Y-104591966D01*
X161251966Y-104447219D01*
X161251968Y-104447215D01*
X161251971Y-104447213D01*
X161372284Y-104281614D01*
X161372283Y-104281614D01*
X161372287Y-104281610D01*
X161419516Y-104188917D01*
X161467489Y-104138123D01*
X161535310Y-104121328D01*
X161601445Y-104143865D01*
X161640483Y-104188917D01*
X161662547Y-104232219D01*
X161687715Y-104281614D01*
X161808028Y-104447213D01*
X161952786Y-104591971D01*
X162091407Y-104692683D01*
X162118390Y-104712287D01*
X162207212Y-104757544D01*
X162300776Y-104805218D01*
X162300778Y-104805218D01*
X162300781Y-104805220D01*
X162376677Y-104829880D01*
X162495465Y-104868477D01*
X162596557Y-104884488D01*
X162697648Y-104900500D01*
X162697649Y-104900500D01*
X162902351Y-104900500D01*
X162902352Y-104900500D01*
X163104534Y-104868477D01*
X163299219Y-104805220D01*
X163481610Y-104712287D01*
X163636847Y-104599502D01*
X163647213Y-104591971D01*
X163647215Y-104591968D01*
X163647219Y-104591966D01*
X163791966Y-104447219D01*
X163791968Y-104447215D01*
X163791971Y-104447213D01*
X163912284Y-104281614D01*
X163912283Y-104281614D01*
X163912287Y-104281610D01*
X163959516Y-104188917D01*
X164007489Y-104138123D01*
X164075310Y-104121328D01*
X164141445Y-104143865D01*
G37*
%TD.AperFunction*%
%TA.AperFunction,NonConductor*%
G36*
X167777648Y-104900500D02*
G01*
X167830214Y-104900500D01*
X167830908Y-104900508D01*
X167863666Y-104910538D01*
X167896519Y-104920185D01*
X167897005Y-104920746D01*
X167897716Y-104920964D01*
X167919859Y-104947121D01*
X167942274Y-104972989D01*
X167942379Y-104973723D01*
X167942860Y-104974291D01*
X167947341Y-105008233D01*
X167952218Y-105042147D01*
X167951908Y-105042823D01*
X167952006Y-105043559D01*
X167937426Y-105074535D01*
X167923193Y-105105703D01*
X167922312Y-105106648D01*
X167922252Y-105106777D01*
X167922110Y-105106865D01*
X167917161Y-105112181D01*
X166166162Y-106863181D01*
X166104839Y-106896666D01*
X166078481Y-106899500D01*
X165870519Y-106899500D01*
X165803480Y-106879815D01*
X165757725Y-106827011D01*
X165747781Y-106757853D01*
X165776806Y-106694297D01*
X165782838Y-106687819D01*
X166656008Y-105814648D01*
X167553852Y-104916802D01*
X167615173Y-104883319D01*
X167660923Y-104882012D01*
X167777648Y-104900500D01*
G37*
%TD.AperFunction*%
%TA.AperFunction,NonConductor*%
G36*
X153981445Y-104143865D02*
G01*
X154020483Y-104188917D01*
X154042547Y-104232219D01*
X154067715Y-104281614D01*
X154188028Y-104447213D01*
X154332786Y-104591971D01*
X154471407Y-104692683D01*
X154498390Y-104712287D01*
X154587212Y-104757544D01*
X154680776Y-104805218D01*
X154680778Y-104805218D01*
X154680781Y-104805220D01*
X154756677Y-104829880D01*
X154875465Y-104868477D01*
X154976557Y-104884488D01*
X155077648Y-104900500D01*
X155077649Y-104900500D01*
X155282351Y-104900500D01*
X155282352Y-104900500D01*
X155484534Y-104868477D01*
X155656186Y-104812703D01*
X155726022Y-104810708D01*
X155785855Y-104846788D01*
X155816684Y-104909489D01*
X155818500Y-104930635D01*
X155818500Y-107528480D01*
X155798815Y-107595519D01*
X155746011Y-107641274D01*
X155676853Y-107651218D01*
X155613297Y-107622193D01*
X155606819Y-107616161D01*
X153023159Y-105032502D01*
X152989674Y-104971179D01*
X152994658Y-104901487D01*
X153036530Y-104845554D01*
X153072518Y-104826892D01*
X153139219Y-104805220D01*
X153321610Y-104712287D01*
X153476847Y-104599502D01*
X153487213Y-104591971D01*
X153487215Y-104591968D01*
X153487219Y-104591966D01*
X153631966Y-104447219D01*
X153631968Y-104447215D01*
X153631971Y-104447213D01*
X153752284Y-104281614D01*
X153752283Y-104281614D01*
X153752287Y-104281610D01*
X153799516Y-104188917D01*
X153847489Y-104138123D01*
X153915310Y-104121328D01*
X153981445Y-104143865D01*
G37*
%TD.AperFunction*%
%TA.AperFunction,NonConductor*%
G36*
X143999014Y-107969543D02*
G01*
X144024544Y-107971004D01*
X144037740Y-107977966D01*
X144042297Y-107978958D01*
X144055746Y-107987465D01*
X144238462Y-108120217D01*
X144285357Y-108144111D01*
X144442244Y-108224049D01*
X144659751Y-108294721D01*
X144659752Y-108294721D01*
X144659755Y-108294722D01*
X144885646Y-108330500D01*
X144885647Y-108330500D01*
X145119226Y-108330500D01*
X145119226Y-108331843D01*
X145126864Y-108333445D01*
X145140647Y-108331464D01*
X145160384Y-108340477D01*
X145181620Y-108344933D01*
X145191537Y-108354704D01*
X145204203Y-108360489D01*
X145215934Y-108378743D01*
X145231390Y-108393972D01*
X145235221Y-108408754D01*
X145241977Y-108419267D01*
X145247000Y-108454202D01*
X145247000Y-108455594D01*
X145227315Y-108522633D01*
X145175406Y-108567975D01*
X145170673Y-108570181D01*
X145021342Y-108662289D01*
X144937681Y-108745951D01*
X144876358Y-108779436D01*
X144806666Y-108774452D01*
X144762319Y-108745951D01*
X144678657Y-108662289D01*
X144678656Y-108662288D01*
X144564350Y-108591784D01*
X144529336Y-108570187D01*
X144529331Y-108570185D01*
X144491560Y-108557669D01*
X144362797Y-108515001D01*
X144362795Y-108515000D01*
X144260016Y-108504500D01*
X143718154Y-108504500D01*
X143651115Y-108484815D01*
X143605360Y-108432011D01*
X143595416Y-108362853D01*
X143624441Y-108299297D01*
X143648394Y-108279998D01*
X143647731Y-108279112D01*
X143727636Y-108219293D01*
X143770046Y-108187546D01*
X143856296Y-108072331D01*
X143866690Y-108044460D01*
X143882013Y-108023990D01*
X143893949Y-108001371D01*
X143902604Y-107996483D01*
X143908560Y-107988527D01*
X143932518Y-107979589D01*
X143954788Y-107967014D01*
X143964710Y-107967581D01*
X143974023Y-107964108D01*
X143999014Y-107969543D01*
G37*
%TD.AperFunction*%
%TA.AperFunction,NonConductor*%
G36*
X133942539Y-102920185D02*
G01*
X133988294Y-102972989D01*
X133999500Y-103024500D01*
X133999500Y-103078846D01*
X134030261Y-103233489D01*
X134030264Y-103233501D01*
X134090602Y-103379172D01*
X134090609Y-103379185D01*
X134178210Y-103510288D01*
X134178213Y-103510292D01*
X134289707Y-103621786D01*
X134289711Y-103621789D01*
X134420814Y-103709390D01*
X134420827Y-103709397D01*
X134565185Y-103769191D01*
X134605414Y-103796071D01*
X136463181Y-105653838D01*
X136496666Y-105715161D01*
X136499500Y-105741519D01*
X136499500Y-110668995D01*
X136508117Y-110712312D01*
X136510500Y-110736505D01*
X136510500Y-116388197D01*
X136490815Y-116455236D01*
X136438011Y-116500991D01*
X136368853Y-116510935D01*
X136348183Y-116506128D01*
X136276244Y-116482754D01*
X136276240Y-116482753D01*
X136114957Y-116457208D01*
X136066287Y-116449500D01*
X135853713Y-116449500D01*
X135805042Y-116457208D01*
X135643760Y-116482753D01*
X135441585Y-116548444D01*
X135252179Y-116644951D01*
X135080213Y-116769890D01*
X134929890Y-116920213D01*
X134804949Y-117092182D01*
X134800484Y-117100946D01*
X134752509Y-117151742D01*
X134684688Y-117168536D01*
X134618553Y-117145998D01*
X134579516Y-117100946D01*
X134575050Y-117092182D01*
X134450109Y-116920213D01*
X134299786Y-116769890D01*
X134127820Y-116644951D01*
X133938414Y-116548444D01*
X133938413Y-116548443D01*
X133938412Y-116548443D01*
X133736243Y-116482754D01*
X133736241Y-116482753D01*
X133736240Y-116482753D01*
X133574957Y-116457208D01*
X133526287Y-116449500D01*
X133313713Y-116449500D01*
X133265042Y-116457208D01*
X133103760Y-116482753D01*
X132901585Y-116548444D01*
X132712179Y-116644951D01*
X132540213Y-116769890D01*
X132389890Y-116920213D01*
X132264949Y-117092182D01*
X132260484Y-117100946D01*
X132212509Y-117151742D01*
X132144688Y-117168536D01*
X132078553Y-117145998D01*
X132039516Y-117100946D01*
X132035050Y-117092182D01*
X131910109Y-116920213D01*
X131759786Y-116769890D01*
X131587820Y-116644951D01*
X131398414Y-116548444D01*
X131398413Y-116548443D01*
X131398412Y-116548443D01*
X131196243Y-116482754D01*
X131196241Y-116482753D01*
X131196240Y-116482753D01*
X131034957Y-116457208D01*
X130986287Y-116449500D01*
X130773713Y-116449500D01*
X130725042Y-116457208D01*
X130563760Y-116482753D01*
X130361585Y-116548444D01*
X130172179Y-116644951D01*
X130000213Y-116769890D01*
X129849890Y-116920213D01*
X129724949Y-117092182D01*
X129720484Y-117100946D01*
X129672509Y-117151742D01*
X129604688Y-117168536D01*
X129538553Y-117145998D01*
X129499516Y-117100946D01*
X129495050Y-117092182D01*
X129370109Y-116920213D01*
X129219786Y-116769890D01*
X129047820Y-116644951D01*
X128858414Y-116548444D01*
X128858413Y-116548443D01*
X128858412Y-116548443D01*
X128656243Y-116482754D01*
X128656241Y-116482753D01*
X128656240Y-116482753D01*
X128494957Y-116457208D01*
X128446287Y-116449500D01*
X128233713Y-116449500D01*
X128185042Y-116457208D01*
X128023760Y-116482753D01*
X127821585Y-116548444D01*
X127632179Y-116644951D01*
X127460213Y-116769890D01*
X127309890Y-116920213D01*
X127184949Y-117092182D01*
X127180484Y-117100946D01*
X127132509Y-117151742D01*
X127064688Y-117168536D01*
X126998553Y-117145998D01*
X126959516Y-117100946D01*
X126955050Y-117092182D01*
X126830109Y-116920213D01*
X126679786Y-116769890D01*
X126507820Y-116644951D01*
X126318414Y-116548444D01*
X126318413Y-116548443D01*
X126318412Y-116548443D01*
X126116243Y-116482754D01*
X126116241Y-116482753D01*
X126116240Y-116482753D01*
X125954957Y-116457208D01*
X125906287Y-116449500D01*
X125693713Y-116449500D01*
X125645042Y-116457208D01*
X125483760Y-116482753D01*
X125281585Y-116548444D01*
X125092179Y-116644951D01*
X124920213Y-116769890D01*
X124769890Y-116920213D01*
X124644949Y-117092182D01*
X124640484Y-117100946D01*
X124592509Y-117151742D01*
X124524688Y-117168536D01*
X124458553Y-117145998D01*
X124419516Y-117100946D01*
X124415050Y-117092182D01*
X124290109Y-116920213D01*
X124139786Y-116769890D01*
X123967820Y-116644951D01*
X123778414Y-116548444D01*
X123778413Y-116548443D01*
X123778412Y-116548443D01*
X123576243Y-116482754D01*
X123576241Y-116482753D01*
X123576240Y-116482753D01*
X123414957Y-116457208D01*
X123366287Y-116449500D01*
X123153713Y-116449500D01*
X123105042Y-116457208D01*
X122943760Y-116482753D01*
X122741585Y-116548444D01*
X122552179Y-116644951D01*
X122380213Y-116769890D01*
X122229890Y-116920213D01*
X122104949Y-117092182D01*
X122100484Y-117100946D01*
X122052509Y-117151742D01*
X121984688Y-117168536D01*
X121918553Y-117145998D01*
X121879516Y-117100946D01*
X121875050Y-117092182D01*
X121750109Y-116920213D01*
X121599786Y-116769890D01*
X121427820Y-116644951D01*
X121238414Y-116548444D01*
X121238413Y-116548443D01*
X121238412Y-116548443D01*
X121036243Y-116482754D01*
X121036241Y-116482753D01*
X121036240Y-116482753D01*
X120874957Y-116457208D01*
X120826287Y-116449500D01*
X120613713Y-116449500D01*
X120565042Y-116457208D01*
X120403760Y-116482753D01*
X120201585Y-116548444D01*
X120012179Y-116644951D01*
X119840213Y-116769890D01*
X119689890Y-116920213D01*
X119564949Y-117092182D01*
X119560484Y-117100946D01*
X119512509Y-117151742D01*
X119444688Y-117168536D01*
X119378553Y-117145998D01*
X119339516Y-117100946D01*
X119335050Y-117092182D01*
X119210109Y-116920213D01*
X119059786Y-116769890D01*
X118887820Y-116644951D01*
X118698414Y-116548444D01*
X118698413Y-116548443D01*
X118698412Y-116548443D01*
X118496243Y-116482754D01*
X118496241Y-116482753D01*
X118496240Y-116482753D01*
X118334957Y-116457208D01*
X118286287Y-116449500D01*
X118073713Y-116449500D01*
X118025042Y-116457208D01*
X117863760Y-116482753D01*
X117661585Y-116548444D01*
X117472179Y-116644951D01*
X117300213Y-116769890D01*
X117149890Y-116920213D01*
X117024949Y-117092182D01*
X117020484Y-117100946D01*
X116972509Y-117151742D01*
X116904688Y-117168536D01*
X116838553Y-117145998D01*
X116799516Y-117100946D01*
X116795050Y-117092182D01*
X116670109Y-116920213D01*
X116519786Y-116769890D01*
X116347820Y-116644951D01*
X116158414Y-116548444D01*
X116158413Y-116548443D01*
X116158412Y-116548443D01*
X115956243Y-116482754D01*
X115956241Y-116482753D01*
X115956240Y-116482753D01*
X115794957Y-116457208D01*
X115746287Y-116449500D01*
X115740518Y-116449500D01*
X115673479Y-116429815D01*
X115627724Y-116377011D01*
X115617780Y-116307853D01*
X115646805Y-116244297D01*
X115652837Y-116237819D01*
X128953838Y-102936819D01*
X129015161Y-102903334D01*
X129041519Y-102900500D01*
X133875500Y-102900500D01*
X133942539Y-102920185D01*
G37*
%TD.AperFunction*%
%TA.AperFunction,NonConductor*%
G36*
X142421905Y-102920185D02*
G01*
X142467660Y-102972989D01*
X142477604Y-103042147D01*
X142469427Y-103071950D01*
X142457488Y-103100776D01*
X142430809Y-103165184D01*
X142403929Y-103205412D01*
X141915890Y-103693451D01*
X141915884Y-103693458D01*
X141864918Y-103769736D01*
X141839226Y-103808186D01*
X141839222Y-103808193D01*
X141786421Y-103935667D01*
X141786418Y-103935677D01*
X141759500Y-104071004D01*
X141759500Y-105205500D01*
X141739815Y-105272539D01*
X141687011Y-105318294D01*
X141635501Y-105329500D01*
X141459630Y-105329500D01*
X141459623Y-105329501D01*
X141400016Y-105335908D01*
X141265171Y-105386202D01*
X141265164Y-105386206D01*
X141149955Y-105472452D01*
X141149952Y-105472455D01*
X141063706Y-105587664D01*
X141063702Y-105587671D01*
X141013408Y-105722517D01*
X141007001Y-105782116D01*
X141007000Y-105782135D01*
X141007000Y-107240980D01*
X140987315Y-107308019D01*
X140970681Y-107328661D01*
X140503388Y-107795953D01*
X140503387Y-107795954D01*
X140426723Y-107910692D01*
X140373921Y-108038168D01*
X140373918Y-108038179D01*
X140358945Y-108113457D01*
X140358945Y-108113458D01*
X140354963Y-108133474D01*
X140347000Y-108173505D01*
X140347000Y-108455594D01*
X140327315Y-108522633D01*
X140275406Y-108567975D01*
X140270673Y-108570181D01*
X140121342Y-108662289D01*
X139997289Y-108786342D01*
X139905187Y-108935663D01*
X139905186Y-108935666D01*
X139850001Y-109102203D01*
X139850001Y-109102204D01*
X139850000Y-109102204D01*
X139839500Y-109204983D01*
X139839500Y-110195001D01*
X139839501Y-110195019D01*
X139850000Y-110297796D01*
X139850001Y-110297799D01*
X139905185Y-110464331D01*
X139905186Y-110464334D01*
X139997288Y-110613656D01*
X140121344Y-110737712D01*
X140270666Y-110829814D01*
X140437203Y-110884999D01*
X140539991Y-110895500D01*
X141555008Y-110895499D01*
X141555016Y-110895498D01*
X141555019Y-110895498D01*
X141611302Y-110889748D01*
X141657797Y-110884999D01*
X141824334Y-110829814D01*
X141973656Y-110737712D01*
X142097712Y-110613656D01*
X142189814Y-110464334D01*
X142244999Y-110297797D01*
X142255500Y-110195009D01*
X142255499Y-109204992D01*
X142244999Y-109102203D01*
X142189814Y-108935666D01*
X142097712Y-108786344D01*
X141973656Y-108662288D01*
X141973655Y-108662287D01*
X141887385Y-108609076D01*
X141871832Y-108591784D01*
X141853214Y-108577847D01*
X141848905Y-108566294D01*
X141840660Y-108557128D01*
X141836924Y-108534172D01*
X141828797Y-108512383D01*
X141831417Y-108500336D01*
X141829437Y-108488166D01*
X141838705Y-108466832D01*
X141843649Y-108444110D01*
X141855397Y-108428416D01*
X141857280Y-108424083D01*
X141864800Y-108415856D01*
X141913838Y-108366818D01*
X141975161Y-108333333D01*
X142001519Y-108330499D01*
X142930570Y-108330499D01*
X142997609Y-108350184D01*
X143043364Y-108402988D01*
X143053308Y-108472146D01*
X143024283Y-108535702D01*
X142981015Y-108564576D01*
X142982209Y-108567136D01*
X142975663Y-108570187D01*
X142826342Y-108662289D01*
X142702289Y-108786342D01*
X142610187Y-108935663D01*
X142610186Y-108935666D01*
X142555001Y-109102203D01*
X142555001Y-109102204D01*
X142555000Y-109102204D01*
X142544500Y-109204983D01*
X142544500Y-110195001D01*
X142544501Y-110195019D01*
X142555000Y-110297796D01*
X142555001Y-110297799D01*
X142610185Y-110464331D01*
X142610186Y-110464334D01*
X142702288Y-110613656D01*
X142826344Y-110737712D01*
X142975666Y-110829814D01*
X142975667Y-110829814D01*
X142975673Y-110829818D01*
X142980406Y-110832025D01*
X143032845Y-110878198D01*
X143052000Y-110944406D01*
X143052000Y-115205980D01*
X143032315Y-115273019D01*
X143015681Y-115293661D01*
X140796160Y-117513181D01*
X140734837Y-117546666D01*
X140708479Y-117549500D01*
X139402129Y-117549500D01*
X139402123Y-117549501D01*
X139342516Y-117555908D01*
X139207671Y-117606202D01*
X139207664Y-117606206D01*
X139092455Y-117692452D01*
X139092452Y-117692455D01*
X139006206Y-117807664D01*
X139006202Y-117807671D01*
X138955908Y-117942517D01*
X138950505Y-117992781D01*
X138949501Y-118002123D01*
X138949500Y-118002135D01*
X138949500Y-118161481D01*
X138943261Y-118182726D01*
X138941682Y-118204815D01*
X138933609Y-118215598D01*
X138929815Y-118228520D01*
X138913081Y-118243019D01*
X138899810Y-118260748D01*
X138887189Y-118265455D01*
X138877011Y-118274275D01*
X138855093Y-118277426D01*
X138834346Y-118285165D01*
X138821185Y-118282302D01*
X138807853Y-118284219D01*
X138787709Y-118275019D01*
X138766073Y-118270313D01*
X138748347Y-118257044D01*
X138744297Y-118255194D01*
X138737819Y-118249162D01*
X138636819Y-118148162D01*
X138603334Y-118086839D01*
X138600500Y-118060481D01*
X138600500Y-113502135D01*
X138949500Y-113502135D01*
X138949500Y-114697870D01*
X138949501Y-114697876D01*
X138955908Y-114757483D01*
X139006202Y-114892328D01*
X139006206Y-114892335D01*
X139092452Y-115007544D01*
X139092455Y-115007547D01*
X139207664Y-115093793D01*
X139207671Y-115093797D01*
X139342517Y-115144091D01*
X139342516Y-115144091D01*
X139349444Y-115144835D01*
X139402127Y-115150500D01*
X141997872Y-115150499D01*
X142057483Y-115144091D01*
X142192331Y-115093796D01*
X142307546Y-115007546D01*
X142393796Y-114892331D01*
X142444091Y-114757483D01*
X142450500Y-114697873D01*
X142450499Y-113502128D01*
X142444091Y-113442517D01*
X142393796Y-113307669D01*
X142393795Y-113307668D01*
X142393793Y-113307664D01*
X142307547Y-113192455D01*
X142307544Y-113192452D01*
X142192335Y-113106206D01*
X142192328Y-113106202D01*
X142057482Y-113055908D01*
X142057483Y-113055908D01*
X141997883Y-113049501D01*
X141997881Y-113049500D01*
X141997873Y-113049500D01*
X141997864Y-113049500D01*
X139402129Y-113049500D01*
X139402123Y-113049501D01*
X139342516Y-113055908D01*
X139207671Y-113106202D01*
X139207664Y-113106206D01*
X139092455Y-113192452D01*
X139092452Y-113192455D01*
X139006206Y-113307664D01*
X139006202Y-113307671D01*
X138955908Y-113442517D01*
X138949501Y-113502116D01*
X138949501Y-113502123D01*
X138949500Y-113502135D01*
X138600500Y-113502135D01*
X138600500Y-103925316D01*
X138609939Y-103877864D01*
X138654952Y-103769191D01*
X138669737Y-103733497D01*
X138700500Y-103578842D01*
X138700500Y-103421158D01*
X138700500Y-103421155D01*
X138700499Y-103421153D01*
X138682204Y-103329179D01*
X138669737Y-103266503D01*
X138654707Y-103230217D01*
X138609397Y-103120827D01*
X138609389Y-103120812D01*
X138591067Y-103093392D01*
X138570188Y-103026715D01*
X138588672Y-102959334D01*
X138640650Y-102912644D01*
X138694168Y-102900500D01*
X140011006Y-102900500D01*
X140011007Y-102900500D01*
X142354866Y-102900500D01*
X142421905Y-102920185D01*
G37*
%TD.AperFunction*%
%TA.AperFunction,NonConductor*%
G36*
X176841445Y-104143865D02*
G01*
X176880483Y-104188917D01*
X176902547Y-104232219D01*
X176927715Y-104281614D01*
X177048028Y-104447213D01*
X177192786Y-104591971D01*
X177331407Y-104692683D01*
X177358390Y-104712287D01*
X177447212Y-104757544D01*
X177540776Y-104805218D01*
X177540778Y-104805218D01*
X177540781Y-104805220D01*
X177616677Y-104829880D01*
X177735465Y-104868477D01*
X177836557Y-104884488D01*
X177937648Y-104900500D01*
X177937649Y-104900500D01*
X178142351Y-104900500D01*
X178142352Y-104900500D01*
X178344534Y-104868477D01*
X178539219Y-104805220D01*
X178721610Y-104712287D01*
X178876847Y-104599502D01*
X178887213Y-104591971D01*
X178887215Y-104591968D01*
X178887219Y-104591966D01*
X179031966Y-104447219D01*
X179058330Y-104410930D01*
X179113658Y-104368265D01*
X179183271Y-104362284D01*
X179245067Y-104394889D01*
X179279426Y-104455726D01*
X179281938Y-104470559D01*
X179285907Y-104507480D01*
X179336202Y-104642328D01*
X179336206Y-104642335D01*
X179422452Y-104757544D01*
X179422455Y-104757547D01*
X179537664Y-104843793D01*
X179537671Y-104843797D01*
X179672517Y-104894091D01*
X179672516Y-104894091D01*
X179679444Y-104894835D01*
X179732127Y-104900500D01*
X181427872Y-104900499D01*
X181487483Y-104894091D01*
X181532167Y-104877425D01*
X181601858Y-104872441D01*
X181663181Y-104905926D01*
X181696666Y-104967249D01*
X181699500Y-104993607D01*
X181699500Y-116678480D01*
X181679815Y-116745519D01*
X181663181Y-116766161D01*
X180906147Y-117523194D01*
X180844824Y-117556679D01*
X180799068Y-117557986D01*
X180727596Y-117546666D01*
X180682352Y-117539500D01*
X180477648Y-117539500D01*
X180453329Y-117543351D01*
X180275465Y-117571522D01*
X180080776Y-117634781D01*
X179898386Y-117727715D01*
X179732786Y-117848028D01*
X179588028Y-117992786D01*
X179467715Y-118158386D01*
X179420485Y-118251080D01*
X179372510Y-118301876D01*
X179304689Y-118318671D01*
X179238554Y-118296134D01*
X179199515Y-118251080D01*
X179181436Y-118215598D01*
X179152287Y-118158390D01*
X179081153Y-118060481D01*
X179031971Y-117992786D01*
X178887217Y-117848032D01*
X178887212Y-117848028D01*
X178791615Y-117778573D01*
X178748949Y-117723243D01*
X178740500Y-117678255D01*
X178740500Y-115071004D01*
X178713581Y-114935677D01*
X178713580Y-114935676D01*
X178713580Y-114935672D01*
X178713578Y-114935667D01*
X178660778Y-114808195D01*
X178660771Y-114808182D01*
X178584115Y-114693459D01*
X178584114Y-114693458D01*
X178486542Y-114595886D01*
X176236819Y-112346162D01*
X176203334Y-112284839D01*
X176200500Y-112258481D01*
X176200500Y-104761744D01*
X176220185Y-104694705D01*
X176251615Y-104661426D01*
X176347215Y-104591969D01*
X176347215Y-104591968D01*
X176347219Y-104591966D01*
X176491966Y-104447219D01*
X176491968Y-104447215D01*
X176491971Y-104447213D01*
X176612284Y-104281614D01*
X176612283Y-104281614D01*
X176612287Y-104281610D01*
X176659516Y-104188917D01*
X176707489Y-104138123D01*
X176775310Y-104121328D01*
X176841445Y-104143865D01*
G37*
%TD.AperFunction*%
%TA.AperFunction,NonConductor*%
G36*
X171761445Y-104143865D02*
G01*
X171800483Y-104188917D01*
X171822547Y-104232219D01*
X171847715Y-104281614D01*
X171968028Y-104447213D01*
X172112786Y-104591971D01*
X172251407Y-104692683D01*
X172278390Y-104712287D01*
X172367212Y-104757544D01*
X172460776Y-104805218D01*
X172460778Y-104805218D01*
X172460781Y-104805220D01*
X172536677Y-104829880D01*
X172655465Y-104868477D01*
X172756557Y-104884488D01*
X172857648Y-104900500D01*
X172857649Y-104900500D01*
X173062351Y-104900500D01*
X173062352Y-104900500D01*
X173264534Y-104868477D01*
X173459219Y-104805220D01*
X173641610Y-104712287D01*
X173796847Y-104599502D01*
X173807213Y-104591971D01*
X173807215Y-104591968D01*
X173807219Y-104591966D01*
X173951966Y-104447219D01*
X174021425Y-104351615D01*
X174025757Y-104348274D01*
X174028031Y-104343297D01*
X174053130Y-104327166D01*
X174076755Y-104308949D01*
X174083428Y-104307695D01*
X174086809Y-104305523D01*
X174121744Y-104300500D01*
X174338256Y-104300500D01*
X174405295Y-104320185D01*
X174438574Y-104351615D01*
X174450671Y-104368265D01*
X174508030Y-104447215D01*
X174652784Y-104591969D01*
X174748385Y-104661426D01*
X174791051Y-104716755D01*
X174799500Y-104761744D01*
X174799500Y-112531006D01*
X174799500Y-112668994D01*
X174799500Y-112668996D01*
X174799499Y-112668996D01*
X174826418Y-112804322D01*
X174826421Y-112804332D01*
X174879222Y-112931807D01*
X174955887Y-113046545D01*
X174955888Y-113046546D01*
X177303181Y-115393837D01*
X177336666Y-115455160D01*
X177339500Y-115481518D01*
X177339500Y-117678255D01*
X177319815Y-117745294D01*
X177288385Y-117778573D01*
X177192787Y-117848028D01*
X177192782Y-117848032D01*
X177048028Y-117992786D01*
X176927715Y-118158386D01*
X176880485Y-118251080D01*
X176832510Y-118301876D01*
X176764689Y-118318671D01*
X176698554Y-118296134D01*
X176659515Y-118251080D01*
X176641436Y-118215598D01*
X176612287Y-118158390D01*
X176541153Y-118060481D01*
X176491971Y-117992786D01*
X176347213Y-117848028D01*
X176181613Y-117727715D01*
X176181612Y-117727714D01*
X176181610Y-117727713D01*
X176124653Y-117698691D01*
X175999223Y-117634781D01*
X175804534Y-117571522D01*
X175629995Y-117543878D01*
X175602352Y-117539500D01*
X175397648Y-117539500D01*
X175373329Y-117543351D01*
X175195465Y-117571522D01*
X175000776Y-117634781D01*
X174818386Y-117727715D01*
X174652786Y-117848028D01*
X174508028Y-117992786D01*
X174387715Y-118158386D01*
X174340485Y-118251080D01*
X174292510Y-118301876D01*
X174224689Y-118318671D01*
X174158554Y-118296134D01*
X174119515Y-118251080D01*
X174101436Y-118215598D01*
X174072287Y-118158390D01*
X174001153Y-118060481D01*
X173951971Y-117992786D01*
X173807213Y-117848028D01*
X173641613Y-117727715D01*
X173641612Y-117727714D01*
X173641610Y-117727713D01*
X173584653Y-117698691D01*
X173459223Y-117634781D01*
X173264534Y-117571522D01*
X173089995Y-117543878D01*
X173062352Y-117539500D01*
X172857648Y-117539500D01*
X172857643Y-117539500D01*
X172740929Y-117557986D01*
X172671636Y-117549032D01*
X172633850Y-117523194D01*
X163622838Y-108512181D01*
X163589353Y-108450858D01*
X163594337Y-108381166D01*
X163636209Y-108325233D01*
X163701673Y-108300816D01*
X163710519Y-108300500D01*
X166488996Y-108300500D01*
X166596517Y-108279112D01*
X166624328Y-108273580D01*
X166688069Y-108247177D01*
X166751807Y-108220777D01*
X166751808Y-108220776D01*
X166751811Y-108220775D01*
X166866543Y-108144114D01*
X170093852Y-104916803D01*
X170155173Y-104883320D01*
X170200929Y-104882013D01*
X170255395Y-104890639D01*
X170317648Y-104900500D01*
X170317649Y-104900500D01*
X170522351Y-104900500D01*
X170522352Y-104900500D01*
X170724534Y-104868477D01*
X170919219Y-104805220D01*
X171101610Y-104712287D01*
X171256847Y-104599502D01*
X171267213Y-104591971D01*
X171267215Y-104591968D01*
X171267219Y-104591966D01*
X171411966Y-104447219D01*
X171411968Y-104447215D01*
X171411971Y-104447213D01*
X171532284Y-104281614D01*
X171532283Y-104281614D01*
X171532287Y-104281610D01*
X171579516Y-104188917D01*
X171627489Y-104138123D01*
X171695310Y-104121328D01*
X171761445Y-104143865D01*
G37*
%TD.AperFunction*%
%TA.AperFunction,NonConductor*%
G36*
X158654379Y-105549649D02*
G01*
X158660656Y-105549873D01*
X158683258Y-105565561D01*
X158709194Y-105579852D01*
X170457163Y-117327819D01*
X170490648Y-117389142D01*
X170485664Y-117458834D01*
X170443792Y-117514767D01*
X170378328Y-117539184D01*
X170369482Y-117539500D01*
X170317648Y-117539500D01*
X170293329Y-117543351D01*
X170115465Y-117571522D01*
X169920776Y-117634781D01*
X169738386Y-117727715D01*
X169572786Y-117848028D01*
X169428028Y-117992786D01*
X169307715Y-118158386D01*
X169260485Y-118251080D01*
X169212510Y-118301876D01*
X169144689Y-118318671D01*
X169078554Y-118296134D01*
X169039515Y-118251080D01*
X169021436Y-118215598D01*
X168992287Y-118158390D01*
X168921153Y-118060481D01*
X168871971Y-117992786D01*
X168727213Y-117848028D01*
X168561613Y-117727715D01*
X168561612Y-117727714D01*
X168561610Y-117727713D01*
X168504653Y-117698691D01*
X168379223Y-117634781D01*
X168184534Y-117571522D01*
X168009995Y-117543878D01*
X167982352Y-117539500D01*
X167777648Y-117539500D01*
X167753329Y-117543351D01*
X167575465Y-117571522D01*
X167380776Y-117634781D01*
X167198386Y-117727715D01*
X167032786Y-117848028D01*
X166888028Y-117992786D01*
X166767715Y-118158386D01*
X166720485Y-118251080D01*
X166672510Y-118301876D01*
X166604689Y-118318671D01*
X166538554Y-118296134D01*
X166499515Y-118251080D01*
X166481436Y-118215598D01*
X166452287Y-118158390D01*
X166381153Y-118060481D01*
X166331971Y-117992786D01*
X166187213Y-117848028D01*
X166021613Y-117727715D01*
X166021612Y-117727714D01*
X166021610Y-117727713D01*
X165964653Y-117698691D01*
X165839223Y-117634781D01*
X165644534Y-117571522D01*
X165469995Y-117543878D01*
X165442352Y-117539500D01*
X165237648Y-117539500D01*
X165213329Y-117543351D01*
X165035465Y-117571522D01*
X164840776Y-117634781D01*
X164658386Y-117727715D01*
X164492786Y-117848028D01*
X164348028Y-117992786D01*
X164227715Y-118158386D01*
X164180485Y-118251080D01*
X164132510Y-118301876D01*
X164064689Y-118318671D01*
X163998554Y-118296134D01*
X163959515Y-118251080D01*
X163941436Y-118215598D01*
X163912287Y-118158390D01*
X163841153Y-118060481D01*
X163791971Y-117992786D01*
X163647213Y-117848028D01*
X163481613Y-117727715D01*
X163481612Y-117727714D01*
X163481610Y-117727713D01*
X163424653Y-117698691D01*
X163299223Y-117634781D01*
X163104534Y-117571522D01*
X162929995Y-117543878D01*
X162902352Y-117539500D01*
X162697648Y-117539500D01*
X162673329Y-117543351D01*
X162495465Y-117571522D01*
X162300776Y-117634781D01*
X162118386Y-117727715D01*
X161952786Y-117848028D01*
X161808028Y-117992786D01*
X161687715Y-118158386D01*
X161640485Y-118251080D01*
X161592510Y-118301876D01*
X161524689Y-118318671D01*
X161458554Y-118296134D01*
X161419515Y-118251080D01*
X161401436Y-118215598D01*
X161372287Y-118158390D01*
X161301153Y-118060481D01*
X161251971Y-117992786D01*
X161107217Y-117848032D01*
X161107212Y-117848028D01*
X161011615Y-117778573D01*
X160968949Y-117723243D01*
X160960500Y-117678255D01*
X160960500Y-108491004D01*
X160945551Y-108415856D01*
X160933580Y-108355672D01*
X160932683Y-108353507D01*
X160899666Y-108273796D01*
X160880775Y-108228189D01*
X160880773Y-108228186D01*
X160880771Y-108228182D01*
X160804115Y-108113459D01*
X160762984Y-108072328D01*
X160706542Y-108015886D01*
X158596072Y-105905416D01*
X158591444Y-105898491D01*
X158587212Y-105895554D01*
X158569234Y-105865258D01*
X158569200Y-105865207D01*
X158509394Y-105720821D01*
X158509328Y-105720723D01*
X158506958Y-105715002D01*
X158503851Y-105686144D01*
X158497900Y-105657749D01*
X158500158Y-105651832D01*
X158499480Y-105645533D01*
X158512468Y-105619575D01*
X158522813Y-105592472D01*
X158527910Y-105588715D01*
X158530746Y-105583050D01*
X158555703Y-105568237D01*
X158579062Y-105551026D01*
X158585382Y-105550622D01*
X158590830Y-105547389D01*
X158619830Y-105548420D01*
X158648790Y-105546570D01*
X158654379Y-105549649D01*
G37*
%TD.AperFunction*%
%TA.AperFunction,NonConductor*%
G36*
X157372254Y-106788381D02*
G01*
X157380559Y-106788530D01*
X157412392Y-106803762D01*
X157417756Y-106807346D01*
X157420819Y-106809393D01*
X157420827Y-106809397D01*
X157565187Y-106869192D01*
X157605416Y-106896072D01*
X159523181Y-108813837D01*
X159556666Y-108875160D01*
X159559500Y-108901518D01*
X159559500Y-117678255D01*
X159539815Y-117745294D01*
X159508385Y-117778573D01*
X159412787Y-117848028D01*
X159412782Y-117848032D01*
X159268028Y-117992786D01*
X159147715Y-118158386D01*
X159100485Y-118251080D01*
X159052510Y-118301876D01*
X158984689Y-118318671D01*
X158918554Y-118296134D01*
X158879515Y-118251080D01*
X158861436Y-118215598D01*
X158832287Y-118158390D01*
X158761153Y-118060481D01*
X158711971Y-117992786D01*
X158567213Y-117848028D01*
X158401613Y-117727715D01*
X158401612Y-117727714D01*
X158401610Y-117727713D01*
X158344653Y-117698691D01*
X158219223Y-117634781D01*
X158024534Y-117571522D01*
X157849995Y-117543878D01*
X157822352Y-117539500D01*
X157617648Y-117539500D01*
X157500929Y-117557986D01*
X157431636Y-117549031D01*
X157393851Y-117523194D01*
X157255819Y-117385162D01*
X157222334Y-117323839D01*
X157219500Y-117297481D01*
X157219500Y-106906863D01*
X157222364Y-106897108D01*
X157221098Y-106887022D01*
X157232042Y-106864149D01*
X157239185Y-106839824D01*
X157246866Y-106833168D01*
X157251255Y-106823996D01*
X157272830Y-106810669D01*
X157291989Y-106794069D01*
X157302050Y-106792622D01*
X157310700Y-106787280D01*
X157336050Y-106787733D01*
X157361147Y-106784125D01*
X157372254Y-106788381D01*
G37*
%TD.AperFunction*%
%TA.AperFunction,NonConductor*%
G36*
X153545703Y-107536806D02*
G01*
X153552181Y-107542838D01*
X154443181Y-108433838D01*
X154476666Y-108495161D01*
X154479500Y-108521519D01*
X154479500Y-117678255D01*
X154459815Y-117745294D01*
X154428385Y-117778573D01*
X154332787Y-117848028D01*
X154332782Y-117848032D01*
X154188028Y-117992786D01*
X154067715Y-118158386D01*
X154020485Y-118251080D01*
X153972510Y-118301876D01*
X153904689Y-118318671D01*
X153838554Y-118296134D01*
X153799515Y-118251080D01*
X153781436Y-118215598D01*
X153752287Y-118158390D01*
X153681153Y-118060481D01*
X153631971Y-117992786D01*
X153487217Y-117848032D01*
X153487212Y-117848028D01*
X153391615Y-117778573D01*
X153348949Y-117723243D01*
X153340500Y-117678255D01*
X153340500Y-107630519D01*
X153360185Y-107563480D01*
X153412989Y-107517725D01*
X153482147Y-107507781D01*
X153545703Y-107536806D01*
G37*
%TD.AperFunction*%
%TA.AperFunction,NonConductor*%
G36*
X147480484Y-101520185D02*
G01*
X147526239Y-101572989D01*
X147536183Y-101642147D01*
X147531159Y-101660411D01*
X147532031Y-101660676D01*
X147530261Y-101666510D01*
X147499500Y-101821153D01*
X147499500Y-101978846D01*
X147530261Y-102133489D01*
X147530264Y-102133501D01*
X147590602Y-102279172D01*
X147590609Y-102279185D01*
X147678210Y-102410288D01*
X147678213Y-102410292D01*
X147789707Y-102521786D01*
X147789711Y-102521789D01*
X147920814Y-102609390D01*
X147920827Y-102609397D01*
X148051506Y-102663525D01*
X148066503Y-102669737D01*
X148221153Y-102700499D01*
X148221156Y-102700500D01*
X148221158Y-102700500D01*
X148378844Y-102700500D01*
X148378845Y-102700499D01*
X148533497Y-102669737D01*
X148615972Y-102635575D01*
X148677864Y-102609939D01*
X148725316Y-102600500D01*
X149052243Y-102600500D01*
X149119282Y-102620185D01*
X149165037Y-102672989D01*
X149174981Y-102742147D01*
X149173860Y-102748692D01*
X149149500Y-102871155D01*
X149149500Y-103028846D01*
X149180261Y-103183489D01*
X149180264Y-103183501D01*
X149240602Y-103329172D01*
X149240609Y-103329185D01*
X149328210Y-103460288D01*
X149328213Y-103460292D01*
X149439707Y-103571786D01*
X149439711Y-103571789D01*
X149570814Y-103659390D01*
X149570827Y-103659397D01*
X149715185Y-103719191D01*
X149755414Y-103746071D01*
X150150951Y-104141608D01*
X150184436Y-104202931D01*
X150179452Y-104272623D01*
X150150951Y-104316970D01*
X150078213Y-104389707D01*
X150078210Y-104389711D01*
X149990609Y-104520814D01*
X149990602Y-104520827D01*
X149930264Y-104666498D01*
X149930261Y-104666510D01*
X149899500Y-104821153D01*
X149899500Y-104978846D01*
X149930261Y-105133489D01*
X149930264Y-105133501D01*
X149990602Y-105279172D01*
X149990609Y-105279185D01*
X150078210Y-105410288D01*
X150078213Y-105410292D01*
X150189707Y-105521786D01*
X150189711Y-105521789D01*
X150320814Y-105609390D01*
X150320827Y-105609397D01*
X150465187Y-105669192D01*
X150505416Y-105696072D01*
X151903181Y-107093837D01*
X151936666Y-107155160D01*
X151939500Y-107181518D01*
X151939500Y-117678255D01*
X151919815Y-117745294D01*
X151888385Y-117778573D01*
X151792787Y-117848028D01*
X151792782Y-117848032D01*
X151648028Y-117992786D01*
X151527715Y-118158386D01*
X151434781Y-118340776D01*
X151371522Y-118535465D01*
X151339500Y-118737648D01*
X151339500Y-118942351D01*
X151371523Y-119144535D01*
X151371524Y-119144542D01*
X151382455Y-119178183D01*
X151383258Y-119206301D01*
X151387262Y-119234147D01*
X151384242Y-119240758D01*
X151384450Y-119248024D01*
X151369923Y-119272112D01*
X151358237Y-119297703D01*
X151352121Y-119301633D01*
X151348369Y-119307856D01*
X151323126Y-119320266D01*
X151299459Y-119335477D01*
X151289186Y-119336953D01*
X151285668Y-119338684D01*
X151264524Y-119340500D01*
X151073212Y-119340500D01*
X151006173Y-119320815D01*
X150960418Y-119268011D01*
X150949922Y-119203251D01*
X150950499Y-119197879D01*
X150950500Y-119197873D01*
X150950499Y-118002128D01*
X150944091Y-117942517D01*
X150944089Y-117942512D01*
X150893797Y-117807671D01*
X150893793Y-117807664D01*
X150807547Y-117692455D01*
X150807544Y-117692452D01*
X150692335Y-117606206D01*
X150692328Y-117606202D01*
X150557482Y-117555908D01*
X150557483Y-117555908D01*
X150497883Y-117549501D01*
X150497881Y-117549500D01*
X150497873Y-117549500D01*
X150497865Y-117549500D01*
X149191518Y-117549500D01*
X149124479Y-117529815D01*
X149103837Y-117513181D01*
X147836819Y-116246162D01*
X147803334Y-116184839D01*
X147800500Y-116158481D01*
X147800500Y-115274499D01*
X147820185Y-115207460D01*
X147872989Y-115161705D01*
X147924495Y-115150499D01*
X150497872Y-115150499D01*
X150557483Y-115144091D01*
X150692331Y-115093796D01*
X150807546Y-115007546D01*
X150893796Y-114892331D01*
X150944091Y-114757483D01*
X150950500Y-114697873D01*
X150950499Y-113502128D01*
X150944091Y-113442517D01*
X150893796Y-113307669D01*
X150893795Y-113307668D01*
X150893793Y-113307664D01*
X150807547Y-113192455D01*
X150807544Y-113192452D01*
X150692335Y-113106206D01*
X150692328Y-113106202D01*
X150557482Y-113055908D01*
X150557483Y-113055908D01*
X150497883Y-113049501D01*
X150497881Y-113049500D01*
X150497873Y-113049500D01*
X150497865Y-113049500D01*
X147924500Y-113049500D01*
X147857461Y-113029815D01*
X147811706Y-112977011D01*
X147800500Y-112925500D01*
X147800500Y-111594018D01*
X147820185Y-111526979D01*
X147836815Y-111506341D01*
X148411338Y-110931817D01*
X148472661Y-110898333D01*
X148499019Y-110895499D01*
X149160002Y-110895499D01*
X149160008Y-110895499D01*
X149262797Y-110884999D01*
X149429334Y-110829814D01*
X149578656Y-110737712D01*
X149702712Y-110613656D01*
X149794814Y-110464334D01*
X149849999Y-110297797D01*
X149860500Y-110195009D01*
X149860499Y-109204992D01*
X149849999Y-109102203D01*
X149794814Y-108935666D01*
X149702712Y-108786344D01*
X149578656Y-108662288D01*
X149464350Y-108591784D01*
X149429336Y-108570187D01*
X149429331Y-108570185D01*
X149391560Y-108557669D01*
X149262797Y-108515001D01*
X149262795Y-108515000D01*
X149160010Y-108504500D01*
X148144998Y-108504500D01*
X148144980Y-108504501D01*
X148042203Y-108515000D01*
X148042200Y-108515001D01*
X147875668Y-108570185D01*
X147875663Y-108570187D01*
X147726342Y-108662289D01*
X147602289Y-108786342D01*
X147510187Y-108935663D01*
X147510186Y-108935666D01*
X147455001Y-109102203D01*
X147455001Y-109102204D01*
X147455000Y-109102204D01*
X147444500Y-109204983D01*
X147444500Y-109865980D01*
X147435853Y-109895425D01*
X147429331Y-109925408D01*
X147425577Y-109930421D01*
X147424815Y-109933019D01*
X147408180Y-109953662D01*
X147367179Y-109994662D01*
X147305856Y-110028147D01*
X147236164Y-110023161D01*
X147180231Y-109981289D01*
X147155815Y-109915825D01*
X147155499Y-109906999D01*
X147155499Y-109204992D01*
X147144999Y-109102203D01*
X147089814Y-108935666D01*
X146997712Y-108786344D01*
X146873693Y-108662325D01*
X146869355Y-108654380D01*
X146862107Y-108648955D01*
X146852871Y-108624193D01*
X146840208Y-108601002D01*
X146840853Y-108591972D01*
X146837690Y-108583490D01*
X146843306Y-108557669D01*
X146845192Y-108531310D01*
X146851010Y-108522256D01*
X146852542Y-108515217D01*
X146873693Y-108486963D01*
X146957668Y-108402988D01*
X147045022Y-108315633D01*
X147106343Y-108282150D01*
X147171018Y-108285385D01*
X147183153Y-108289327D01*
X147199755Y-108294722D01*
X147425646Y-108330500D01*
X147425647Y-108330500D01*
X147654353Y-108330500D01*
X147654354Y-108330500D01*
X147880245Y-108294722D01*
X147880248Y-108294721D01*
X147880249Y-108294721D01*
X148097755Y-108224049D01*
X148097755Y-108224048D01*
X148097758Y-108224048D01*
X148301538Y-108120217D01*
X148486566Y-107985786D01*
X148648286Y-107824066D01*
X148782717Y-107639038D01*
X148886548Y-107435258D01*
X148932984Y-107292342D01*
X148957221Y-107217749D01*
X148957221Y-107217748D01*
X148957222Y-107217745D01*
X148993000Y-106991854D01*
X148993000Y-106668146D01*
X148957222Y-106442255D01*
X148957221Y-106442251D01*
X148957221Y-106442250D01*
X148886549Y-106224744D01*
X148886548Y-106224742D01*
X148782717Y-106020962D01*
X148648286Y-105835934D01*
X148486566Y-105674214D01*
X148301538Y-105539783D01*
X148224441Y-105500500D01*
X148097755Y-105435950D01*
X147880248Y-105365278D01*
X147694812Y-105335908D01*
X147654354Y-105329500D01*
X147425646Y-105329500D01*
X147425642Y-105329500D01*
X147396983Y-105334039D01*
X147327689Y-105325084D01*
X147289904Y-105299247D01*
X144945344Y-102954687D01*
X144911859Y-102893364D01*
X144916843Y-102823672D01*
X144929923Y-102798115D01*
X144951268Y-102766170D01*
X145009394Y-102679179D01*
X145069193Y-102534809D01*
X145096070Y-102494584D01*
X145966369Y-101624285D01*
X146027690Y-101590802D01*
X146029683Y-101590386D01*
X146133497Y-101569737D01*
X146253127Y-101520185D01*
X146277864Y-101509939D01*
X146325316Y-101500500D01*
X147413445Y-101500500D01*
X147480484Y-101520185D01*
G37*
%TD.AperFunction*%
%TA.AperFunction,NonConductor*%
G36*
X144893334Y-110625548D02*
G01*
X144937681Y-110654049D01*
X145021344Y-110737712D01*
X145170666Y-110829814D01*
X145337203Y-110884999D01*
X145439991Y-110895500D01*
X146305693Y-110895499D01*
X146372732Y-110915183D01*
X146418487Y-110967987D01*
X146428431Y-111037146D01*
X146427310Y-111043690D01*
X146399500Y-111183502D01*
X146399500Y-111183507D01*
X146399500Y-116431006D01*
X146399500Y-116568994D01*
X146399500Y-116568996D01*
X146399499Y-116568996D01*
X146426418Y-116704322D01*
X146426421Y-116704332D01*
X146479222Y-116831807D01*
X146555887Y-116946545D01*
X146555888Y-116946546D01*
X147425625Y-117816282D01*
X147459110Y-117877605D01*
X147455055Y-117934339D01*
X147457694Y-117934963D01*
X147455908Y-117942520D01*
X147450505Y-117992781D01*
X147449501Y-118002123D01*
X147449500Y-118002135D01*
X147449500Y-119197870D01*
X147449501Y-119197882D01*
X147450078Y-119203242D01*
X147437674Y-119272002D01*
X147390065Y-119323140D01*
X147326789Y-119340500D01*
X142573212Y-119340500D01*
X142506173Y-119320815D01*
X142460418Y-119268011D01*
X142449922Y-119203251D01*
X142450499Y-119197879D01*
X142450500Y-119197873D01*
X142450499Y-118002128D01*
X142444091Y-117942517D01*
X142444090Y-117942515D01*
X142444090Y-117942512D01*
X142442308Y-117934969D01*
X142444948Y-117934344D01*
X142440886Y-117877616D01*
X142474362Y-117816293D01*
X144296614Y-115994043D01*
X144373275Y-115879311D01*
X144426080Y-115751828D01*
X144453000Y-115616494D01*
X144453000Y-115478506D01*
X144453000Y-110944406D01*
X144472685Y-110877367D01*
X144524594Y-110832025D01*
X144529326Y-110829818D01*
X144529330Y-110829815D01*
X144529334Y-110829814D01*
X144678656Y-110737712D01*
X144762319Y-110654049D01*
X144823642Y-110620564D01*
X144893334Y-110625548D01*
G37*
%TD.AperFunction*%
%TA.AperFunction,NonConductor*%
G36*
X187242539Y-82620185D02*
G01*
X187288294Y-82672989D01*
X187299500Y-82724500D01*
X187299500Y-100565891D01*
X187333608Y-100693187D01*
X187366554Y-100750250D01*
X187399500Y-100807314D01*
X187492686Y-100900500D01*
X187606814Y-100966392D01*
X187734108Y-101000500D01*
X188788159Y-101000500D01*
X188855198Y-101020185D01*
X188900953Y-101072989D01*
X188910897Y-101142147D01*
X188881872Y-101205703D01*
X188875840Y-101212181D01*
X188742030Y-101345990D01*
X188742024Y-101345997D01*
X188566431Y-101574835D01*
X188566420Y-101574851D01*
X188422199Y-101824647D01*
X188422191Y-101824663D01*
X188311814Y-102091139D01*
X188311809Y-102091155D01*
X188240790Y-102356204D01*
X188237152Y-102369780D01*
X188237149Y-102369793D01*
X188199501Y-102655761D01*
X188199500Y-102655778D01*
X188199500Y-102944221D01*
X188199501Y-102944238D01*
X188237149Y-103230206D01*
X188237150Y-103230211D01*
X188237151Y-103230217D01*
X188311809Y-103508844D01*
X188311814Y-103508860D01*
X188422191Y-103775336D01*
X188422199Y-103775352D01*
X188566420Y-104025148D01*
X188566431Y-104025164D01*
X188742024Y-104254002D01*
X188742030Y-104254009D01*
X188775840Y-104287819D01*
X188809325Y-104349142D01*
X188804341Y-104418834D01*
X188762469Y-104474767D01*
X188697005Y-104499184D01*
X188688159Y-104499500D01*
X187734108Y-104499500D01*
X187606812Y-104533608D01*
X187492686Y-104599500D01*
X187492683Y-104599502D01*
X187399502Y-104692683D01*
X187399500Y-104692686D01*
X187333608Y-104806812D01*
X187299500Y-104934108D01*
X187299500Y-120875500D01*
X187279815Y-120942539D01*
X187227011Y-120988294D01*
X187175500Y-120999500D01*
X167010519Y-120999500D01*
X166943480Y-120979815D01*
X166897725Y-120927011D01*
X166887781Y-120857853D01*
X166916806Y-120794297D01*
X166922838Y-120787819D01*
X167039625Y-120671031D01*
X167553852Y-120156803D01*
X167615173Y-120123320D01*
X167660929Y-120122013D01*
X167715395Y-120130639D01*
X167777648Y-120140500D01*
X167777649Y-120140500D01*
X167982351Y-120140500D01*
X167982352Y-120140500D01*
X168184534Y-120108477D01*
X168379219Y-120045220D01*
X168561610Y-119952287D01*
X168654590Y-119884732D01*
X168727213Y-119831971D01*
X168727215Y-119831968D01*
X168727219Y-119831966D01*
X168871966Y-119687219D01*
X168871968Y-119687215D01*
X168871971Y-119687213D01*
X168992284Y-119521614D01*
X168992285Y-119521613D01*
X168992287Y-119521610D01*
X169039516Y-119428917D01*
X169087489Y-119378123D01*
X169155310Y-119361328D01*
X169221445Y-119383865D01*
X169260485Y-119428919D01*
X169307715Y-119521614D01*
X169428028Y-119687213D01*
X169572786Y-119831971D01*
X169727749Y-119944556D01*
X169738390Y-119952287D01*
X169854607Y-120011503D01*
X169920776Y-120045218D01*
X169920778Y-120045218D01*
X169920781Y-120045220D01*
X170025137Y-120079127D01*
X170115465Y-120108477D01*
X170216557Y-120124488D01*
X170317648Y-120140500D01*
X170317649Y-120140500D01*
X170522351Y-120140500D01*
X170522352Y-120140500D01*
X170724534Y-120108477D01*
X170919219Y-120045220D01*
X171101610Y-119952287D01*
X171194590Y-119884732D01*
X171267213Y-119831971D01*
X171267215Y-119831968D01*
X171267219Y-119831966D01*
X171411966Y-119687219D01*
X171411968Y-119687215D01*
X171411971Y-119687213D01*
X171532284Y-119521614D01*
X171532285Y-119521613D01*
X171532287Y-119521610D01*
X171579516Y-119428917D01*
X171627489Y-119378123D01*
X171695310Y-119361328D01*
X171761445Y-119383865D01*
X171800485Y-119428919D01*
X171847715Y-119521614D01*
X171968028Y-119687213D01*
X172112786Y-119831971D01*
X172267749Y-119944556D01*
X172278390Y-119952287D01*
X172394607Y-120011503D01*
X172460776Y-120045218D01*
X172460778Y-120045218D01*
X172460781Y-120045220D01*
X172565137Y-120079127D01*
X172655465Y-120108477D01*
X172756557Y-120124488D01*
X172857648Y-120140500D01*
X172857649Y-120140500D01*
X173062351Y-120140500D01*
X173062352Y-120140500D01*
X173264534Y-120108477D01*
X173459219Y-120045220D01*
X173641610Y-119952287D01*
X173734590Y-119884732D01*
X173807213Y-119831971D01*
X173807215Y-119831968D01*
X173807219Y-119831966D01*
X173951966Y-119687219D01*
X173951968Y-119687215D01*
X173951971Y-119687213D01*
X174072284Y-119521614D01*
X174072285Y-119521613D01*
X174072287Y-119521610D01*
X174119516Y-119428917D01*
X174167489Y-119378123D01*
X174235310Y-119361328D01*
X174301445Y-119383865D01*
X174340485Y-119428919D01*
X174387715Y-119521614D01*
X174508028Y-119687213D01*
X174652786Y-119831971D01*
X174807749Y-119944556D01*
X174818390Y-119952287D01*
X174934607Y-120011503D01*
X175000776Y-120045218D01*
X175000778Y-120045218D01*
X175000781Y-120045220D01*
X175105137Y-120079127D01*
X175195465Y-120108477D01*
X175296557Y-120124488D01*
X175397648Y-120140500D01*
X175397649Y-120140500D01*
X175602351Y-120140500D01*
X175602352Y-120140500D01*
X175804534Y-120108477D01*
X175999219Y-120045220D01*
X176181610Y-119952287D01*
X176274590Y-119884732D01*
X176347213Y-119831971D01*
X176347215Y-119831968D01*
X176347219Y-119831966D01*
X176491966Y-119687219D01*
X176491968Y-119687215D01*
X176491971Y-119687213D01*
X176612284Y-119521614D01*
X176612285Y-119521613D01*
X176612287Y-119521610D01*
X176659516Y-119428917D01*
X176707489Y-119378123D01*
X176775310Y-119361328D01*
X176841445Y-119383865D01*
X176880485Y-119428919D01*
X176927715Y-119521614D01*
X177048028Y-119687213D01*
X177192786Y-119831971D01*
X177347749Y-119944556D01*
X177358390Y-119952287D01*
X177474607Y-120011503D01*
X177540776Y-120045218D01*
X177540778Y-120045218D01*
X177540781Y-120045220D01*
X177645137Y-120079127D01*
X177735465Y-120108477D01*
X177836557Y-120124488D01*
X177937648Y-120140500D01*
X177937649Y-120140500D01*
X178142351Y-120140500D01*
X178142352Y-120140500D01*
X178344534Y-120108477D01*
X178539219Y-120045220D01*
X178721610Y-119952287D01*
X178814590Y-119884732D01*
X178887213Y-119831971D01*
X178887215Y-119831968D01*
X178887219Y-119831966D01*
X179031966Y-119687219D01*
X179031968Y-119687215D01*
X179031971Y-119687213D01*
X179152284Y-119521614D01*
X179152285Y-119521613D01*
X179152287Y-119521610D01*
X179199516Y-119428917D01*
X179247489Y-119378123D01*
X179315310Y-119361328D01*
X179381445Y-119383865D01*
X179420485Y-119428919D01*
X179467715Y-119521614D01*
X179588028Y-119687213D01*
X179732786Y-119831971D01*
X179887749Y-119944556D01*
X179898390Y-119952287D01*
X180014607Y-120011503D01*
X180080776Y-120045218D01*
X180080778Y-120045218D01*
X180080781Y-120045220D01*
X180185137Y-120079127D01*
X180275465Y-120108477D01*
X180376557Y-120124488D01*
X180477648Y-120140500D01*
X180477649Y-120140500D01*
X180682351Y-120140500D01*
X180682352Y-120140500D01*
X180884534Y-120108477D01*
X181079219Y-120045220D01*
X181261610Y-119952287D01*
X181354590Y-119884732D01*
X181427213Y-119831971D01*
X181427215Y-119831968D01*
X181427219Y-119831966D01*
X181571966Y-119687219D01*
X181571968Y-119687215D01*
X181571971Y-119687213D01*
X181624732Y-119614590D01*
X181692287Y-119521610D01*
X181785220Y-119339219D01*
X181848477Y-119144534D01*
X181880500Y-118942352D01*
X181880500Y-118737648D01*
X181862013Y-118620929D01*
X181870967Y-118551637D01*
X181896805Y-118513851D01*
X182408522Y-118002135D01*
X182944114Y-117466543D01*
X183020775Y-117351811D01*
X183022005Y-117348843D01*
X183073578Y-117224332D01*
X183073580Y-117224328D01*
X183084678Y-117168536D01*
X183100500Y-117088996D01*
X183100500Y-97263547D01*
X183120185Y-97196508D01*
X183151614Y-97163230D01*
X183279792Y-97070104D01*
X183430104Y-96919792D01*
X183430106Y-96919788D01*
X183430109Y-96919786D01*
X183555048Y-96747820D01*
X183555047Y-96747820D01*
X183555051Y-96747816D01*
X183651557Y-96558412D01*
X183717246Y-96356243D01*
X183750500Y-96146287D01*
X183750500Y-95933713D01*
X183717246Y-95723757D01*
X183651557Y-95521588D01*
X183555051Y-95332184D01*
X183555049Y-95332181D01*
X183555048Y-95332179D01*
X183430109Y-95160213D01*
X183316569Y-95046673D01*
X183283084Y-94985350D01*
X183288068Y-94915658D01*
X183329940Y-94859725D01*
X183360915Y-94842810D01*
X183492331Y-94793796D01*
X183607546Y-94707546D01*
X183693796Y-94592331D01*
X183744091Y-94457483D01*
X183750500Y-94397873D01*
X183750499Y-93191518D01*
X183770184Y-93124480D01*
X183786818Y-93103838D01*
X184344111Y-92546546D01*
X184344112Y-92546545D01*
X184344112Y-92546544D01*
X184344114Y-92546543D01*
X184420775Y-92431811D01*
X184473580Y-92304328D01*
X184483679Y-92253556D01*
X184500500Y-92168996D01*
X184500500Y-88041006D01*
X184491664Y-87996589D01*
X184491664Y-87996586D01*
X184473581Y-87905679D01*
X184473580Y-87905672D01*
X184457455Y-87866742D01*
X184420777Y-87778192D01*
X184344112Y-87663454D01*
X183336818Y-86656160D01*
X183303333Y-86594837D01*
X183300499Y-86568479D01*
X183300499Y-85612129D01*
X183300498Y-85612123D01*
X183300497Y-85612116D01*
X183294091Y-85552517D01*
X183243796Y-85417669D01*
X183243795Y-85417668D01*
X183243793Y-85417664D01*
X183157547Y-85302455D01*
X183157544Y-85302452D01*
X183042335Y-85216206D01*
X183042328Y-85216202D01*
X182907482Y-85165908D01*
X182907483Y-85165908D01*
X182847883Y-85159501D01*
X182847881Y-85159500D01*
X182847873Y-85159500D01*
X182847864Y-85159500D01*
X181352129Y-85159500D01*
X181352123Y-85159501D01*
X181292516Y-85165908D01*
X181157671Y-85216202D01*
X181157664Y-85216206D01*
X181042455Y-85302452D01*
X181042452Y-85302455D01*
X180956206Y-85417664D01*
X180956202Y-85417671D01*
X180905908Y-85552517D01*
X180901236Y-85595981D01*
X180899501Y-85612123D01*
X180899500Y-85612135D01*
X180899500Y-87207870D01*
X180899501Y-87207876D01*
X180905908Y-87267483D01*
X180956202Y-87402328D01*
X180956206Y-87402335D01*
X181042452Y-87517544D01*
X181042455Y-87517547D01*
X181126861Y-87580734D01*
X181168732Y-87636668D01*
X181173716Y-87706359D01*
X181140230Y-87767682D01*
X181126861Y-87779266D01*
X181042455Y-87842452D01*
X181042452Y-87842455D01*
X180956206Y-87957664D01*
X180956202Y-87957671D01*
X180905910Y-88092513D01*
X180905909Y-88092517D01*
X180900937Y-88138757D01*
X180874201Y-88203306D01*
X180816809Y-88243154D01*
X180777649Y-88249500D01*
X166881004Y-88249500D01*
X166745677Y-88276418D01*
X166745667Y-88276421D01*
X166618192Y-88329222D01*
X166503454Y-88405887D01*
X159811680Y-95097661D01*
X159750357Y-95131146D01*
X159680665Y-95126162D01*
X159624732Y-95084290D01*
X159602477Y-95026975D01*
X159601689Y-95027132D01*
X159600796Y-95022645D01*
X159600596Y-95022129D01*
X159600500Y-95021155D01*
X159576510Y-94900554D01*
X159569737Y-94866503D01*
X159569735Y-94866498D01*
X159509939Y-94722136D01*
X159500500Y-94674684D01*
X159500500Y-86131004D01*
X159473581Y-85995677D01*
X159473580Y-85995676D01*
X159473580Y-85995672D01*
X159451488Y-85942336D01*
X159420778Y-85868195D01*
X159420776Y-85868191D01*
X159420775Y-85868189D01*
X159368013Y-85789225D01*
X159344114Y-85753457D01*
X159344112Y-85753454D01*
X159344109Y-85753451D01*
X156402838Y-82812181D01*
X156369353Y-82750858D01*
X156374337Y-82681166D01*
X156416209Y-82625233D01*
X156481673Y-82600816D01*
X156490519Y-82600500D01*
X187175500Y-82600500D01*
X187242539Y-82620185D01*
G37*
%TD.AperFunction*%
%TA.AperFunction,NonConductor*%
G36*
X136384926Y-82939392D02*
G01*
X136428117Y-82994313D01*
X136437000Y-83040400D01*
X136437000Y-85868506D01*
X136437000Y-86006494D01*
X136437000Y-86006496D01*
X136436999Y-86006496D01*
X136463918Y-86141822D01*
X136463921Y-86141832D01*
X136516722Y-86269307D01*
X136593387Y-86384045D01*
X138319073Y-88109731D01*
X138352558Y-88171054D01*
X138347574Y-88240746D01*
X138305702Y-88296679D01*
X138240238Y-88321096D01*
X138175097Y-88307897D01*
X138153080Y-88296679D01*
X138074352Y-88256564D01*
X138058414Y-88248444D01*
X138058413Y-88248443D01*
X138058412Y-88248443D01*
X137856243Y-88182754D01*
X137856241Y-88182753D01*
X137856240Y-88182753D01*
X137694957Y-88157208D01*
X137646287Y-88149500D01*
X137433713Y-88149500D01*
X137385042Y-88157208D01*
X137223760Y-88182753D01*
X137021585Y-88248444D01*
X136832179Y-88344951D01*
X136660213Y-88469890D01*
X136509890Y-88620213D01*
X136384949Y-88792182D01*
X136380484Y-88800946D01*
X136332509Y-88851742D01*
X136264688Y-88868536D01*
X136198553Y-88845998D01*
X136159516Y-88800946D01*
X136155050Y-88792182D01*
X136030109Y-88620213D01*
X135879786Y-88469890D01*
X135707820Y-88344951D01*
X135518414Y-88248444D01*
X135518413Y-88248443D01*
X135518412Y-88248443D01*
X135316243Y-88182754D01*
X135316241Y-88182753D01*
X135316240Y-88182753D01*
X135154957Y-88157208D01*
X135106287Y-88149500D01*
X134893713Y-88149500D01*
X134845042Y-88157208D01*
X134683760Y-88182753D01*
X134481585Y-88248444D01*
X134292179Y-88344951D01*
X134120213Y-88469890D01*
X133969890Y-88620213D01*
X133844951Y-88792179D01*
X133748444Y-88981585D01*
X133682753Y-89183760D01*
X133649500Y-89393713D01*
X133649500Y-89606286D01*
X133681366Y-89807483D01*
X133682754Y-89816243D01*
X133739906Y-89992139D01*
X133748444Y-90018414D01*
X133844951Y-90207820D01*
X133969890Y-90379786D01*
X134120213Y-90530109D01*
X134292182Y-90655050D01*
X134300946Y-90659516D01*
X134351742Y-90707491D01*
X134368536Y-90775312D01*
X134345998Y-90841447D01*
X134300946Y-90880484D01*
X134292182Y-90884949D01*
X134120213Y-91009890D01*
X133969890Y-91160213D01*
X133844951Y-91332179D01*
X133748444Y-91521585D01*
X133682753Y-91723760D01*
X133674129Y-91778211D01*
X133649500Y-91933713D01*
X133649500Y-92146287D01*
X133653097Y-92168996D01*
X133682053Y-92351821D01*
X133682754Y-92356243D01*
X133744587Y-92546546D01*
X133748444Y-92558414D01*
X133844951Y-92747820D01*
X133969890Y-92919786D01*
X134120213Y-93070109D01*
X134292182Y-93195050D01*
X134300946Y-93199516D01*
X134351742Y-93247491D01*
X134368536Y-93315312D01*
X134345998Y-93381447D01*
X134300946Y-93420484D01*
X134292182Y-93424949D01*
X134120213Y-93549890D01*
X133969890Y-93700213D01*
X133844951Y-93872179D01*
X133748444Y-94061585D01*
X133682753Y-94263760D01*
X133657136Y-94425501D01*
X133649500Y-94473713D01*
X133649500Y-94686287D01*
X133652867Y-94707544D01*
X133678044Y-94866510D01*
X133682754Y-94896243D01*
X133743854Y-95084290D01*
X133748444Y-95098414D01*
X133844951Y-95287820D01*
X133969890Y-95459786D01*
X134120213Y-95610109D01*
X134292182Y-95735050D01*
X134300946Y-95739516D01*
X134351742Y-95787491D01*
X134368536Y-95855312D01*
X134345998Y-95921447D01*
X134300946Y-95960484D01*
X134292182Y-95964949D01*
X134120213Y-96089890D01*
X133969890Y-96240213D01*
X133844951Y-96412179D01*
X133748444Y-96601585D01*
X133682753Y-96803760D01*
X133650042Y-97010288D01*
X133649500Y-97013713D01*
X133649500Y-97226287D01*
X133659534Y-97289644D01*
X133681924Y-97431006D01*
X133682754Y-97436243D01*
X133748442Y-97638410D01*
X133748444Y-97638414D01*
X133844951Y-97827820D01*
X133969890Y-97999786D01*
X134120213Y-98150109D01*
X134292179Y-98275048D01*
X134292181Y-98275049D01*
X134292184Y-98275051D01*
X134481588Y-98371557D01*
X134683757Y-98437246D01*
X134893713Y-98470500D01*
X134893714Y-98470500D01*
X135106286Y-98470500D01*
X135106287Y-98470500D01*
X135262771Y-98445715D01*
X135332064Y-98454670D01*
X135369850Y-98480507D01*
X138177162Y-101287819D01*
X138210647Y-101349142D01*
X138205663Y-101418834D01*
X138163791Y-101474767D01*
X138098327Y-101499184D01*
X138089481Y-101499500D01*
X128631004Y-101499500D01*
X128495677Y-101526418D01*
X128495667Y-101526421D01*
X128368192Y-101579222D01*
X128253454Y-101655887D01*
X113496160Y-116413181D01*
X113434837Y-116446666D01*
X113408479Y-116449500D01*
X112202129Y-116449500D01*
X112202123Y-116449501D01*
X112142516Y-116455908D01*
X112007671Y-116506202D01*
X112007664Y-116506206D01*
X111892455Y-116592452D01*
X111892452Y-116592455D01*
X111806206Y-116707664D01*
X111806202Y-116707671D01*
X111755908Y-116842517D01*
X111749501Y-116902116D01*
X111749500Y-116902135D01*
X111749500Y-118697870D01*
X111749501Y-118697876D01*
X111755908Y-118757483D01*
X111806202Y-118892328D01*
X111806206Y-118892335D01*
X111892452Y-119007544D01*
X111892455Y-119007547D01*
X112007664Y-119093793D01*
X112007671Y-119093797D01*
X112142517Y-119144091D01*
X112142516Y-119144091D01*
X112149444Y-119144835D01*
X112202127Y-119150500D01*
X113997872Y-119150499D01*
X114057483Y-119144091D01*
X114192331Y-119093796D01*
X114307546Y-119007546D01*
X114393796Y-118892331D01*
X114442810Y-118760916D01*
X114484681Y-118704984D01*
X114550145Y-118680566D01*
X114618418Y-118695417D01*
X114646673Y-118716569D01*
X114760213Y-118830109D01*
X114932179Y-118955048D01*
X114932181Y-118955049D01*
X114932184Y-118955051D01*
X115121588Y-119051557D01*
X115323757Y-119117246D01*
X115533713Y-119150500D01*
X115533714Y-119150500D01*
X115746286Y-119150500D01*
X115746287Y-119150500D01*
X115956243Y-119117246D01*
X116158412Y-119051557D01*
X116347816Y-118955051D01*
X116434138Y-118892335D01*
X116519786Y-118830109D01*
X116519788Y-118830106D01*
X116519792Y-118830104D01*
X116670104Y-118679792D01*
X116670106Y-118679788D01*
X116670109Y-118679786D01*
X116795048Y-118507820D01*
X116795047Y-118507820D01*
X116795051Y-118507816D01*
X116799514Y-118499054D01*
X116847488Y-118448259D01*
X116915308Y-118431463D01*
X116981444Y-118453999D01*
X117020486Y-118499056D01*
X117024951Y-118507820D01*
X117149890Y-118679786D01*
X117300213Y-118830109D01*
X117472179Y-118955048D01*
X117472181Y-118955049D01*
X117472184Y-118955051D01*
X117661588Y-119051557D01*
X117863757Y-119117246D01*
X118073713Y-119150500D01*
X118073714Y-119150500D01*
X118286286Y-119150500D01*
X118286287Y-119150500D01*
X118496243Y-119117246D01*
X118698412Y-119051557D01*
X118887816Y-118955051D01*
X118974138Y-118892335D01*
X119059786Y-118830109D01*
X119059788Y-118830106D01*
X119059792Y-118830104D01*
X119210104Y-118679792D01*
X119210106Y-118679788D01*
X119210109Y-118679786D01*
X119335048Y-118507820D01*
X119335047Y-118507820D01*
X119335051Y-118507816D01*
X119339514Y-118499054D01*
X119387488Y-118448259D01*
X119455308Y-118431463D01*
X119521444Y-118453999D01*
X119560486Y-118499056D01*
X119564951Y-118507820D01*
X119689890Y-118679786D01*
X119840213Y-118830109D01*
X120012179Y-118955048D01*
X120012181Y-118955049D01*
X120012184Y-118955051D01*
X120201588Y-119051557D01*
X120403757Y-119117246D01*
X120613713Y-119150500D01*
X120613714Y-119150500D01*
X120826286Y-119150500D01*
X120826287Y-119150500D01*
X121036243Y-119117246D01*
X121238412Y-119051557D01*
X121427816Y-118955051D01*
X121514138Y-118892335D01*
X121599786Y-118830109D01*
X121599788Y-118830106D01*
X121599792Y-118830104D01*
X121750104Y-118679792D01*
X121750106Y-118679788D01*
X121750109Y-118679786D01*
X121875048Y-118507820D01*
X121875047Y-118507820D01*
X121875051Y-118507816D01*
X121879514Y-118499054D01*
X121927488Y-118448259D01*
X121995308Y-118431463D01*
X122061444Y-118453999D01*
X122100486Y-118499056D01*
X122104951Y-118507820D01*
X122229890Y-118679786D01*
X122380213Y-118830109D01*
X122552179Y-118955048D01*
X122552181Y-118955049D01*
X122552184Y-118955051D01*
X122741588Y-119051557D01*
X122943757Y-119117246D01*
X123153713Y-119150500D01*
X123153714Y-119150500D01*
X123366286Y-119150500D01*
X123366287Y-119150500D01*
X123576243Y-119117246D01*
X123778412Y-119051557D01*
X123967816Y-118955051D01*
X124054138Y-118892335D01*
X124139786Y-118830109D01*
X124139788Y-118830106D01*
X124139792Y-118830104D01*
X124290104Y-118679792D01*
X124290106Y-118679788D01*
X124290109Y-118679786D01*
X124415048Y-118507820D01*
X124415047Y-118507820D01*
X124415051Y-118507816D01*
X124419514Y-118499054D01*
X124467488Y-118448259D01*
X124535308Y-118431463D01*
X124601444Y-118453999D01*
X124640486Y-118499056D01*
X124644951Y-118507820D01*
X124769890Y-118679786D01*
X124920213Y-118830109D01*
X125092179Y-118955048D01*
X125092181Y-118955049D01*
X125092184Y-118955051D01*
X125281588Y-119051557D01*
X125483757Y-119117246D01*
X125693713Y-119150500D01*
X125693714Y-119150500D01*
X125906286Y-119150500D01*
X125906287Y-119150500D01*
X126116243Y-119117246D01*
X126318412Y-119051557D01*
X126507816Y-118955051D01*
X126594138Y-118892335D01*
X126679786Y-118830109D01*
X126679788Y-118830106D01*
X126679792Y-118830104D01*
X126830104Y-118679792D01*
X126830106Y-118679788D01*
X126830109Y-118679786D01*
X126955048Y-118507820D01*
X126955047Y-118507820D01*
X126955051Y-118507816D01*
X126959514Y-118499054D01*
X127007488Y-118448259D01*
X127075308Y-118431463D01*
X127141444Y-118453999D01*
X127180486Y-118499056D01*
X127184951Y-118507820D01*
X127309890Y-118679786D01*
X127460213Y-118830109D01*
X127632179Y-118955048D01*
X127632181Y-118955049D01*
X127632184Y-118955051D01*
X127821588Y-119051557D01*
X128023757Y-119117246D01*
X128233713Y-119150500D01*
X128233714Y-119150500D01*
X128446286Y-119150500D01*
X128446287Y-119150500D01*
X128656243Y-119117246D01*
X128858412Y-119051557D01*
X129047816Y-118955051D01*
X129134138Y-118892335D01*
X129219786Y-118830109D01*
X129219788Y-118830106D01*
X129219792Y-118830104D01*
X129370104Y-118679792D01*
X129370106Y-118679788D01*
X129370109Y-118679786D01*
X129495048Y-118507820D01*
X129495047Y-118507820D01*
X129495051Y-118507816D01*
X129499514Y-118499054D01*
X129547488Y-118448259D01*
X129615308Y-118431463D01*
X129681444Y-118453999D01*
X129720486Y-118499056D01*
X129724951Y-118507820D01*
X129849890Y-118679786D01*
X130000213Y-118830109D01*
X130172179Y-118955048D01*
X130172181Y-118955049D01*
X130172184Y-118955051D01*
X130361588Y-119051557D01*
X130563757Y-119117246D01*
X130773713Y-119150500D01*
X130773714Y-119150500D01*
X130986286Y-119150500D01*
X130986287Y-119150500D01*
X131196243Y-119117246D01*
X131398412Y-119051557D01*
X131587816Y-118955051D01*
X131674138Y-118892335D01*
X131759786Y-118830109D01*
X131759788Y-118830106D01*
X131759792Y-118830104D01*
X131910104Y-118679792D01*
X131910106Y-118679788D01*
X131910109Y-118679786D01*
X132035048Y-118507820D01*
X132035047Y-118507820D01*
X132035051Y-118507816D01*
X132039514Y-118499054D01*
X132087488Y-118448259D01*
X132155308Y-118431463D01*
X132221444Y-118453999D01*
X132260486Y-118499056D01*
X132264951Y-118507820D01*
X132389890Y-118679786D01*
X132540213Y-118830109D01*
X132712179Y-118955048D01*
X132712181Y-118955049D01*
X132712184Y-118955051D01*
X132901588Y-119051557D01*
X133103757Y-119117246D01*
X133313713Y-119150500D01*
X133313714Y-119150500D01*
X133526286Y-119150500D01*
X133526287Y-119150500D01*
X133736243Y-119117246D01*
X133938412Y-119051557D01*
X134127816Y-118955051D01*
X134214138Y-118892335D01*
X134299786Y-118830109D01*
X134299788Y-118830106D01*
X134299792Y-118830104D01*
X134450104Y-118679792D01*
X134450106Y-118679788D01*
X134450109Y-118679786D01*
X134575048Y-118507820D01*
X134575047Y-118507820D01*
X134575051Y-118507816D01*
X134579514Y-118499054D01*
X134627488Y-118448259D01*
X134695308Y-118431463D01*
X134761444Y-118453999D01*
X134800486Y-118499056D01*
X134804951Y-118507820D01*
X134929890Y-118679786D01*
X135080213Y-118830109D01*
X135252179Y-118955048D01*
X135252181Y-118955049D01*
X135252184Y-118955051D01*
X135441588Y-119051557D01*
X135643757Y-119117246D01*
X135853713Y-119150500D01*
X135853714Y-119150500D01*
X136066286Y-119150500D01*
X136066287Y-119150500D01*
X136276243Y-119117246D01*
X136478412Y-119051557D01*
X136550867Y-119014638D01*
X136619534Y-119001742D01*
X136684275Y-119028018D01*
X136694842Y-119037442D01*
X138445221Y-120787819D01*
X138478706Y-120849142D01*
X138473722Y-120918833D01*
X138431850Y-120974767D01*
X138366386Y-120999184D01*
X138357540Y-120999500D01*
X109724500Y-120999500D01*
X109657461Y-120979815D01*
X109611706Y-120927011D01*
X109600500Y-120875500D01*
X109600500Y-104934110D01*
X109600500Y-104934108D01*
X109566392Y-104806814D01*
X109500500Y-104692686D01*
X109407314Y-104599500D01*
X109350250Y-104566554D01*
X109293187Y-104533608D01*
X109195674Y-104507480D01*
X109165892Y-104499500D01*
X109165891Y-104499500D01*
X108711841Y-104499500D01*
X108644802Y-104479815D01*
X108599047Y-104427011D01*
X108589103Y-104357853D01*
X108618128Y-104294297D01*
X108624160Y-104287819D01*
X108657969Y-104254009D01*
X108657974Y-104254004D01*
X108833575Y-104025156D01*
X108977804Y-103775345D01*
X108980128Y-103769736D01*
X109088185Y-103508860D01*
X109088185Y-103508857D01*
X109088191Y-103508845D01*
X109162849Y-103230217D01*
X109200500Y-102944228D01*
X109200500Y-102655772D01*
X109162849Y-102369783D01*
X109088191Y-102091155D01*
X109088186Y-102091145D01*
X109088185Y-102091139D01*
X108977808Y-101824663D01*
X108977800Y-101824647D01*
X108833579Y-101574851D01*
X108833575Y-101574844D01*
X108732054Y-101442539D01*
X108657975Y-101345997D01*
X108657969Y-101345990D01*
X108524160Y-101212181D01*
X108490675Y-101150858D01*
X108495659Y-101081166D01*
X108537531Y-101025233D01*
X108602995Y-101000816D01*
X108611841Y-101000500D01*
X109165890Y-101000500D01*
X109165892Y-101000500D01*
X109293186Y-100966392D01*
X109407314Y-100900500D01*
X109500500Y-100807314D01*
X109566392Y-100693186D01*
X109600500Y-100565892D01*
X109600500Y-83124500D01*
X109620185Y-83057461D01*
X109672989Y-83011706D01*
X109724500Y-83000500D01*
X136065890Y-83000500D01*
X136065892Y-83000500D01*
X136193186Y-82966392D01*
X136251000Y-82933012D01*
X136318899Y-82916540D01*
X136384926Y-82939392D01*
G37*
%TD.AperFunction*%
M02*
