M48
; DRILL file {KiCad 9.0.2} date 2025-07-30T22:52:31+0530
; FORMAT={-:-/ absolute / metric / decimal}
; #@! TF.CreationDate,2025-07-30T22:52:31+05:30
; #@! TF.GenerationSoftware,Kicad,Pcbnew,9.0.2
; #@! TF.FileFunction,Plated,1,2,PTH
FMAT,2
METRIC
; #@! TA.AperFunction,Plated,PTH,ViaDrill
T1C0.300
; #@! TA.AperFunction,Plated,PTH,ComponentDrill
T2C0.800
; #@! TA.AperFunction,Plated,PTH,ComponentDrill
T3C0.900
; #@! TA.AperFunction,Plated,PTH,ComponentDrill
T4C1.000
; #@! TA.AperFunction,Plated,PTH,ComponentDrill
T5C1.100
%
G90
G05
T1
X134.8Y-103.0
X137.9Y-103.5
X140.7Y-99.1
X140.7Y-114.1
X142.2Y-89.2
X142.2Y-92.4
X143.2Y-103.4
X143.752Y-109.7
X144.3Y-102.3
X145.445Y-93.255
X145.8Y-96.0
X145.9Y-100.8
X147.0Y-95.8
X147.1Y-93.8
X147.2Y-96.8
X148.3Y-101.9
X148.653Y-109.7
X148.7Y-88.0
X149.2Y-114.1
X149.4Y-89.0
X149.95Y-102.95
X150.7Y-104.9
X151.39Y-96.5
X153.1Y-80.1
X153.3Y-100.1
X153.486Y-95.837
X154.338Y-99.288
X156.3Y-98.4
X157.8Y-106.1
X158.0Y-99.1
X158.8Y-95.1
X159.952Y-100.8
X162.6Y-106.5
X162.8Y-100.0
X163.2Y-107.6
T2
X152.64Y-103.6
X152.64Y-118.84
X155.18Y-103.6
X155.18Y-118.84
X157.72Y-103.6
X157.72Y-118.84
X160.26Y-103.6
X160.26Y-118.84
X162.8Y-103.6
X162.8Y-118.84
X165.34Y-103.6
X165.34Y-118.84
X167.88Y-103.6
X167.88Y-118.84
X170.42Y-103.6
X170.42Y-118.84
X172.96Y-103.6
X172.96Y-118.84
X175.5Y-103.6
X175.5Y-118.84
X178.04Y-103.6
X178.04Y-118.84
X180.58Y-103.6
X180.58Y-118.84
T3
X142.095Y-79.7
X144.095Y-79.7
X146.095Y-79.7
X148.095Y-79.7
T4
X113.1Y-117.8
X115.64Y-117.8
X118.18Y-117.8
X120.72Y-117.8
X123.26Y-117.8
X125.8Y-117.8
X128.34Y-117.8
X130.88Y-117.8
X133.42Y-117.8
X135.0Y-89.5
X135.0Y-92.04
X135.0Y-94.58
X135.0Y-97.12
X135.96Y-117.8
X137.54Y-89.5
X137.54Y-92.04
X137.54Y-94.58
X137.54Y-97.12
X152.31Y-85.975
X152.31Y-88.515
X152.31Y-91.055
X152.31Y-93.595
X154.85Y-85.975
X154.85Y-88.515
X154.85Y-91.055
X154.85Y-93.595
X182.4Y-93.5
X182.4Y-96.04
T5
X142.46Y-106.83
X145.0Y-106.83
X147.54Y-106.83
M30
