%TF.GenerationSoftware,KiCad,Pcbnew,9.0.2*%
%TF.CreationDate,2025-07-30T22:52:36+05:30*%
%TF.ProjectId,VoidLens VR PCB,566f6964-4c65-46e7-9320-565220504342,rev?*%
%TF.SameCoordinates,Original*%
%TF.FileFunction,Profile,NP*%
%FSLAX46Y46*%
G04 Gerber Fmt 4.6, Leading zero omitted, Abs format (unit mm)*
G04 Created by KiCad (PCBNEW 9.0.2) date 2025-07-30 22:52:36*
%MOMM*%
%LPD*%
G01*
G04 APERTURE LIST*
%TA.AperFunction,Profile*%
%ADD10C,0.050000*%
%TD*%
G04 APERTURE END LIST*
D10*
X154400000Y-82100000D02*
X154400000Y-76000000D01*
X192800000Y-100500000D02*
X192800000Y-105000000D01*
X136000000Y-82400000D02*
X136000000Y-76000000D01*
X136000000Y-82400000D02*
X136000000Y-82500000D01*
X104600000Y-105000000D02*
X109100000Y-105000000D01*
X153400000Y-76000000D02*
X153200000Y-76000000D01*
X187800000Y-120900000D02*
X187800000Y-121500000D01*
X108700000Y-102800000D02*
G75*
G02*
X105300000Y-102800000I-1700000J0D01*
G01*
X105300000Y-102800000D02*
G75*
G02*
X108700000Y-102800000I1700000J0D01*
G01*
X187800000Y-82100000D02*
X187800000Y-100500000D01*
X109100000Y-121100000D02*
X109100000Y-121500000D01*
X154400000Y-76000000D02*
X153400000Y-76000000D01*
X187800000Y-100500000D02*
X192800000Y-100500000D01*
X109100000Y-82500000D02*
X109100000Y-100500000D01*
X109100000Y-100500000D02*
X104600000Y-100500000D01*
X109100000Y-105000000D02*
X109100000Y-121100000D01*
X154400000Y-82100000D02*
X187800000Y-82100000D01*
X109100000Y-82500000D02*
X134200000Y-82500000D01*
X104600000Y-100500000D02*
X104600000Y-105000000D01*
X187800000Y-105000000D02*
X187800000Y-120900000D01*
X192100000Y-102800000D02*
G75*
G02*
X188700000Y-102800000I-1700000J0D01*
G01*
X188700000Y-102800000D02*
G75*
G02*
X192100000Y-102800000I1700000J0D01*
G01*
X109100000Y-121500000D02*
X187800000Y-121500000D01*
X136000000Y-82500000D02*
X134200000Y-82500000D01*
X192800000Y-105000000D02*
X187800000Y-105000000D01*
X136500000Y-76000000D02*
X136000000Y-76000000D01*
X136500000Y-76000000D02*
X153200000Y-76000000D01*
M02*
