%TF.GenerationSoftware,KiCad,Pcbnew,9.0.2*%
%TF.CreationDate,2025-07-30T22:52:36+05:30*%
%TF.ProjectId,VoidLens VR PCB,566f6964-4c65-46e7-9320-565220504342,rev?*%
%TF.SameCoordinates,Original*%
%TF.FileFunction,Legend,Bot*%
%TF.FilePolarity,Positive*%
%FSLAX46Y46*%
G04 Gerber Fmt 4.6, Leading zero omitted, Abs format (unit mm)*
G04 Created by KiCad (PCBNEW 9.0.2) date 2025-07-30 22:52:36*
%MOMM*%
%LPD*%
G01*
G04 APERTURE LIST*
%ADD10C,0.400000*%
%ADD11C,0.000000*%
G04 APERTURE END LIST*
D10*
X146403509Y-100789676D02*
X145236843Y-104789676D01*
X145236843Y-104789676D02*
X144070176Y-100789676D01*
X142403509Y-104789676D02*
X142736843Y-104599200D01*
X142736843Y-104599200D02*
X142903509Y-104408723D01*
X142903509Y-104408723D02*
X143070176Y-104027771D01*
X143070176Y-104027771D02*
X143070176Y-102884914D01*
X143070176Y-102884914D02*
X142903509Y-102503961D01*
X142903509Y-102503961D02*
X142736843Y-102313485D01*
X142736843Y-102313485D02*
X142403509Y-102123009D01*
X142403509Y-102123009D02*
X141903509Y-102123009D01*
X141903509Y-102123009D02*
X141570176Y-102313485D01*
X141570176Y-102313485D02*
X141403509Y-102503961D01*
X141403509Y-102503961D02*
X141236843Y-102884914D01*
X141236843Y-102884914D02*
X141236843Y-104027771D01*
X141236843Y-104027771D02*
X141403509Y-104408723D01*
X141403509Y-104408723D02*
X141570176Y-104599200D01*
X141570176Y-104599200D02*
X141903509Y-104789676D01*
X141903509Y-104789676D02*
X142403509Y-104789676D01*
X139736842Y-104789676D02*
X139736842Y-102123009D01*
X139736842Y-100789676D02*
X139903509Y-100980152D01*
X139903509Y-100980152D02*
X139736842Y-101170628D01*
X139736842Y-101170628D02*
X139570176Y-100980152D01*
X139570176Y-100980152D02*
X139736842Y-100789676D01*
X139736842Y-100789676D02*
X139736842Y-101170628D01*
X136570175Y-104789676D02*
X136570175Y-100789676D01*
X136570175Y-104599200D02*
X136903509Y-104789676D01*
X136903509Y-104789676D02*
X137570175Y-104789676D01*
X137570175Y-104789676D02*
X137903509Y-104599200D01*
X137903509Y-104599200D02*
X138070175Y-104408723D01*
X138070175Y-104408723D02*
X138236842Y-104027771D01*
X138236842Y-104027771D02*
X138236842Y-102884914D01*
X138236842Y-102884914D02*
X138070175Y-102503961D01*
X138070175Y-102503961D02*
X137903509Y-102313485D01*
X137903509Y-102313485D02*
X137570175Y-102123009D01*
X137570175Y-102123009D02*
X136903509Y-102123009D01*
X136903509Y-102123009D02*
X136570175Y-102313485D01*
X133236842Y-104789676D02*
X134903508Y-104789676D01*
X134903508Y-104789676D02*
X134903508Y-100789676D01*
X130736842Y-104599200D02*
X131070175Y-104789676D01*
X131070175Y-104789676D02*
X131736842Y-104789676D01*
X131736842Y-104789676D02*
X132070175Y-104599200D01*
X132070175Y-104599200D02*
X132236842Y-104218247D01*
X132236842Y-104218247D02*
X132236842Y-102694438D01*
X132236842Y-102694438D02*
X132070175Y-102313485D01*
X132070175Y-102313485D02*
X131736842Y-102123009D01*
X131736842Y-102123009D02*
X131070175Y-102123009D01*
X131070175Y-102123009D02*
X130736842Y-102313485D01*
X130736842Y-102313485D02*
X130570175Y-102694438D01*
X130570175Y-102694438D02*
X130570175Y-103075390D01*
X130570175Y-103075390D02*
X132236842Y-103456342D01*
X129070175Y-102123009D02*
X129070175Y-104789676D01*
X129070175Y-102503961D02*
X128903509Y-102313485D01*
X128903509Y-102313485D02*
X128570175Y-102123009D01*
X128570175Y-102123009D02*
X128070175Y-102123009D01*
X128070175Y-102123009D02*
X127736842Y-102313485D01*
X127736842Y-102313485D02*
X127570175Y-102694438D01*
X127570175Y-102694438D02*
X127570175Y-104789676D01*
X126070175Y-104599200D02*
X125736842Y-104789676D01*
X125736842Y-104789676D02*
X125070175Y-104789676D01*
X125070175Y-104789676D02*
X124736842Y-104599200D01*
X124736842Y-104599200D02*
X124570175Y-104218247D01*
X124570175Y-104218247D02*
X124570175Y-104027771D01*
X124570175Y-104027771D02*
X124736842Y-103646819D01*
X124736842Y-103646819D02*
X125070175Y-103456342D01*
X125070175Y-103456342D02*
X125570175Y-103456342D01*
X125570175Y-103456342D02*
X125903508Y-103265866D01*
X125903508Y-103265866D02*
X126070175Y-102884914D01*
X126070175Y-102884914D02*
X126070175Y-102694438D01*
X126070175Y-102694438D02*
X125903508Y-102313485D01*
X125903508Y-102313485D02*
X125570175Y-102123009D01*
X125570175Y-102123009D02*
X125070175Y-102123009D01*
X125070175Y-102123009D02*
X124736842Y-102313485D01*
X120403508Y-104789676D02*
X120403508Y-100789676D01*
X120403508Y-100789676D02*
X119070175Y-100789676D01*
X119070175Y-100789676D02*
X118736842Y-100980152D01*
X118736842Y-100980152D02*
X118570175Y-101170628D01*
X118570175Y-101170628D02*
X118403508Y-101551580D01*
X118403508Y-101551580D02*
X118403508Y-102123009D01*
X118403508Y-102123009D02*
X118570175Y-102503961D01*
X118570175Y-102503961D02*
X118736842Y-102694438D01*
X118736842Y-102694438D02*
X119070175Y-102884914D01*
X119070175Y-102884914D02*
X120403508Y-102884914D01*
X114903508Y-104408723D02*
X115070175Y-104599200D01*
X115070175Y-104599200D02*
X115570175Y-104789676D01*
X115570175Y-104789676D02*
X115903508Y-104789676D01*
X115903508Y-104789676D02*
X116403508Y-104599200D01*
X116403508Y-104599200D02*
X116736842Y-104218247D01*
X116736842Y-104218247D02*
X116903508Y-103837295D01*
X116903508Y-103837295D02*
X117070175Y-103075390D01*
X117070175Y-103075390D02*
X117070175Y-102503961D01*
X117070175Y-102503961D02*
X116903508Y-101742057D01*
X116903508Y-101742057D02*
X116736842Y-101361104D01*
X116736842Y-101361104D02*
X116403508Y-100980152D01*
X116403508Y-100980152D02*
X115903508Y-100789676D01*
X115903508Y-100789676D02*
X115570175Y-100789676D01*
X115570175Y-100789676D02*
X115070175Y-100980152D01*
X115070175Y-100980152D02*
X114903508Y-101170628D01*
X112236842Y-102694438D02*
X111736842Y-102884914D01*
X111736842Y-102884914D02*
X111570175Y-103075390D01*
X111570175Y-103075390D02*
X111403508Y-103456342D01*
X111403508Y-103456342D02*
X111403508Y-104027771D01*
X111403508Y-104027771D02*
X111570175Y-104408723D01*
X111570175Y-104408723D02*
X111736842Y-104599200D01*
X111736842Y-104599200D02*
X112070175Y-104789676D01*
X112070175Y-104789676D02*
X113403508Y-104789676D01*
X113403508Y-104789676D02*
X113403508Y-100789676D01*
X113403508Y-100789676D02*
X112236842Y-100789676D01*
X112236842Y-100789676D02*
X111903508Y-100980152D01*
X111903508Y-100980152D02*
X111736842Y-101170628D01*
X111736842Y-101170628D02*
X111570175Y-101551580D01*
X111570175Y-101551580D02*
X111570175Y-101932533D01*
X111570175Y-101932533D02*
X111736842Y-102313485D01*
X111736842Y-102313485D02*
X111903508Y-102503961D01*
X111903508Y-102503961D02*
X112236842Y-102694438D01*
X112236842Y-102694438D02*
X113403508Y-102694438D01*
D11*
%TO.C,G\u002A\u002A\u002A*%
G36*
X174416430Y-90146754D02*
G01*
X174418857Y-90156844D01*
X174685307Y-91374306D01*
X174910602Y-92642918D01*
X175095568Y-93972071D01*
X175241028Y-95371153D01*
X175347808Y-96849554D01*
X175416731Y-98416664D01*
X175448622Y-100081872D01*
X175444306Y-101854567D01*
X175431742Y-102892547D01*
X175008724Y-102159855D01*
X174965228Y-102084517D01*
X174819664Y-101832388D01*
X174625836Y-101496658D01*
X174392821Y-101093052D01*
X174129701Y-100637298D01*
X173845555Y-100145124D01*
X173549463Y-99632256D01*
X173250504Y-99114421D01*
X171915302Y-96801680D01*
X170971954Y-96207472D01*
X170406743Y-95855761D01*
X168988789Y-95010464D01*
X167569725Y-94216004D01*
X166159033Y-93476558D01*
X164766194Y-92796304D01*
X163400689Y-92179416D01*
X162071999Y-91630072D01*
X160789606Y-91152448D01*
X159562989Y-90750721D01*
X158401631Y-90429066D01*
X157315012Y-90191660D01*
X157245777Y-90179076D01*
X156814053Y-90109777D01*
X156351760Y-90048843D01*
X155884031Y-89998443D01*
X155436001Y-89960744D01*
X155032801Y-89937914D01*
X154699565Y-89932121D01*
X154461427Y-89945532D01*
X154153606Y-89985630D01*
X154518041Y-89615892D01*
X154882476Y-89246153D01*
X164541028Y-89246153D01*
X174199580Y-89246153D01*
X174416430Y-90146754D01*
G37*
G36*
X160199511Y-104999417D02*
G01*
X160276803Y-105124111D01*
X160405168Y-105338070D01*
X160579143Y-105631993D01*
X160793270Y-105996574D01*
X161042087Y-106422510D01*
X161320133Y-106900498D01*
X161621948Y-107421234D01*
X161942071Y-107975413D01*
X163685824Y-110999028D01*
X164628609Y-111592881D01*
X165194810Y-111945198D01*
X166612530Y-112790312D01*
X168031389Y-113584611D01*
X169441900Y-114323919D01*
X170834578Y-115004057D01*
X172199939Y-115620846D01*
X173528496Y-116170110D01*
X174810765Y-116647669D01*
X176037261Y-117049346D01*
X177198497Y-117370961D01*
X178284989Y-117608338D01*
X178354224Y-117620923D01*
X178785948Y-117690222D01*
X179248241Y-117751155D01*
X179715970Y-117801555D01*
X180164001Y-117839254D01*
X180567200Y-117862084D01*
X180900436Y-117867878D01*
X181138574Y-117854467D01*
X181446395Y-117814368D01*
X181081960Y-118184107D01*
X180717525Y-118553846D01*
X171058973Y-118553846D01*
X161400421Y-118553846D01*
X161183572Y-117653245D01*
X161113386Y-117355585D01*
X160900902Y-116361821D01*
X160717850Y-115344243D01*
X160561574Y-114283404D01*
X160429418Y-113159861D01*
X160318727Y-111954166D01*
X160226846Y-110646874D01*
X160226318Y-110638133D01*
X160214709Y-110392780D01*
X160203758Y-110065280D01*
X160193589Y-109670221D01*
X160184329Y-109222191D01*
X160176101Y-108735780D01*
X160169032Y-108225575D01*
X160163246Y-107706165D01*
X160158868Y-107192139D01*
X160156023Y-106698085D01*
X160154837Y-106238592D01*
X160155435Y-105828247D01*
X160157942Y-105481640D01*
X160162482Y-105213360D01*
X160169181Y-105037994D01*
X160178164Y-104970131D01*
X160199511Y-104999417D01*
G37*
G36*
X186743186Y-99219269D02*
G01*
X186788751Y-99377800D01*
X186846717Y-99625936D01*
X186899117Y-99866625D01*
X186969272Y-100227195D01*
X187038064Y-100616023D01*
X187096149Y-100982294D01*
X187128943Y-101215231D01*
X187275725Y-102746592D01*
X187304302Y-104272441D01*
X187216576Y-105786207D01*
X187014449Y-107281317D01*
X186699822Y-108751200D01*
X186274596Y-110189284D01*
X185740673Y-111588996D01*
X185099956Y-112943766D01*
X184354345Y-114247020D01*
X183505741Y-115492189D01*
X182556048Y-116672698D01*
X182435360Y-116809225D01*
X182270899Y-116982203D01*
X182145403Y-117087385D01*
X182035681Y-117142720D01*
X181918541Y-117166160D01*
X181868531Y-117170201D01*
X181681781Y-117179265D01*
X181413495Y-117187796D01*
X181091653Y-117194987D01*
X180744231Y-117200031D01*
X180161638Y-117192783D01*
X179459824Y-117146199D01*
X178743575Y-117054949D01*
X177994738Y-116915566D01*
X177195158Y-116724584D01*
X176326682Y-116478535D01*
X175371154Y-116173953D01*
X175291431Y-116147267D01*
X173857580Y-115629075D01*
X172386180Y-115025309D01*
X170870918Y-114332949D01*
X169305477Y-113548978D01*
X167683543Y-112670376D01*
X165998799Y-111694125D01*
X164960818Y-111074278D01*
X168441106Y-111043749D01*
X171921395Y-111013221D01*
X173201807Y-110320132D01*
X174357029Y-109679165D01*
X175716031Y-108885116D01*
X177040554Y-108068250D01*
X178313911Y-107239477D01*
X179519413Y-106409707D01*
X180640371Y-105589848D01*
X181660097Y-104790811D01*
X182046081Y-104470862D01*
X182852628Y-103765103D01*
X183609837Y-103051413D01*
X184307864Y-102340486D01*
X184936864Y-101643013D01*
X185486995Y-100969688D01*
X185948413Y-100331204D01*
X186311274Y-99738255D01*
X186421394Y-99536463D01*
X186549124Y-99308938D01*
X186636548Y-99182074D01*
X186696843Y-99153105D01*
X186743186Y-99219269D01*
G37*
G36*
X154863163Y-90620288D02*
G01*
X155064219Y-90620587D01*
X155510211Y-90624203D01*
X155870392Y-90633279D01*
X156170914Y-90649522D01*
X156437928Y-90674643D01*
X156697588Y-90710349D01*
X156976044Y-90758350D01*
X157433256Y-90848432D01*
X158747659Y-91166610D01*
X160126846Y-91584084D01*
X161567939Y-92099637D01*
X163068058Y-92712047D01*
X164624323Y-93420095D01*
X166233856Y-94222562D01*
X167893775Y-95118229D01*
X169601203Y-96105874D01*
X170639183Y-96725721D01*
X167158895Y-96756249D01*
X163678606Y-96786778D01*
X162398194Y-97479866D01*
X162096393Y-97644194D01*
X160618873Y-98477536D01*
X159203923Y-99323968D01*
X157856144Y-100179711D01*
X156580137Y-101040984D01*
X155380501Y-101904009D01*
X154261838Y-102765006D01*
X153228748Y-103620194D01*
X152285830Y-104465796D01*
X151437686Y-105298030D01*
X150688917Y-106113118D01*
X150044121Y-106907279D01*
X149507901Y-107676735D01*
X149084856Y-108417706D01*
X149076029Y-108435238D01*
X148986103Y-108607089D01*
X148931345Y-108683697D01*
X148895431Y-108678891D01*
X148862039Y-108606502D01*
X148849928Y-108571050D01*
X148795743Y-108369279D01*
X148731156Y-108077544D01*
X148660656Y-107720394D01*
X148588726Y-107322377D01*
X148519854Y-106908041D01*
X148458526Y-106501935D01*
X148409226Y-106128605D01*
X148370996Y-105730325D01*
X148339016Y-105212240D01*
X148317550Y-104637023D01*
X148306835Y-104034450D01*
X148307104Y-103434299D01*
X148318595Y-102866348D01*
X148341541Y-102360373D01*
X148376179Y-101946153D01*
X148565495Y-100622308D01*
X148889467Y-99094745D01*
X149320755Y-97623581D01*
X149860259Y-96206195D01*
X150508880Y-94839967D01*
X151267517Y-93522273D01*
X151464268Y-93221757D01*
X151731513Y-92836184D01*
X152031676Y-92420420D01*
X152344904Y-92001008D01*
X152651344Y-91604489D01*
X152931141Y-91257405D01*
X153164444Y-90986297D01*
X153496757Y-90619951D01*
X154863163Y-90620288D01*
G37*
G36*
X163010420Y-97911812D02*
G01*
X162944158Y-98038235D01*
X162825791Y-98253832D01*
X162660694Y-98549095D01*
X162454245Y-98914519D01*
X162211819Y-99340598D01*
X161938795Y-99817825D01*
X161640547Y-100336695D01*
X161322453Y-100887700D01*
X159597469Y-103869471D01*
X159536482Y-105487499D01*
X159528599Y-105715869D01*
X159508094Y-106874772D01*
X159515544Y-108105795D01*
X159549529Y-109376824D01*
X159608630Y-110655748D01*
X159691427Y-111910452D01*
X159796501Y-113108823D01*
X159922432Y-114218749D01*
X160006392Y-114825152D01*
X160108984Y-115483077D01*
X160221884Y-116138922D01*
X160340582Y-116768803D01*
X160460567Y-117348836D01*
X160577329Y-117855137D01*
X160686357Y-118263821D01*
X160771784Y-118553846D01*
X157838131Y-118553846D01*
X154904478Y-118553846D01*
X154467984Y-118153234D01*
X154053963Y-117755239D01*
X153445082Y-117112419D01*
X152831515Y-116402959D01*
X152236062Y-115654690D01*
X151681521Y-114895439D01*
X151190694Y-114153034D01*
X151079268Y-113970035D01*
X150838858Y-113550601D01*
X150593336Y-113092835D01*
X150349094Y-112611271D01*
X150112526Y-112120446D01*
X149890024Y-111634893D01*
X149687983Y-111169148D01*
X149512793Y-110737745D01*
X149370850Y-110355220D01*
X149268545Y-110036107D01*
X149212272Y-109794941D01*
X149208424Y-109646257D01*
X149225924Y-109588623D01*
X149309199Y-109383313D01*
X149437847Y-109111635D01*
X149597975Y-108800098D01*
X149775687Y-108475210D01*
X149957087Y-108163479D01*
X150128281Y-107891412D01*
X150611712Y-107215229D01*
X151302441Y-106376564D01*
X152104557Y-105519205D01*
X153013618Y-104646698D01*
X154025184Y-103762586D01*
X155134816Y-102870418D01*
X156338073Y-101973736D01*
X157630516Y-101076088D01*
X159007704Y-100181018D01*
X160465197Y-99292073D01*
X161998556Y-98412796D01*
X162006604Y-98408320D01*
X162320759Y-98235596D01*
X162596416Y-98087735D01*
X162816617Y-97973536D01*
X162964405Y-97901797D01*
X163022825Y-97881317D01*
X163010420Y-97911812D01*
G37*
G36*
X181132017Y-89646765D02*
G01*
X181546039Y-90044760D01*
X182154919Y-90687580D01*
X182768486Y-91397039D01*
X183363939Y-92145309D01*
X183918480Y-92904560D01*
X184409308Y-93646964D01*
X184517921Y-93825209D01*
X184758955Y-94245116D01*
X185005046Y-94703242D01*
X185249799Y-95185067D01*
X185486820Y-95676073D01*
X185709716Y-96161737D01*
X185912093Y-96627541D01*
X186087557Y-97058965D01*
X186229714Y-97441487D01*
X186332170Y-97760589D01*
X186388531Y-98001749D01*
X186392404Y-98150448D01*
X186376388Y-98203958D01*
X186293688Y-98409885D01*
X186164710Y-98683120D01*
X186003263Y-98997352D01*
X185823155Y-99326268D01*
X185638194Y-99643557D01*
X185462190Y-99922908D01*
X184955144Y-100629314D01*
X184264280Y-101462813D01*
X183462542Y-102315363D01*
X182554464Y-103183343D01*
X181544582Y-104063133D01*
X180437434Y-104951114D01*
X179237554Y-105843667D01*
X177949480Y-106737172D01*
X176577746Y-107628009D01*
X175126889Y-108512559D01*
X173601446Y-109387202D01*
X173593397Y-109391678D01*
X173279242Y-109564402D01*
X173003586Y-109712264D01*
X172783385Y-109826463D01*
X172635596Y-109898202D01*
X172577176Y-109918682D01*
X172589581Y-109888187D01*
X172655843Y-109761763D01*
X172774211Y-109546167D01*
X172939307Y-109250904D01*
X173145757Y-108885480D01*
X173388182Y-108459401D01*
X173661207Y-107982173D01*
X173959454Y-107463304D01*
X174277548Y-106912298D01*
X176002532Y-103930528D01*
X176063519Y-102312499D01*
X176071403Y-102084130D01*
X176091907Y-100925227D01*
X176084457Y-99694204D01*
X176050472Y-98423174D01*
X175991371Y-97144251D01*
X175908574Y-95889547D01*
X175803500Y-94691176D01*
X175677570Y-93581249D01*
X175593609Y-92974847D01*
X175491018Y-92316922D01*
X175378117Y-91661077D01*
X175259420Y-91031196D01*
X175139434Y-90451163D01*
X175022673Y-89944862D01*
X174913645Y-89536177D01*
X174828217Y-89246153D01*
X177761870Y-89246153D01*
X180695524Y-89246153D01*
X181132017Y-89646765D01*
G37*
%TD*%
M02*
