#VRML V2.0 utf8
# 3D model generated by kicad-lcsc-manager
# Based on easyeda2kicad.py v1.0.1

Shape{
    appearance Appearance {
        material  Material {
            diffuseColor 0.8509803921568627 0.8509803921568627 0.8509803921568627
            specularColor 0.4235294117647059 0.4235294117647059 0.4235294117647059
            ambientIntensity 0.851
            transparency 0.0
            shininess 0.5
        }
    }
    geometry IndexedFaceSet {
        ccw TRUE
        solid FALSE
        coord DEF co Coordinate {
            point [
                -0.4412 -0.0691 0.0, -0.4145 -0.0691 0.0, -0.4049 -0.0697 0.0, -0.4145 0.0293 0.0, -1.6339 0.2661 0.0, -1.6339 0.3543 0.0, -1.5922 0.2661 0.0, -1.2992 0.3543 0.0, -1.5922 -0.0697 0.0, -0.4565 0.0278 0.0, -0.468 0.0238 0.0, -0.5381 0.0293 0.0, -0.4787 0.0166 0.0, -0.4422 0.0293 0.0, -0.5897 -0.0691 0.0, -0.5753 -0.0691 0.0, -0.5009 -0.0691 0.0, -0.4888 -0.0421 0.0, -0.4831 -0.0509 0.0, -0.4788 0.0165 0.0, -0.4857 0.0088 0.0, -0.4903 0.0003 0.0, -0.475 -0.0587 0.0, -0.4647 -0.0646 0.0, -0.4534 -0.068 0.0, -0.493 -0.0094 0.0, -0.4937 -0.0186 0.0, -0.4923 -0.0318 0.0, -0.5153 -0.0691 0.0, -0.5247 -0.0415 0.0, -0.5653 -0.0415 0.0, -0.4049 -0.6012 0.0, -1.2992 -0.6012 0.0, -1.2992 -0.3544 0.0, -1.6339 -0.3544 0.0, -1.6339 -0.2661 0.0, -1.5922 -0.2661 0.0, -0.5513 0.0293 0.0, -1.2992 0.6012 0.0, -0.4049 0.6012 0.0, -0.3953 -0.0583 0.0, -0.3953 -0.0691 0.0, -0.3929 0.0185 0.0, -0.3556 0.0185 0.0, -0.3556 -0.0139 0.0, -0.3424 -0.0691 0.0, -0.3424 0.0293 0.0, -0.3232 -0.0532 0.0, -0.3232 -0.064 0.0, -0.3127 -0.0683 0.0, -0.3028 -0.0697 0.0, -0.3556 -0.0247 0.0, -0.3556 -0.0583 0.0, -0.3905 -0.0247 0.0, -0.3905 -0.0139 0.0, -0.2745 -0.0657 0.0, -0.2416 -0.0691 0.0, -0.284 -0.069 0.0, -0.2904 -0.0697 0.0, -0.3929 0.0293 0.0, -0.2552 0.0034 0.0, -0.261 0.0126 0.0, -0.2044 0.0293 0.0, -0.2905 0.0186 0.0, -0.2831 0.016 0.0, -0.3215 -0.0542 0.0, -0.2763 0.0114 0.0, -0.2704 0.0049 0.0, -0.2632 -0.0209 0.0, -0.2642 -0.0316 0.0, -0.2669 -0.04 0.0, -0.2888 -0.0585 0.0, -0.298 -0.0595 0.0, -0.2816 -0.0558 0.0, -0.2756 -0.0517 0.0, -0.271 -0.0469 0.0, -0.311 -0.058 0.0, -0.2663 -0.0027 0.0, -0.2637 -0.0133 0.0, -0.2699 0.0212 0.0, -0.1912 0.0293 0.0, 0.098 0.6012 0.0, -0.1912 -0.0691 0.0, 0.098 -0.0697 0.0, -0.2666 -0.0607 0.0, -0.2592 -0.0529 0.0, -0.2416 -0.0583 0.0, -0.2539 -0.0436 0.0, -0.2044 -0.0583 0.0, -0.251 -0.0331 0.0, -0.25 -0.0217 0.0, -0.2514 -0.0077 0.0, -0.2792 0.0265 0.0, -0.2902 0.0297 0.0, -0.3001 0.0305 0.0, -0.3119 0.0297 0.0, -0.3232 0.0266 0.0, -0.3232 0.0134 0.0, -0.3122 0.0182 0.0, -0.3002 0.0197 0.0, -0.2988 -0.0702 0.0, 0.098 -0.6012 0.0, -0.2962 -0.0703 0.0
            ]
        }
        coordIndex [
            0,1,2,-1,2,1,3,-1,4,5,6,-1,6,5,7,-1,6,7,8,-1,9,10,11,-1,11,10,12,-1,9,11,13,-1,13,11,7,-1,13,7,3,-1,14,15,2,-1,16,17,18,-1,12,19,11,-1,11,19,20,-1,11,20,21,-1,18,22,16,-1,16,22,23,-1,16,23,24,-1,21,25,11,-1,11,25,26,-1,11,26,16,-1,16,26,27,-1,16,27,17,-1,24,0,16,-1,16,0,2,-1,16,2,28,-1,28,2,15,-1,28,15,29,-1,29,15,30,-1,31,32,2,-1,2,32,33,-1,34,35,36,-1,11,37,7,-1,7,37,14,-1,7,14,8,-1,8,14,2,-1,8,2,36,-1,36,2,33,-1,36,33,34,-1,7,38,3,-1,3,38,39,-1,3,39,2,-1,2,39,40,-1,2,40,41,-1,42,43,44,-1,45,46,47,-1,47,48,45,-1,45,48,49,-1,45,49,50,-1,51,52,53,-1,53,52,40,-1,53,40,54,-1,55,56,57,-1,57,56,58,-1,44,54,42,-1,42,54,40,-1,42,40,59,-1,59,40,39,-1,59,39,46,-1,60,61,62,-1,63,64,65,-1,65,64,66,-1,65,66,67,-1,68,69,65,-1,65,69,70,-1,71,72,73,-1,73,72,74,-1,70,75,65,-1,65,75,74,-1,65,74,76,-1,76,74,72,-1,67,77,65,-1,65,77,78,-1,65,78,68,-1,61,79,62,-1,62,79,39,-1,62,39,80,-1,80,39,81,-1,80,81,82,-1,82,81,83,-1,55,84,56,-1,56,84,85,-1,56,85,86,-1,86,85,87,-1,86,87,88,-1,87,89,88,-1,88,89,90,-1,88,90,62,-1,62,90,91,-1,62,91,60,-1,79,92,39,-1,39,92,93,-1,39,93,94,-1,94,95,39,-1,39,95,96,-1,39,96,46,-1,46,96,97,-1,46,97,47,-1,47,97,98,-1,47,98,65,-1,65,98,99,-1,65,99,63,-1,41,45,2,-1,2,45,50,-1,2,50,31,-1,31,50,100,-1,31,100,101,-1,101,100,102,-1,101,102,83,-1,83,102,58,-1,83,58,82,-1,82,58,56,-1,
        ]
    }
}
Shape{
    appearance Appearance {
        material  Material {
            diffuseColor 0.2235294117647059 0.2235294117647059 0.2235294117647059
            specularColor 0.11372549019607843 0.11372549019607843 0.11372549019607843
            ambientIntensity 0.2235
            transparency 0.0
            shininess 0.5
        }
    }
    geometry IndexedFaceSet {
        ccw TRUE
        solid FALSE
        coord DEF co Coordinate {
            point [
                -1.2992 0.3543 0.0039, -1.3976 0.3543 0.0039, -1.2992 0.6012 0.0039, -1.3976 0.7677 0.0039, 0.098 0.6012 0.0039, 0.689 0.7677 0.0039, 0.689 0.5394 0.0039, 0.5489 0.5394 0.0039, 0.098 -0.6012 0.0039, 0.5489 0.185 0.0039, -1.3976 -0.7677 0.0039, -1.3976 -0.3544 0.0039, -1.2992 -0.3544 0.0039, -1.2992 -0.6012 0.0039, 0.689 -0.7677 0.0039, 0.689 -0.5394 0.0039, 0.5489 -0.5394 0.0039, 0.5489 -0.1851 0.0039, 0.689 -0.1851 0.0039, 0.689 0.185 0.0039, 0.7087 0.7677 0.0236, 0.7087 0.7677 0.0787, 0.7087 0.5394 0.0236, 0.7087 0.5394 0.0787, 0.7087 -0.1851 0.0787, 0.7087 -0.1851 0.0236, 0.7087 0.185 0.0787, 0.7087 0.185 0.0236, 0.6941 0.7677 0.0046, 0.6941 0.5394 0.0046, 0.6988 0.7677 0.0066, 0.6988 0.5394 0.0066, 0.7029 0.7677 0.0097, 0.7029 0.5394 0.0097, 0.706 0.7677 0.0138, 0.706 0.5394 0.0138, 0.708 0.7677 0.0185, 0.708 0.5394 0.0185, 0.6941 0.185 0.0046, 0.6941 -0.1851 0.0046, 0.6988 0.185 0.0066, 0.6988 -0.1851 0.0066, 0.7029 0.185 0.0097, 0.7029 -0.1851 0.0097, 0.706 0.185 0.0138, 0.706 -0.1851 0.0138, 0.708 0.185 0.0185, 0.708 -0.1851 0.0185, -1.4173 -0.7677 0.0236, -1.4173 -0.7677 0.0787, -1.4173 -0.3544 0.0236, -1.4173 -0.3544 0.0787, -1.4173 0.7677 0.0787, -1.4173 0.7677 0.0236, -1.4173 0.3543 0.0787, -1.4173 0.3543 0.0236, -1.4027 -0.7677 0.0046, -1.4027 -0.3544 0.0046, -1.4075 -0.7677 0.0066, -1.4075 -0.3544 0.0066, -1.4116 -0.7677 0.0097, -1.4116 -0.3544 0.0097, -1.4147 -0.7677 0.0138, -1.4147 -0.3544 0.0138, -1.4167 -0.7677 0.0185, -1.4167 -0.3544 0.0185, -1.4027 0.3543 0.0046, -1.4027 0.7677 0.0046, -1.4075 0.3543 0.0066, -1.4075 0.7677 0.0066, -1.4116 0.3543 0.0097, -1.4116 0.7677 0.0097, -1.4147 0.3543 0.0138, -1.4147 0.7677 0.0138, -1.4167 0.3543 0.0185, -1.4167 0.7677 0.0185, 0.7087 -0.7677 0.0787, 0.7087 -0.7677 0.0236, 0.7087 -0.5394 0.0787, 0.7087 -0.5394 0.0236, 0.6941 -0.5394 0.0046, 0.6941 -0.7677 0.0046, 0.6988 -0.5394 0.0066, 0.6988 -0.7677 0.0066, 0.7029 -0.5394 0.0097, 0.7029 -0.7677 0.0097, 0.706 -0.5394 0.0138, 0.706 -0.7677 0.0138, 0.708 -0.5394 0.0185, 0.708 -0.7677 0.0185, 0.689 0.7874 0.0236, -1.3976 0.7874 0.0236, 0.689 0.7874 0.0787, -1.3976 0.7874 0.0787, 0.689 -0.7874 0.0787, -1.3976 -0.7874 0.0787, 0.689 -0.7874 0.0236, -1.3976 -0.7874 0.0236, -1.3554 0.7255 0.3976, -1.3554 -0.7255 0.3976, 0.6467 0.7255 0.3976, 0.6467 -0.7255 0.3976, -1.3978 0.7874 0.0787, -1.3554 0.7449 0.3807, 0.6467 0.7449 0.3807, 0.6892 0.7874 0.0787, -1.4173 -0.7679 0.0787, -1.3749 -0.7255 0.3807, -1.4173 0.7679 0.0787, -1.3749 0.7255 0.3807, 0.6662 -0.7255 0.3807, 0.7087 -0.7679 0.0787, 0.6662 0.7255 0.3807, 0.7087 0.7679 0.0787, 0.6892 -0.7874 0.0787, 0.6467 -0.745 0.3807, -1.3554 -0.745 0.3807, -1.3978 -0.7874 0.0787, 0.689 -0.7728 0.0046, -1.3976 -0.7728 0.0046, 0.689 -0.7776 0.0066, -1.3976 -0.7776 0.0066, 0.689 -0.7817 0.0097, -1.3976 -0.7817 0.0097, 0.689 -0.7848 0.0138, -1.3976 -0.7848 0.0138, 0.689 -0.7868 0.0185, -1.3976 -0.7868 0.0185, 0.6933 -0.7868 0.0236, 0.6975 -0.7853 0.0236, 0.6941 -0.7868 0.0236, 0.6939 -0.7861 0.0185, 0.7011 -0.783 0.0236, 0.6988 -0.7848 0.0236, 0.6985 -0.7842 0.0185, 0.7042 -0.7799 0.0236, 0.7029 -0.7817 0.0236, 0.7024 -0.7812 0.0185, 0.7066 -0.7762 0.0236, 0.706 -0.7776 0.0236, 0.7054 -0.7772 0.0185, 0.7081 -0.7721 0.0236, 0.708 -0.7728 0.0236, 0.7073 -0.7727 0.0185, 0.7054 -0.7721 0.0138, 0.7037 -0.7763 0.0138, 0.7024 -0.7713 0.0097, 0.701 -0.7747 0.0097, 0.6985 -0.7703 0.0066, 0.6975 -0.7727 0.0066, 0.6939 -0.7691 0.0046, 0.6934 -0.7703 0.0046, 0.701 -0.7798 0.0138, 0.6988 -0.7776 0.0097, 0.6959 -0.7747 0.0066, 0.6926 -0.7713 0.0046, 0.6975 -0.7825 0.0138, 0.6934 -0.7842 0.0138, 0.6959 -0.7798 0.0097, 0.6926 -0.7812 0.0097, 0.6939 -0.7763 0.0066, 0.6915 -0.7772 0.0066, 0.6915 -0.7721 0.0046, 0.6903 -0.7727 0.0046, -1.4027 -0.7868 0.0236, -1.4075 -0.7848 0.0236, -1.4026 -0.7861 0.0185, -1.4072 -0.7842 0.0185, -1.4021 -0.7842 0.0138, -1.4062 -0.7825 0.0138, -1.4013 -0.7812 0.0097, -1.4046 -0.7798 0.0097, -1.4002 -0.7772 0.0066, -1.4026 -0.7763 0.0066, -1.399 -0.7727 0.0046, -1.4002 -0.7721 0.0046, -1.4116 -0.7817 0.0236, -1.4111 -0.7812 0.0185, -1.4097 -0.7798 0.0138, -1.4075 -0.7776 0.0097, -1.4046 -0.7747 0.0066, -1.4013 -0.7713 0.0046, -1.4147 -0.7776 0.0236, -1.4167 -0.7728 0.0236, -1.4141 -0.7772 0.0185, -1.416 -0.7727 0.0185, -1.4124 -0.7763 0.0138, -1.4141 -0.7721 0.0138, -1.4097 -0.7747 0.0097, -1.4111 -0.7713 0.0097, -1.4062 -0.7727 0.0066, -1.4072 -0.7703 0.0066, -1.4021 -0.7703 0.0046, -1.4026 -0.7691 0.0046, 0.7081 -0.7721 0.079, 0.7079 -0.773 0.079, 0.7066 -0.7762 0.0792, 0.706 -0.7776 0.0792, 0.7042 -0.7799 0.0793, 0.7029 -0.7817 0.0793, 0.7011 -0.783 0.0793, 0.6989 -0.7848 0.0792, 0.6975 -0.7853 0.0792, 0.6942 -0.7867 0.079, 0.6933 -0.7868 0.079, -1.4166 -0.7728 0.079, -1.4166 -0.773 0.079, -1.4147 -0.7776 0.0792, -1.4147 -0.7776 0.0792, -1.4116 -0.7817 0.0793, -1.4075 -0.7848 0.0792, -1.4075 -0.7848 0.0792, -1.4029 -0.7867 0.079, -1.4027 -0.7867 0.079, -1.3976 0.7728 0.0046, 0.689 0.7728 0.0046, -1.3976 0.7775 0.0066, 0.689 0.7775 0.0066, -1.3976 0.7816 0.0097, 0.689 0.7816 0.0097, -1.3976 0.7847 0.0138, 0.689 0.7847 0.0138, -1.3976 0.7867 0.0185, 0.689 0.7867 0.0185, 0.6941 0.7867 0.0236, 0.6988 0.7847 0.0236, 0.6939 0.7861 0.0185, 0.6985 0.7842 0.0185, 0.6934 0.7842 0.0138, 0.6975 0.7825 0.0138, 0.6926 0.7811 0.0097, 0.6959 0.7798 0.0097, 0.6915 0.7772 0.0066, 0.6939 0.7762 0.0066, 0.6903 0.7726 0.0046, 0.6915 0.7721 0.0046, 0.7029 0.7816 0.0236, 0.7024 0.7811 0.0185, 0.701 0.7798 0.0138, 0.6988 0.7775 0.0097, 0.6959 0.7747 0.0066, 0.6926 0.7713 0.0046, 0.706 0.7775 0.0236, 0.708 0.7728 0.0236, 0.7054 0.7772 0.0185, 0.7073 0.7726 0.0185, 0.7037 0.7762 0.0138, 0.7054 0.7721 0.0138, 0.701 0.7747 0.0097, 0.7024 0.7713 0.0097, 0.6975 0.7726 0.0066, 0.6985 0.7702 0.0066, 0.6934 0.7702 0.0046, 0.6939 0.769 0.0046, 0.6656 -0.7298 0.3812, 0.6655 -0.7305 0.3813, 0.664 -0.7338 0.3816, 0.6604 -0.7391 0.3818, 0.6617 -0.7374 0.3817, 0.6635 -0.7351 0.3817, 0.6564 -0.7422 0.3817, 0.6587 -0.7405 0.3817, 0.651 -0.7443 0.3812, 0.6517 -0.7442 0.3813, 0.6551 -0.7428 0.3816, -1.3554 -0.7438 0.3851, 0.6467 -0.7438 0.3851, -1.3554 -0.7438 0.3852, 0.6467 -0.7438 0.3852, -1.3554 -0.7416 0.3892, 0.6467 -0.7416 0.3892, -1.3554 -0.7415 0.3893, 0.6467 -0.7415 0.3893, -1.3554 -0.7385 0.3928, 0.6467 -0.7385 0.3928, -1.3554 -0.7384 0.3928, 0.6467 -0.7384 0.3928, -1.3554 -0.7346 0.3954, 0.6467 -0.7346 0.3954, -1.3554 -0.7345 0.3954, 0.6467 -0.7345 0.3954, -1.3554 -0.7302 0.3971, 0.6467 -0.7302 0.3971, -1.3554 -0.7301 0.3971, 0.6467 -0.7301 0.3971, -1.3597 -0.7443 0.3812, -1.3604 -0.7442 0.3813, -1.3637 -0.7428 0.3816, -1.365 -0.7422 0.3817, -1.3673 -0.7405 0.3817, -1.3743 -0.7298 0.3812, -1.3742 -0.7305 0.3813, -1.3727 -0.7338 0.3816, -1.3722 -0.7351 0.3817, -1.3704 -0.7374 0.3817, -1.3691 -0.7391 0.3818, -1.4167 0.7728 0.0236, -1.4147 0.7775 0.0236, -1.416 0.7726 0.0185, -1.4141 0.7772 0.0185, -1.4141 0.7721 0.0138, -1.4124 0.7762 0.0138, -1.4111 0.7713 0.0097, -1.4097 0.7747 0.0097, -1.4072 0.7702 0.0066, -1.4062 0.7726 0.0066, -1.4026 0.769 0.0046, -1.4021 0.7702 0.0046, -1.4116 0.7816 0.0236, -1.4111 0.7811 0.0185, -1.4097 0.7798 0.0138, -1.4075 0.7775 0.0097, -1.4046 0.7747 0.0066, -1.4013 0.7713 0.0046, -1.4075 0.7847 0.0236, -1.4027 0.7867 0.0236, -1.4072 0.7842 0.0185, -1.4026 0.7861 0.0185, -1.4062 0.7825 0.0138, -1.4021 0.7842 0.0138, -1.4046 0.7798 0.0097, -1.4013 0.7811 0.0097, -1.4026 0.7762 0.0066, -1.4002 0.7772 0.0066, -1.4002 0.7721 0.0046, -1.399 0.7726 0.0046, 0.708 0.7728 0.079, 0.7079 0.7729 0.079, 0.706 0.7775 0.0792, 0.706 0.7776 0.0792, 0.7029 0.7816 0.0793, 0.6989 0.7847 0.0792, 0.6988 0.7847 0.0792, 0.6942 0.7867 0.079, 0.6941 0.7867 0.079, 0.665 -0.7255 0.3852, 0.6628 -0.7255 0.3892, 0.6624 -0.7291 0.3892, 0.6628 -0.7255 0.3893, 0.6597 -0.7255 0.3928, 0.6594 -0.7284 0.3928, 0.6556 -0.7275 0.3954, 0.6513 -0.7265 0.3971, 0.6509 -0.7275 0.3971, 0.6488 -0.7297 0.3971, 0.6496 -0.7291 0.3971, 0.6478 -0.7301 0.3971, 0.6514 -0.7255 0.3971, 0.6646 -0.7296 0.3851, 0.6633 -0.7335 0.3851, 0.6611 -0.7369 0.3851, 0.6582 -0.7398 0.3851, 0.6547 -0.742 0.3851, 0.6508 -0.7434 0.3851, 0.6596 -0.7255 0.3928, 0.6558 -0.7255 0.3954, 0.6558 -0.7255 0.3954, 0.6514 -0.7255 0.3971, 0.6538 -0.7312 0.3954, 0.6524 -0.7326 0.3954, 0.6507 -0.7337 0.3954, 0.6487 -0.7344 0.3954, 0.6549 -0.7294 0.3954, 0.6504 -0.7284 0.3971, 0.6584 -0.7311 0.3928, 0.6569 -0.7336 0.3928, 0.6548 -0.7356 0.3928, 0.6524 -0.7372 0.3928, 0.6496 -0.7381 0.3928, 0.6612 -0.7325 0.3892, 0.6593 -0.7355 0.3892, 0.6568 -0.7381 0.3892, 0.6537 -0.74 0.3892, 0.6503 -0.7412 0.3892, 0.6651 -0.7255 0.3851, -1.359 -0.7412 0.3892, -1.3583 -0.7381 0.3928, -1.3574 -0.7344 0.3954, -1.3564 -0.7301 0.3971, -1.3574 -0.7297 0.3971, -1.3596 -0.7275 0.3971, -1.3591 -0.7284 0.3971, -1.36 -0.7265 0.3971, -1.3595 -0.7434 0.3851, -1.3634 -0.742 0.3851, -1.3668 -0.7398 0.3851, -1.3697 -0.7369 0.3851, -1.3719 -0.7335 0.3851, -1.3733 -0.7296 0.3851, -1.3737 -0.7255 0.3851, -1.3601 -0.7255 0.3971, -1.3611 -0.7326 0.3954, -1.3625 -0.7312 0.3954, -1.3636 -0.7294 0.3954, -1.3643 -0.7275 0.3954, -1.3593 -0.7337 0.3954, -1.3583 -0.7291 0.3971, -1.3601 -0.7255 0.3971, -1.3644 -0.7255 0.3954, -1.3645 -0.7255 0.3954, -1.3683 -0.7255 0.3928, -1.361 -0.7372 0.3928, -1.3635 -0.7356 0.3928, -1.3655 -0.7336 0.3928, -1.3671 -0.7311 0.3928, -1.3681 -0.7284 0.3928, -1.3624 -0.74 0.3892, -1.3655 -0.7381 0.3892, -1.368 -0.7355 0.3892, -1.3699 -0.7325 0.3892, -1.3711 -0.7291 0.3892, -1.3684 -0.7255 0.3928, -1.3715 -0.7255 0.3893, -1.3715 -0.7255 0.3892, -1.3737 -0.7255 0.3852, -1.4027 0.7867 0.079, -1.4029 0.7867 0.079, -1.4075 0.7847 0.0792, -1.4075 0.7847 0.0792, -1.4116 0.7816 0.0793, -1.4147 0.7776 0.0792, -1.4147 0.7775 0.0792, -1.4166 0.7729 0.079, -1.4166 0.7728 0.079, 0.651 0.7443 0.3812, 0.6517 0.7442 0.3813, 0.6551 0.7428 0.3816, 0.6564 0.7422 0.3817, 0.6587 0.7404 0.3817, 0.6656 0.7298 0.3812, 0.6655 0.7304 0.3813, 0.664 0.7338 0.3816, 0.6635 0.7351 0.3817, 0.6617 0.7374 0.3817, 0.6604 0.7391 0.3818, 0.6651 0.7255 0.3851, 0.665 0.7255 0.3852, 0.6628 0.7255 0.3892, 0.6628 0.7255 0.3893, 0.6597 0.7255 0.3928, 0.6596 0.7255 0.3928, 0.6558 0.7255 0.3954, 0.6558 0.7255 0.3954, 0.6514 0.7255 0.3971, 0.6514 0.7255 0.3971, -1.3737 0.7255 0.3851, -1.3737 0.7255 0.3852, -1.3715 0.7255 0.3892, -1.3715 0.7255 0.3893, -1.3684 0.7255 0.3928, -1.3683 0.7255 0.3928, -1.3645 0.7255 0.3954, -1.3644 0.7255 0.3954, -1.3601 0.7255 0.3971, -1.3601 0.7255 0.3971, -1.3742 0.7304 0.3813, -1.3741 0.7305 0.3813, -1.3722 0.7351 0.3817, -1.3721 0.7351 0.3817, -1.3691 0.7391 0.3818, -1.3651 0.7422 0.3817, -1.365 0.7422 0.3817, -1.3604 0.7442 0.3813, -1.3604 0.7442 0.3813, 0.6467 0.7437 0.3852, 0.6467 0.7416 0.3892, 0.6503 0.7412 0.3892, 0.6467 0.7415 0.3893, 0.6467 0.7384 0.3928, 0.6496 0.7381 0.3928, 0.6487 0.7343 0.3954, 0.6478 0.73 0.3971, 0.6488 0.7297 0.3971, 0.6509 0.7275 0.3971, 0.6504 0.7284 0.3971, 0.6513 0.7265 0.3971, 0.6467 0.7301 0.3971, 0.6508 0.7433 0.3851, 0.6547 0.742 0.3851, 0.6582 0.7398 0.3851, 0.6611 0.7369 0.3851, 0.6633 0.7334 0.3851, 0.6646 0.7295 0.3851, 0.6467 0.7384 0.3928, 0.6467 0.7345 0.3954, 0.6467 0.7345 0.3954, 0.6467 0.7301 0.3971, 0.6524 0.7326 0.3954, 0.6538 0.7311 0.3954, 0.6549 0.7294 0.3954, 0.6556 0.7275 0.3954, 0.6507 0.7336 0.3954, 0.6496 0.7291 0.3971, 0.6524 0.7371 0.3928, 0.6548 0.7356 0.3928, 0.6569 0.7335 0.3928, 0.6584 0.7311 0.3928, 0.6594 0.7283 0.3928, 0.6537 0.74 0.3892, 0.6568 0.7381 0.3892, 0.6593 0.7355 0.3892, 0.6612 0.7324 0.3892, 0.6624 0.729 0.3892, 0.6467 0.7438 0.3851, -1.3679 0.7288 0.3928, -1.3642 0.7278 0.3954, -1.3599 0.7267 0.3971, -1.3595 0.7278 0.3971, -1.3577 0.7295 0.3971, -1.3587 0.7288 0.3971, -1.3566 0.73 0.3971, -1.3731 0.7302 0.3851, -1.3713 0.7346 0.3851, -1.3684 0.7384 0.3851, -1.3646 0.7413 0.3851, -1.3602 0.7432 0.3851, -1.3554 0.7438 0.3851, -1.3554 0.7301 0.3971, -1.3633 0.73 0.3954, -1.3618 0.7319 0.3954, -1.3599 0.7333 0.3954, -1.3578 0.7342 0.3954, -1.3554 0.7301 0.3971, -1.3554 0.7345 0.3954, -1.3554 0.7345 0.3954, -1.3554 0.7384 0.3928, -1.3666 0.7319 0.3928, -1.3646 0.7346 0.3928, -1.3619 0.7367 0.3928, -1.3588 0.738 0.3928, -1.371 0.7296 0.3892, -1.3694 0.7335 0.3892, -1.3668 0.7369 0.3892, -1.3635 0.7394 0.3892, -1.3596 0.741 0.3892, -1.3554 0.7384 0.3928, -1.3554 0.7415 0.3893, -1.3554 0.7416 0.3892, -1.3554 0.7437 0.3852
            ]
        }
        coordIndex [
            0,1,2,-1,2,1,3,-1,2,3,4,-1,5,6,7,-1,3,5,4,-1,4,5,7,-1,4,7,8,-1,8,7,9,-1,10,11,12,-1,12,13,10,-1,10,13,8,-1,10,8,14,-1,15,14,16,-1,16,14,8,-1,16,8,17,-1,17,8,9,-1,17,9,18,-1,18,9,19,-1,20,21,22,-1,22,21,23,-1,24,25,26,-1,26,25,27,-1,6,5,28,-1,6,28,29,-1,29,28,30,-1,29,30,31,-1,31,30,32,-1,31,32,33,-1,33,32,34,-1,33,34,35,-1,35,34,36,-1,35,36,37,-1,37,36,20,-1,37,20,22,-1,18,19,38,-1,18,38,39,-1,39,38,40,-1,39,40,41,-1,41,40,42,-1,41,42,43,-1,43,42,44,-1,43,44,45,-1,45,44,46,-1,45,46,47,-1,47,46,27,-1,47,27,25,-1,48,49,50,-1,50,49,51,-1,52,53,54,-1,54,53,55,-1,11,10,56,-1,11,56,57,-1,57,56,58,-1,57,58,59,-1,59,58,60,-1,59,60,61,-1,61,60,62,-1,61,62,63,-1,63,62,64,-1,63,64,65,-1,65,64,48,-1,65,48,50,-1,3,1,66,-1,3,66,67,-1,67,66,68,-1,67,68,69,-1,69,68,70,-1,69,70,71,-1,71,70,72,-1,71,72,73,-1,73,72,74,-1,73,74,75,-1,75,74,55,-1,75,55,53,-1,76,77,78,-1,78,77,79,-1,14,15,80,-1,14,80,81,-1,81,80,82,-1,81,82,83,-1,83,82,84,-1,83,84,85,-1,85,84,86,-1,85,86,87,-1,87,86,88,-1,87,88,89,-1,89,88,79,-1,89,79,77,-1,90,91,92,-1,92,91,93,-1,94,95,96,-1,96,95,97,-1,98,99,100,-1,100,99,101,-1,102,103,93,-1,93,103,104,-1,93,104,92,-1,92,104,105,-1,49,106,107,-1,108,52,109,-1,109,52,54,-1,109,54,107,-1,107,54,51,-1,107,51,49,-1,110,111,76,-1,26,112,24,-1,24,112,110,-1,24,110,78,-1,78,110,76,-1,26,23,112,-1,112,23,21,-1,112,21,113,-1,114,115,94,-1,94,115,116,-1,94,116,95,-1,95,116,117,-1,10,14,118,-1,10,118,119,-1,119,118,120,-1,119,120,121,-1,121,120,122,-1,121,122,123,-1,123,122,124,-1,123,124,125,-1,125,124,126,-1,125,126,127,-1,127,126,96,-1,127,96,97,-1,128,96,126,-1,129,130,131,-1,132,133,134,-1,135,136,137,-1,138,139,140,-1,141,142,143,-1,142,138,143,-1,143,138,140,-1,143,140,144,-1,144,140,145,-1,144,145,146,-1,146,145,147,-1,146,147,148,-1,148,147,149,-1,148,149,150,-1,150,149,151,-1,150,151,14,-1,139,135,140,-1,140,135,137,-1,140,137,145,-1,145,137,152,-1,145,152,147,-1,147,152,153,-1,147,153,149,-1,149,153,154,-1,149,154,151,-1,151,154,155,-1,151,155,14,-1,77,141,89,-1,89,141,143,-1,89,143,87,-1,87,143,144,-1,87,144,85,-1,85,144,146,-1,85,146,83,-1,83,146,148,-1,83,148,81,-1,81,148,150,-1,81,150,14,-1,133,129,134,-1,134,129,131,-1,134,131,156,-1,156,131,157,-1,156,157,158,-1,158,157,159,-1,158,159,160,-1,160,159,161,-1,160,161,162,-1,162,161,163,-1,162,163,14,-1,130,128,131,-1,131,128,126,-1,131,126,157,-1,157,126,124,-1,157,124,159,-1,159,124,122,-1,159,122,161,-1,161,122,120,-1,161,120,163,-1,163,120,118,-1,163,118,14,-1,136,132,137,-1,137,132,134,-1,137,134,152,-1,152,134,156,-1,152,156,153,-1,153,156,158,-1,153,158,154,-1,154,158,160,-1,154,160,155,-1,155,160,162,-1,155,162,14,-1,164,165,166,-1,166,165,167,-1,166,167,168,-1,168,167,169,-1,168,169,170,-1,170,169,171,-1,170,171,172,-1,172,171,173,-1,172,173,174,-1,174,173,175,-1,174,175,10,-1,165,176,167,-1,167,176,177,-1,167,177,169,-1,169,177,178,-1,169,178,171,-1,171,178,179,-1,171,179,173,-1,173,179,180,-1,173,180,175,-1,175,180,181,-1,175,181,10,-1,97,164,127,-1,127,164,166,-1,127,166,125,-1,125,166,168,-1,125,168,123,-1,123,168,170,-1,123,170,121,-1,121,170,172,-1,121,172,119,-1,119,172,174,-1,119,174,10,-1,182,183,184,-1,184,183,185,-1,184,185,186,-1,186,185,187,-1,186,187,188,-1,188,187,189,-1,188,189,190,-1,190,189,191,-1,190,191,192,-1,192,191,193,-1,192,193,10,-1,183,48,185,-1,185,48,64,-1,185,64,187,-1,187,64,62,-1,187,62,189,-1,189,62,60,-1,189,60,191,-1,191,60,58,-1,191,58,193,-1,193,58,56,-1,193,56,10,-1,176,182,177,-1,177,182,184,-1,177,184,178,-1,178,184,186,-1,178,186,179,-1,179,186,188,-1,179,188,180,-1,180,188,190,-1,180,190,181,-1,181,190,192,-1,181,192,10,-1,94,96,114,-1,114,96,128,-1,141,77,76,-1,76,111,141,-1,141,111,194,-1,141,194,142,-1,142,194,195,-1,142,195,138,-1,138,195,196,-1,138,196,139,-1,139,196,197,-1,139,197,135,-1,135,197,198,-1,135,198,136,-1,136,198,199,-1,136,199,132,-1,132,199,200,-1,132,200,133,-1,133,200,201,-1,133,201,129,-1,129,201,202,-1,129,202,130,-1,130,202,203,-1,130,203,128,-1,128,203,204,-1,128,204,114,-1,49,48,106,-1,106,48,183,-1,106,183,205,-1,205,183,206,-1,206,183,182,-1,206,182,207,-1,207,182,208,-1,208,182,176,-1,208,176,209,-1,209,176,210,-1,210,176,165,-1,210,165,211,-1,211,165,212,-1,212,165,164,-1,212,164,213,-1,97,95,164,-1,164,95,117,-1,164,117,213,-1,5,3,214,-1,5,214,215,-1,215,214,216,-1,215,216,217,-1,217,216,218,-1,217,218,219,-1,219,218,220,-1,219,220,221,-1,221,220,222,-1,221,222,223,-1,223,222,91,-1,223,91,90,-1,224,225,226,-1,226,225,227,-1,226,227,228,-1,228,227,229,-1,228,229,230,-1,230,229,231,-1,230,231,232,-1,232,231,233,-1,232,233,234,-1,234,233,235,-1,234,235,5,-1,225,236,227,-1,227,236,237,-1,227,237,229,-1,229,237,238,-1,229,238,231,-1,231,238,239,-1,231,239,233,-1,233,239,240,-1,233,240,235,-1,235,240,241,-1,235,241,5,-1,90,224,223,-1,223,224,226,-1,223,226,221,-1,221,226,228,-1,221,228,219,-1,219,228,230,-1,219,230,217,-1,217,230,232,-1,217,232,215,-1,215,232,234,-1,215,234,5,-1,242,243,244,-1,244,243,245,-1,244,245,246,-1,246,245,247,-1,246,247,248,-1,248,247,249,-1,248,249,250,-1,250,249,251,-1,250,251,252,-1,252,251,253,-1,252,253,5,-1,243,20,245,-1,245,20,36,-1,245,36,247,-1,247,36,34,-1,247,34,249,-1,249,34,32,-1,249,32,251,-1,251,32,30,-1,251,30,253,-1,253,30,28,-1,253,28,5,-1,236,242,237,-1,237,242,244,-1,237,244,238,-1,238,244,246,-1,238,246,239,-1,239,246,248,-1,239,248,240,-1,240,248,250,-1,240,250,241,-1,241,250,252,-1,241,252,5,-1,111,110,194,-1,194,110,254,-1,194,254,195,-1,195,254,255,-1,195,255,196,-1,196,255,256,-1,196,256,197,-1,257,198,258,-1,258,198,197,-1,258,197,259,-1,259,197,256,-1,203,202,260,-1,260,202,201,-1,260,201,261,-1,261,201,200,-1,261,200,257,-1,257,200,199,-1,257,199,198,-1,115,114,262,-1,262,114,204,-1,262,204,263,-1,263,204,203,-1,263,203,264,-1,264,203,260,-1,116,115,265,-1,265,115,266,-1,265,266,267,-1,267,266,268,-1,267,268,269,-1,269,268,270,-1,269,270,271,-1,271,270,272,-1,271,272,273,-1,273,272,274,-1,273,274,275,-1,275,274,276,-1,275,276,277,-1,277,276,278,-1,277,278,279,-1,279,278,280,-1,279,280,281,-1,281,280,282,-1,281,282,283,-1,282,284,283,-1,283,284,101,-1,283,101,99,-1,117,116,213,-1,213,116,285,-1,213,285,212,-1,212,285,286,-1,212,286,211,-1,211,286,287,-1,211,287,210,-1,287,288,210,-1,210,288,289,-1,210,289,209,-1,107,106,290,-1,290,106,205,-1,290,205,291,-1,291,205,206,-1,291,206,292,-1,292,206,207,-1,292,207,293,-1,293,207,208,-1,293,208,294,-1,294,208,209,-1,294,209,295,-1,295,209,289,-1,296,297,298,-1,298,297,299,-1,298,299,300,-1,300,299,301,-1,300,301,302,-1,302,301,303,-1,302,303,304,-1,304,303,305,-1,304,305,306,-1,306,305,307,-1,306,307,3,-1,297,308,299,-1,299,308,309,-1,299,309,301,-1,301,309,310,-1,301,310,303,-1,303,310,311,-1,303,311,305,-1,305,311,312,-1,305,312,307,-1,307,312,313,-1,307,313,3,-1,53,296,75,-1,75,296,298,-1,75,298,73,-1,73,298,300,-1,73,300,71,-1,71,300,302,-1,71,302,69,-1,69,302,304,-1,69,304,67,-1,67,304,306,-1,67,306,3,-1,314,315,316,-1,316,315,317,-1,316,317,318,-1,318,317,319,-1,318,319,320,-1,320,319,321,-1,320,321,322,-1,322,321,323,-1,322,323,324,-1,324,323,325,-1,324,325,3,-1,315,91,317,-1,317,91,222,-1,317,222,319,-1,319,222,220,-1,319,220,321,-1,321,220,218,-1,321,218,323,-1,323,218,216,-1,323,216,325,-1,325,216,214,-1,325,214,3,-1,308,314,309,-1,309,314,316,-1,309,316,310,-1,310,316,318,-1,310,318,311,-1,311,318,320,-1,311,320,312,-1,312,320,322,-1,312,322,313,-1,313,322,324,-1,313,324,3,-1,21,20,113,-1,113,20,243,-1,113,243,326,-1,326,243,327,-1,327,243,242,-1,327,242,328,-1,328,242,329,-1,329,242,236,-1,329,236,330,-1,330,236,331,-1,331,236,225,-1,331,225,332,-1,332,225,333,-1,333,225,224,-1,333,224,334,-1,90,92,224,-1,224,92,105,-1,224,105,334,-1,335,336,337,-1,338,339,340,-1,341,342,343,-1,101,344,345,-1,346,344,101,-1,343,342,101,-1,347,101,342,-1,254,348,255,-1,255,348,349,-1,255,349,256,-1,256,349,259,-1,259,349,350,-1,259,350,258,-1,258,350,257,-1,257,350,351,-1,257,351,261,-1,261,351,260,-1,260,351,352,-1,260,352,264,-1,264,352,263,-1,263,352,353,-1,263,353,262,-1,262,353,266,-1,262,266,115,-1,284,346,101,-1,354,355,341,-1,341,355,356,-1,341,356,342,-1,342,356,357,-1,342,357,347,-1,358,345,359,-1,359,345,344,-1,359,344,360,-1,360,344,346,-1,360,346,361,-1,339,354,340,-1,340,354,341,-1,340,341,362,-1,362,341,343,-1,362,343,363,-1,363,343,101,-1,284,282,346,-1,346,282,280,-1,346,280,361,-1,361,280,278,-1,361,278,276,-1,364,358,365,-1,365,358,359,-1,365,359,366,-1,366,359,360,-1,366,360,367,-1,367,360,361,-1,367,361,368,-1,368,361,276,-1,337,364,369,-1,369,364,365,-1,369,365,370,-1,370,365,366,-1,370,366,371,-1,371,366,367,-1,371,367,372,-1,372,367,368,-1,372,368,373,-1,336,338,337,-1,337,338,340,-1,337,340,364,-1,364,340,362,-1,364,362,358,-1,358,362,363,-1,358,363,345,-1,345,363,101,-1,254,110,348,-1,348,110,374,-1,348,374,335,-1,276,274,368,-1,368,274,272,-1,368,272,373,-1,373,272,270,-1,373,270,268,-1,335,337,348,-1,348,337,369,-1,348,369,349,-1,349,369,370,-1,349,370,350,-1,350,370,371,-1,350,371,351,-1,351,371,372,-1,351,372,352,-1,352,372,373,-1,352,373,353,-1,353,373,268,-1,353,268,266,-1,267,269,375,-1,271,273,376,-1,377,378,379,-1,99,380,381,-1,382,380,99,-1,379,378,99,-1,283,99,378,-1,285,383,286,-1,286,383,384,-1,286,384,287,-1,287,384,288,-1,288,384,385,-1,288,385,289,-1,289,385,295,-1,295,385,386,-1,295,386,294,-1,294,386,293,-1,293,386,387,-1,293,387,292,-1,292,387,291,-1,291,387,388,-1,291,388,290,-1,290,388,389,-1,290,389,107,-1,390,382,99,-1,275,277,377,-1,377,277,279,-1,377,279,378,-1,378,279,281,-1,378,281,283,-1,391,381,392,-1,392,381,380,-1,392,380,393,-1,393,380,382,-1,393,382,394,-1,273,275,376,-1,376,275,377,-1,376,377,395,-1,395,377,379,-1,395,379,396,-1,396,379,99,-1,390,397,382,-1,382,397,398,-1,382,398,394,-1,394,398,399,-1,394,399,400,-1,401,391,402,-1,402,391,392,-1,402,392,403,-1,403,392,393,-1,403,393,404,-1,404,393,394,-1,404,394,405,-1,405,394,400,-1,375,401,406,-1,406,401,402,-1,406,402,407,-1,407,402,403,-1,407,403,408,-1,408,403,404,-1,408,404,409,-1,409,404,405,-1,409,405,410,-1,269,271,375,-1,375,271,376,-1,375,376,401,-1,401,376,395,-1,401,395,391,-1,391,395,396,-1,391,396,381,-1,381,396,99,-1,285,116,383,-1,383,116,265,-1,383,265,267,-1,400,411,405,-1,405,411,412,-1,405,412,410,-1,410,412,413,-1,410,413,414,-1,267,375,383,-1,383,375,406,-1,383,406,384,-1,384,406,407,-1,384,407,385,-1,385,407,408,-1,385,408,386,-1,386,408,409,-1,386,409,387,-1,387,409,410,-1,387,410,388,-1,388,410,414,-1,388,414,389,-1,93,91,102,-1,102,91,315,-1,102,315,415,-1,415,315,416,-1,416,315,314,-1,416,314,417,-1,417,314,418,-1,418,314,308,-1,418,308,419,-1,419,308,420,-1,420,308,297,-1,420,297,421,-1,421,297,422,-1,422,297,296,-1,422,296,423,-1,53,52,296,-1,296,52,108,-1,296,108,423,-1,105,104,334,-1,334,104,424,-1,334,424,333,-1,333,424,425,-1,333,425,332,-1,332,425,426,-1,332,426,331,-1,426,427,331,-1,331,427,428,-1,331,428,330,-1,112,113,429,-1,429,113,326,-1,429,326,430,-1,430,326,327,-1,430,327,431,-1,431,327,328,-1,431,328,432,-1,432,328,329,-1,432,329,433,-1,433,329,330,-1,433,330,434,-1,434,330,428,-1,110,112,374,-1,374,112,435,-1,374,435,335,-1,335,435,436,-1,335,436,336,-1,336,436,437,-1,336,437,338,-1,338,437,438,-1,338,438,339,-1,339,438,439,-1,339,439,354,-1,354,439,440,-1,354,440,355,-1,355,440,441,-1,355,441,356,-1,356,441,442,-1,356,442,357,-1,357,442,443,-1,357,443,347,-1,443,444,347,-1,347,444,100,-1,347,100,101,-1,109,107,445,-1,445,107,389,-1,445,389,446,-1,446,389,414,-1,446,414,447,-1,447,414,413,-1,447,413,448,-1,448,413,412,-1,448,412,449,-1,449,412,411,-1,449,411,450,-1,450,411,400,-1,450,400,451,-1,451,400,399,-1,451,399,452,-1,452,399,398,-1,452,398,453,-1,453,398,397,-1,453,397,454,-1,397,390,454,-1,454,390,99,-1,454,99,98,-1,420,421,455,-1,455,421,422,-1,455,422,109,-1,109,422,423,-1,109,423,108,-1,455,456,420,-1,420,456,457,-1,420,457,419,-1,419,457,458,-1,458,459,419,-1,419,459,460,-1,419,460,418,-1,418,460,461,-1,418,461,417,-1,417,461,462,-1,417,462,416,-1,416,462,463,-1,416,463,415,-1,415,463,103,-1,415,103,102,-1,464,465,466,-1,467,468,469,-1,470,471,472,-1,100,473,474,-1,475,473,100,-1,472,471,100,-1,476,100,471,-1,424,477,425,-1,425,477,478,-1,425,478,426,-1,426,478,427,-1,427,478,479,-1,427,479,428,-1,428,479,434,-1,434,479,480,-1,434,480,433,-1,433,480,432,-1,432,480,481,-1,432,481,431,-1,431,481,430,-1,430,481,482,-1,430,482,429,-1,429,482,435,-1,429,435,112,-1,444,475,100,-1,483,484,470,-1,470,484,485,-1,470,485,471,-1,471,485,486,-1,471,486,476,-1,487,474,488,-1,488,474,473,-1,488,473,489,-1,489,473,475,-1,489,475,490,-1,468,483,469,-1,469,483,470,-1,469,470,491,-1,491,470,472,-1,491,472,492,-1,492,472,100,-1,444,443,475,-1,475,443,442,-1,475,442,490,-1,490,442,441,-1,490,441,440,-1,493,487,494,-1,494,487,488,-1,494,488,495,-1,495,488,489,-1,495,489,496,-1,496,489,490,-1,496,490,497,-1,497,490,440,-1,466,493,498,-1,498,493,494,-1,498,494,499,-1,499,494,495,-1,499,495,500,-1,500,495,496,-1,500,496,501,-1,501,496,497,-1,501,497,502,-1,465,467,466,-1,466,467,469,-1,466,469,493,-1,493,469,491,-1,493,491,487,-1,487,491,492,-1,487,492,474,-1,474,492,100,-1,424,104,477,-1,477,104,503,-1,477,503,464,-1,440,439,497,-1,497,439,438,-1,497,438,502,-1,502,438,437,-1,502,437,436,-1,464,466,477,-1,477,466,498,-1,477,498,478,-1,478,498,499,-1,478,499,479,-1,479,499,500,-1,479,500,480,-1,480,500,501,-1,480,501,481,-1,481,501,502,-1,481,502,482,-1,482,502,436,-1,482,436,435,-1,448,449,504,-1,505,506,507,-1,98,508,509,-1,510,508,98,-1,507,506,98,-1,454,98,506,-1,511,456,455,-1,456,511,457,-1,457,511,512,-1,457,512,458,-1,458,512,513,-1,458,513,459,-1,459,513,514,-1,459,514,460,-1,460,514,461,-1,461,514,515,-1,461,515,462,-1,462,515,463,-1,463,515,516,-1,463,516,103,-1,517,510,98,-1,450,451,505,-1,505,451,452,-1,505,452,506,-1,506,452,453,-1,506,453,454,-1,518,509,519,-1,519,509,508,-1,519,508,520,-1,520,508,510,-1,520,510,521,-1,517,522,510,-1,510,522,523,-1,510,523,521,-1,521,523,524,-1,521,524,525,-1,504,518,526,-1,526,518,519,-1,526,519,527,-1,527,519,520,-1,527,520,528,-1,528,520,521,-1,528,521,529,-1,529,521,525,-1,446,447,530,-1,530,447,448,-1,448,504,530,-1,530,504,526,-1,530,526,531,-1,531,526,527,-1,531,527,532,-1,532,527,528,-1,532,528,533,-1,533,528,529,-1,533,529,534,-1,449,450,504,-1,504,450,505,-1,504,505,518,-1,518,505,507,-1,518,507,509,-1,509,507,98,-1,446,511,445,-1,445,511,455,-1,445,455,109,-1,525,535,529,-1,529,535,536,-1,529,536,534,-1,534,536,537,-1,534,537,538,-1,446,530,511,-1,511,530,531,-1,511,531,512,-1,512,531,532,-1,512,532,513,-1,513,532,533,-1,513,533,514,-1,514,533,534,-1,514,534,515,-1,515,534,538,-1,515,538,516,-1,104,103,503,-1,503,103,516,-1,503,516,464,-1,464,516,538,-1,464,538,465,-1,465,538,537,-1,465,537,467,-1,467,537,536,-1,467,536,468,-1,468,536,535,-1,468,535,483,-1,483,535,525,-1,483,525,484,-1,484,525,524,-1,484,524,485,-1,485,524,523,-1,485,523,486,-1,486,523,522,-1,486,522,476,-1,522,517,476,-1,476,517,98,-1,476,98,100,-1,
        ]
    }
}
Shape{
    appearance Appearance {
        material  Material {
            diffuseColor 0.8509803921568627 0.8509803921568627 0.8509803921568627
            specularColor 0.4235294117647059 0.4235294117647059 0.4235294117647059
            ambientIntensity 0.851
            transparency 0.0
            shininess 0.5
        }
    }
    geometry IndexedFaceSet {
        ccw TRUE
        solid FALSE
        coord DEF co Coordinate {
            point [
                0.5489 -0.1851 0.0039, 0.5489 -0.1851 0.0, 0.5489 -0.5394 0.0039, 0.5489 -0.5394 0.0, 0.7029 -0.1851 0.0097, 0.706 -0.1851 0.0138, 0.9252 -0.1851 0.0, 0.6988 -0.1851 0.0066, 0.689 -0.1851 0.0039, 0.6941 -0.1851 0.0046, 0.7087 -0.1851 0.0787, 0.9252 -0.1851 0.0787, 0.7087 -0.1851 0.0236, 0.708 -0.1851 0.0185, 0.9252 -0.5394 0.0787, 0.7087 -0.5394 0.0787, 0.9252 -0.5394 0.0, 0.7087 -0.5394 0.0236, 0.708 -0.5394 0.0185, 0.706 -0.5394 0.0138, 0.7029 -0.5394 0.0097, 0.6988 -0.5394 0.0066, 0.6941 -0.5394 0.0046, 0.689 -0.5394 0.0039, -1.2992 -0.3544 0.0039, -1.2992 -0.3544 0.0, -1.2992 -0.6012 0.0039, -1.2992 -0.6012 0.0, 0.098 -0.6012 0.0, 0.098 -0.6012 0.0039, -0.4049 -0.6012 0.0, 0.098 0.6012 0.0, 0.098 0.6012 0.0039, 0.098 -0.0697 0.0, -1.2992 0.6012 0.0, -1.2992 0.6012 0.0039, -0.4049 0.6012 0.0, -1.2992 0.3543 0.0039, -1.2992 0.3543 0.0, -1.4116 -0.3544 0.0097, -1.4147 -0.3544 0.0138, -1.6339 -0.3544 0.0, -1.4075 -0.3544 0.0066, -1.3976 -0.3544 0.0039, -1.4027 -0.3544 0.0046, -1.4173 -0.3544 0.0787, -1.6339 -0.3544 0.0787, -1.4173 -0.3544 0.0236, -1.4167 -0.3544 0.0185, -1.6339 0.3543 0.0787, -1.4173 0.3543 0.0787, -1.6339 0.3543 0.0, -1.4173 0.3543 0.0236, -1.4167 0.3543 0.0185, -1.4147 0.3543 0.0138, -1.4116 0.3543 0.0097, -1.4075 0.3543 0.0066, -1.4027 0.3543 0.0046, -1.3976 0.3543 0.0039, -1.6339 0.2661 0.0787, -1.6339 0.2661 0.0, -1.5922 0.2661 0.0787, -1.5922 0.2661 0.0, -1.5922 -0.2661 0.0787, -1.5922 -0.0697 0.0, -1.5922 -0.2661 0.0, -1.6339 -0.2661 0.0787, -1.6339 -0.2661 0.0, 0.5489 0.5394 0.0039, 0.5489 0.5394 0.0, 0.5489 0.185 0.0039, 0.5489 0.185 0.0, 0.6941 0.5394 0.0046, 0.6988 0.5394 0.0066, 0.9252 0.5394 0.0, 0.7029 0.5394 0.0097, 0.706 0.5394 0.0138, 0.7087 0.5394 0.0787, 0.9252 0.5394 0.0787, 0.7087 0.5394 0.0236, 0.708 0.5394 0.0185, 0.689 0.5394 0.0039, 0.9252 0.185 0.0787, 0.7087 0.185 0.0787, 0.9252 0.185 0.0, 0.7087 0.185 0.0236, 0.708 0.185 0.0185, 0.706 0.185 0.0138, 0.7029 0.185 0.0097, 0.6988 0.185 0.0066, 0.6941 0.185 0.0046, 0.689 0.185 0.0039
            ]
        }
        coordIndex [
            0,1,2,-1,2,1,3,-1,4,5,6,-1,4,6,7,-1,1,0,8,-1,1,8,6,-1,6,8,9,-1,6,9,7,-1,10,11,12,-1,12,11,6,-1,12,6,13,-1,13,6,5,-1,14,15,16,-1,16,15,17,-1,16,17,18,-1,18,19,16,-1,16,19,20,-1,16,20,21,-1,21,22,16,-1,16,22,23,-1,16,23,3,-1,3,23,2,-1,11,14,6,-1,6,14,16,-1,15,14,10,-1,10,14,11,-1,3,1,16,-1,16,1,6,-1,24,25,26,-1,26,25,27,-1,28,29,30,-1,30,29,26,-1,30,26,27,-1,31,32,33,-1,33,32,29,-1,33,29,28,-1,34,35,36,-1,36,35,32,-1,36,32,31,-1,35,34,37,-1,37,34,38,-1,39,40,41,-1,39,41,42,-1,25,24,43,-1,25,43,41,-1,41,43,44,-1,41,44,42,-1,45,46,47,-1,47,46,41,-1,47,41,48,-1,48,41,40,-1,49,50,51,-1,51,50,52,-1,51,52,53,-1,53,54,51,-1,51,54,55,-1,51,55,56,-1,56,57,51,-1,51,57,58,-1,51,58,38,-1,38,58,37,-1,59,49,60,-1,60,49,51,-1,61,59,62,-1,62,59,60,-1,61,62,63,-1,63,62,64,-1,63,64,65,-1,66,63,67,-1,67,63,65,-1,46,66,41,-1,41,66,67,-1,66,46,63,-1,63,46,45,-1,63,45,61,-1,61,45,50,-1,61,50,59,-1,59,50,49,-1,68,69,70,-1,70,69,71,-1,72,73,74,-1,74,73,75,-1,74,75,76,-1,77,78,79,-1,79,78,74,-1,79,74,80,-1,80,74,76,-1,72,74,81,-1,81,74,69,-1,81,69,68,-1,82,83,84,-1,84,83,85,-1,84,85,86,-1,86,87,84,-1,84,87,88,-1,84,88,89,-1,89,90,84,-1,84,90,91,-1,84,91,71,-1,71,91,70,-1,78,82,74,-1,74,82,84,-1,83,82,77,-1,77,82,78,-1,71,69,84,-1,84,69,74,-1,
        ]
    }
}
Shape{
    appearance Appearance {
        material  Material {
            diffuseColor 0.2235294117647059 0.2235294117647059 0.2235294117647059
            specularColor 0.11372549019607843 0.11372549019607843 0.11372549019607843
            ambientIntensity 0.2235
            transparency 0.0
            shininess 0.5
        }
    }
    geometry IndexedFaceSet {
        ccw TRUE
        solid FALSE
        coord DEF co Coordinate {
            point [
                -0.528 -0.0307 0.0039, -0.5247 -0.0415 0.0039, -0.5609 -0.0307 0.0039, -0.5653 -0.0415 0.0039, -0.5427 0.0104 0.0039, -0.5381 0.0293 0.0039, -0.5009 -0.0691 0.0039, -0.5153 -0.0691 0.0039, -0.5436 0.0138 0.0039, -0.5443 0.0173 0.0039, -0.5513 0.0293 0.0039, -0.5446 0.0173 0.0039, -0.5452 0.0139 0.0039, -0.5461 0.0104 0.0039, -0.5897 -0.0691 0.0039, -0.5753 -0.0691 0.0039, -0.5897 -0.0691 0.0, -0.5513 0.0293 0.0, -0.5381 0.0293 0.0, -0.5009 -0.0691 0.0, -0.5153 -0.0691 0.0, -0.5247 -0.0415 0.0, -0.5653 -0.0415 0.0, -0.5753 -0.0691 0.0, -0.5609 -0.0307 0.0, -0.528 -0.0307 0.0, -0.5461 0.0104 0.0, -0.5452 0.0139 0.0, -0.5446 0.0173 0.0, -0.5443 0.0173 0.0, -0.5436 0.0138 0.0, -0.5427 0.0104 0.0, -0.4903 0.0003 0.0039, -0.4857 0.0088 0.0039, -0.4739 0.0047 0.0039, -0.4788 0.0165 0.0039, -0.4691 0.0098 0.0039, -0.4787 0.0166 0.0039, -0.462 0.0145 0.0039, -0.468 0.0238 0.0039, -0.4538 0.0173 0.0039, -0.4565 0.0278 0.0039, -0.4422 0.0185 0.0039, -0.4422 0.0293 0.0039, -0.4277 0.0185 0.0039, -0.4145 0.0293 0.0039, -0.4277 -0.0583 0.0039, -0.4145 -0.0691 0.0039, -0.4416 -0.0583 0.0039, -0.4412 -0.0691 0.0039, -0.452 -0.0573 0.0039, -0.4534 -0.068 0.0039, -0.4603 -0.0547 0.0039, -0.4647 -0.0646 0.0039, -0.467 -0.0507 0.0039, -0.475 -0.0587 0.0039, -0.4725 -0.0453 0.0039, -0.4831 -0.0509 0.0039, -0.4767 -0.0385 0.0039, -0.4888 -0.0421 0.0039, -0.4796 -0.0293 0.0039, -0.4923 -0.0318 0.0039, -0.4805 -0.0189 0.0039, -0.4937 -0.0186 0.0039, -0.4796 -0.0091 0.0039, -0.493 -0.0094 0.0039, -0.4773 -0.0013 0.0039, -0.4145 -0.0691 0.0, -0.4412 -0.0691 0.0, -0.4937 -0.0186 0.0, -0.4923 -0.0318 0.0, -0.4888 -0.0421 0.0, -0.4831 -0.0509 0.0, -0.475 -0.0587 0.0, -0.4647 -0.0646 0.0, -0.4534 -0.068 0.0, -0.4422 0.0293 0.0, -0.4565 0.0278 0.0, -0.468 0.0238 0.0, -0.4787 0.0166 0.0, -0.4788 0.0165 0.0, -0.4857 0.0088 0.0, -0.4903 0.0003 0.0, -0.493 -0.0094 0.0, -0.4145 0.0293 0.0, -0.4277 0.0185 0.0, -0.4422 0.0185 0.0, -0.4277 -0.0583 0.0, -0.4416 -0.0583 0.0, -0.452 -0.0573 0.0, -0.4603 -0.0547 0.0, -0.467 -0.0507 0.0, -0.4725 -0.0453 0.0, -0.4767 -0.0385 0.0, -0.4796 -0.0293 0.0, -0.4805 -0.0189 0.0, -0.4796 -0.0091 0.0, -0.4773 -0.0013 0.0, -0.4739 0.0047 0.0, -0.4691 0.0098 0.0, -0.462 0.0145 0.0, -0.4538 0.0173 0.0, -0.3953 -0.0691 0.0, -0.3953 -0.0583 0.0, -0.3953 -0.0691 0.0039, -0.3953 -0.0583 0.0039, -0.3556 -0.0583 0.0, -0.3556 -0.0583 0.0039, -0.3556 -0.0247 0.0, -0.3556 -0.0247 0.0039, -0.3905 -0.0247 0.0, -0.3905 -0.0247 0.0039, -0.3905 -0.0139 0.0, -0.3905 -0.0139 0.0039, -0.3556 -0.0139 0.0, -0.3556 -0.0139 0.0039, -0.3556 0.0185 0.0, -0.3556 0.0185 0.0039, -0.3929 0.0185 0.0, -0.3929 0.0185 0.0039, -0.3929 0.0293 0.0, -0.3929 0.0293 0.0039, -0.3424 0.0293 0.0, -0.3424 0.0293 0.0039, -0.3424 -0.0691 0.0, -0.3424 -0.0691 0.0039, -0.3232 -0.064 0.0, -0.3232 -0.0532 0.0, -0.3232 -0.064 0.0039, -0.3232 -0.0532 0.0039, -0.298 -0.0595 0.0, -0.298 -0.0595 0.0039, -0.311 -0.058 0.0039, -0.311 -0.058 0.0, -0.3215 -0.0542 0.0039, -0.3215 -0.0542 0.0, -0.2632 -0.0209 0.0, -0.2632 -0.0209 0.0039, -0.2642 -0.0316 0.0039, -0.2642 -0.0316 0.0, -0.2669 -0.04 0.0039, -0.2669 -0.04 0.0, -0.271 -0.0469 0.0039, -0.271 -0.0469 0.0, -0.2756 -0.0517 0.0039, -0.2756 -0.0517 0.0, -0.2816 -0.0558 0.0039, -0.2816 -0.0558 0.0, -0.2888 -0.0585 0.0039, -0.2888 -0.0585 0.0, -0.3002 0.0197 0.0, -0.3002 0.0197 0.0039, -0.2905 0.0186 0.0039, -0.2905 0.0186 0.0, -0.2831 0.016 0.0039, -0.2831 0.016 0.0, -0.2763 0.0114 0.0039, -0.2763 0.0114 0.0, -0.2704 0.0049 0.0039, -0.2704 0.0049 0.0, -0.2663 -0.0027 0.0039, -0.2663 -0.0027 0.0, -0.2637 -0.0133 0.0039, -0.2637 -0.0133 0.0, -0.3232 0.0134 0.0, -0.3232 0.0134 0.0039, -0.3122 0.0182 0.0039, -0.3122 0.0182 0.0, -0.3232 0.0266 0.0, -0.3232 0.0266 0.0039, -0.3001 0.0305 0.0, -0.3001 0.0305 0.0039, -0.3119 0.0297 0.0039, -0.3119 0.0297 0.0, -0.25 -0.0217 0.0, -0.25 -0.0217 0.0039, -0.2514 -0.0077 0.0039, -0.2514 -0.0077 0.0, -0.2552 0.0034 0.0039, -0.2552 0.0034 0.0, -0.261 0.0126 0.0039, -0.261 0.0126 0.0, -0.2699 0.0212 0.0039, -0.2699 0.0212 0.0, -0.2792 0.0265 0.0039, -0.2792 0.0265 0.0, -0.2902 0.0297 0.0039, -0.2902 0.0297 0.0, -0.2904 -0.0697 0.0, -0.2962 -0.0703 0.0, -0.2962 -0.0703 0.0039, -0.284 -0.069 0.0, -0.284 -0.069 0.0039, -0.2745 -0.0657 0.0039, -0.2745 -0.0657 0.0, -0.2666 -0.0607 0.0039, -0.2666 -0.0607 0.0, -0.2592 -0.0529 0.0039, -0.2592 -0.0529 0.0, -0.2539 -0.0436 0.0039, -0.2539 -0.0436 0.0, -0.251 -0.0331 0.0039, -0.251 -0.0331 0.0, -0.3127 -0.0683 0.0, -0.3127 -0.0683 0.0039, -0.3028 -0.0697 0.0, -0.2988 -0.0702 0.0039, -0.2988 -0.0702 0.0, -0.2416 -0.0691 0.0, -0.2416 -0.0583 0.0, -0.2416 -0.0691 0.0039, -0.2416 -0.0583 0.0039, -0.2044 -0.0583 0.0, -0.2044 -0.0583 0.0039, -0.2044 0.0293 0.0, -0.2044 0.0293 0.0039, -0.1912 0.0293 0.0, -0.1912 0.0293 0.0039, -0.1912 -0.0691 0.0, -0.1912 -0.0691 0.0039
            ]
        }
        coordIndex [
            0,1,2,-1,2,1,3,-1,4,5,0,-1,0,5,6,-1,0,6,1,-1,1,6,7,-1,4,8,5,-1,5,8,9,-1,5,9,10,-1,10,9,11,-1,10,11,12,-1,12,13,10,-1,10,13,2,-1,10,2,14,-1,14,2,3,-1,14,3,15,-1,16,17,14,-1,14,17,10,-1,17,18,10,-1,10,18,5,-1,18,19,5,-1,5,19,6,-1,19,20,6,-1,6,20,7,-1,20,21,7,-1,7,21,1,-1,21,22,1,-1,1,22,3,-1,22,23,3,-1,3,23,15,-1,23,16,15,-1,15,16,14,-1,24,25,2,-1,2,25,0,-1,26,24,13,-1,13,24,2,-1,26,13,12,-1,26,12,27,-1,27,12,11,-1,27,11,28,-1,29,28,9,-1,9,28,11,-1,29,9,8,-1,29,8,30,-1,30,8,4,-1,30,4,31,-1,25,31,0,-1,0,31,4,-1,32,33,34,-1,34,33,35,-1,34,35,36,-1,36,35,37,-1,36,37,38,-1,38,37,39,-1,38,39,40,-1,40,39,41,-1,40,41,42,-1,42,41,43,-1,42,43,44,-1,44,43,45,-1,44,45,46,-1,46,45,47,-1,46,47,48,-1,48,47,49,-1,48,49,50,-1,50,49,51,-1,50,51,52,-1,52,51,53,-1,52,53,54,-1,54,53,55,-1,54,55,56,-1,56,55,57,-1,56,57,58,-1,58,57,59,-1,58,59,60,-1,60,59,61,-1,60,61,62,-1,62,61,63,-1,62,63,64,-1,64,63,65,-1,64,65,66,-1,66,65,32,-1,66,32,34,-1,67,68,47,-1,47,68,49,-1,69,63,61,-1,69,61,70,-1,70,61,59,-1,70,59,71,-1,71,59,57,-1,71,57,72,-1,72,57,55,-1,72,55,73,-1,73,55,53,-1,73,53,74,-1,74,53,51,-1,74,51,75,-1,75,51,49,-1,75,49,68,-1,76,43,41,-1,76,41,77,-1,77,41,39,-1,77,39,78,-1,78,39,37,-1,78,37,79,-1,79,37,35,-1,79,35,80,-1,80,35,33,-1,80,33,81,-1,81,33,32,-1,81,32,82,-1,82,32,65,-1,82,65,83,-1,83,65,63,-1,83,63,69,-1,76,84,43,-1,43,84,45,-1,84,67,45,-1,45,67,47,-1,85,86,44,-1,44,86,42,-1,87,85,46,-1,46,85,44,-1,88,87,48,-1,48,87,46,-1,88,48,50,-1,88,50,89,-1,89,50,52,-1,89,52,90,-1,90,52,54,-1,90,54,91,-1,91,54,56,-1,91,56,92,-1,92,56,58,-1,92,58,93,-1,93,58,60,-1,93,60,94,-1,94,60,62,-1,94,62,95,-1,95,62,64,-1,95,64,96,-1,96,64,66,-1,96,66,97,-1,97,66,34,-1,97,34,98,-1,98,34,36,-1,98,36,99,-1,99,36,38,-1,99,38,100,-1,100,38,40,-1,100,40,101,-1,101,40,42,-1,101,42,86,-1,102,103,104,-1,104,103,105,-1,103,106,105,-1,105,106,107,-1,106,108,107,-1,107,108,109,-1,108,110,109,-1,109,110,111,-1,110,112,111,-1,111,112,113,-1,112,114,113,-1,113,114,115,-1,114,116,115,-1,115,116,117,-1,116,118,117,-1,117,118,119,-1,118,120,119,-1,119,120,121,-1,120,122,121,-1,121,122,123,-1,122,124,123,-1,123,124,125,-1,124,102,125,-1,125,102,104,-1,125,104,105,-1,105,107,125,-1,125,107,109,-1,125,109,123,-1,119,121,117,-1,117,121,123,-1,117,123,115,-1,115,123,109,-1,115,109,113,-1,113,109,111,-1,126,127,128,-1,128,127,129,-1,130,131,132,-1,130,132,133,-1,133,132,134,-1,133,134,135,-1,135,134,129,-1,135,129,127,-1,136,137,138,-1,136,138,139,-1,139,138,140,-1,139,140,141,-1,141,140,142,-1,141,142,143,-1,143,142,144,-1,143,144,145,-1,145,144,146,-1,145,146,147,-1,147,146,148,-1,147,148,149,-1,149,148,131,-1,149,131,130,-1,150,151,152,-1,150,152,153,-1,153,152,154,-1,153,154,155,-1,155,154,156,-1,155,156,157,-1,157,156,158,-1,157,158,159,-1,159,158,160,-1,159,160,161,-1,161,160,162,-1,161,162,163,-1,163,162,137,-1,163,137,136,-1,164,165,166,-1,164,166,167,-1,167,166,151,-1,167,151,150,-1,164,168,165,-1,165,168,169,-1,170,171,172,-1,170,172,173,-1,173,172,169,-1,173,169,168,-1,174,175,176,-1,174,176,177,-1,177,176,178,-1,177,178,179,-1,179,178,180,-1,179,180,181,-1,181,180,182,-1,181,182,183,-1,183,182,184,-1,183,184,185,-1,185,184,186,-1,185,186,187,-1,187,186,171,-1,187,171,170,-1,188,189,190,-1,188,190,191,-1,190,192,191,-1,191,192,193,-1,191,193,194,-1,194,193,195,-1,194,195,196,-1,196,195,197,-1,196,197,198,-1,198,197,199,-1,198,199,200,-1,200,199,201,-1,200,201,202,-1,202,201,175,-1,202,175,174,-1,203,126,204,-1,204,126,128,-1,203,204,205,-1,205,204,206,-1,205,206,207,-1,207,206,190,-1,207,190,189,-1,148,190,131,-1,131,190,206,-1,131,206,132,-1,132,206,204,-1,132,204,134,-1,134,204,128,-1,134,128,129,-1,165,169,166,-1,166,169,172,-1,166,172,151,-1,151,172,171,-1,151,171,152,-1,152,171,186,-1,152,186,154,-1,154,186,184,-1,154,184,156,-1,156,184,182,-1,156,182,158,-1,158,182,180,-1,158,180,160,-1,160,180,178,-1,160,178,162,-1,162,178,176,-1,162,176,137,-1,137,176,175,-1,137,175,138,-1,138,175,201,-1,138,201,140,-1,140,201,199,-1,140,199,142,-1,142,199,197,-1,142,197,144,-1,144,197,195,-1,144,195,146,-1,146,195,193,-1,146,193,148,-1,148,193,192,-1,148,192,190,-1,208,209,210,-1,210,209,211,-1,209,212,211,-1,211,212,213,-1,212,214,213,-1,213,214,215,-1,214,216,215,-1,215,216,217,-1,216,218,217,-1,217,218,219,-1,218,208,219,-1,219,208,210,-1,215,217,213,-1,213,217,219,-1,213,219,211,-1,211,219,210,-1,
        ]
    }
}
Shape{
    appearance Appearance {
        material  Material {
            diffuseColor 0.8509803921568627 0.8509803921568627 0.8509803921568627
            specularColor 0.4235294117647059 0.4235294117647059 0.4235294117647059
            ambientIntensity 0.851
            transparency 0.0
            shininess 0.5
        }
    }
    geometry IndexedFaceSet {
        ccw TRUE
        solid FALSE
        coord DEF co Coordinate {
            point [
                -0.528 -0.0307 0.0, -0.5609 -0.0307 0.0, -0.5427 0.0104 0.0, -0.5461 0.0104 0.0, -0.5436 0.0138 0.0, -0.5452 0.0139 0.0, -0.5443 0.0173 0.0, -0.5446 0.0173 0.0, -0.4277 0.0185 0.0, -0.4277 -0.0583 0.0, -0.4422 0.0185 0.0, -0.4416 -0.0583 0.0, -0.452 -0.0573 0.0, -0.4805 -0.0189 0.0, -0.4796 -0.0091 0.0, -0.4773 -0.0013 0.0, -0.4538 0.0173 0.0, -0.4603 -0.0547 0.0, -0.467 -0.0507 0.0, -0.4725 -0.0453 0.0, -0.4767 -0.0385 0.0, -0.4796 -0.0293 0.0, -0.4739 0.0047 0.0, -0.4691 0.0098 0.0, -0.462 0.0145 0.0
            ]
        }
        coordIndex [
            0,1,2,-1,2,1,3,-1,2,3,4,-1,4,3,5,-1,4,5,6,-1,6,5,7,-1,8,9,10,-1,10,9,11,-1,10,11,12,-1,13,14,10,-1,10,14,15,-1,10,15,16,-1,12,17,10,-1,10,17,18,-1,10,18,19,-1,19,20,10,-1,10,20,21,-1,10,21,13,-1,22,23,15,-1,15,23,24,-1,15,24,16,-1,
        ]
    }
}