#VRML V2.0 utf8
# 3D model generated by kicad-lcsc-manager
# Based on easyeda2kicad.py v1.0.1

Shape{
    appearance Appearance {
        material  Material {
            diffuseColor 0.20784313725490197 0.20784313725490197 0.20784313725490197
            specularColor 0.01568627450980392 0.01568627450980392 0.01568627450980392
            ambientIntensity 0.298
            transparency 0.0
            shininess 0.5
        }
    }
    geometry IndexedFaceSet {
        ccw TRUE
        solid FALSE
        coord DEF co Coordinate {
            point [
                0.0214 -0.0172 0.0051, 0.0166 -0.0153 0.0051, 0.0277 0.0133 0.0051, 0.0166 -0.0196 0.0051, 0.0127 -0.0219 0.0051, 0.0267 -0.0178 0.0051, 0.0694 -0.0216 0.0051, 0.0283 -0.0219 0.0051, 0.0492 -0.0216 0.0051, 0.0305 -0.0213 0.0051, 0.0379 -0.0186 0.0051, 0.0258 0.0139 0.0051, 0.021 0.0133 0.0051, 0.0166 0.0114 0.0051, 0.0166 0.0166 0.0051, 0.0127 0.5391 0.0051, 0.0211 0.0179 0.0051, 0.0258 0.0182 0.0051, 0.0366 0.0092 0.0051, 0.038 0.0076 0.0051, 0.0311 -0.0168 0.0051, 0.039 0.0055 0.0051, 0.0399 0.0024 0.0051, 0.0406 -0.0024 0.0051, 0.0396 -0.0072 0.0051, 0.0338 -0.0158 0.0051, 0.0386 0.0139 0.0051, 0.0406 0.0119 0.0051, 0.0426 0.0086 0.0051, 0.0342 0.0109 0.0051, 0.0382 -0.0113 0.0051, 0.0369 -0.0134 0.0051, 0.0357 -0.0146 0.0051, 0.0408 -0.0167 0.0051, 0.0425 -0.0147 0.0051, 0.0492 -0.0173 0.0051, 0.0438 -0.0122 0.0051, 0.0449 -0.0085 0.0051, 0.0458 -0.0027 0.0051, 0.0454 -0.0005 0.0051, 0.036 0.0155 0.0051, 0.0321 0.0169 0.0051, 0.0218 -0.0216 0.0051, 0.025 -0.0219 0.0051, 0.0127 -0.5391 0.0051, 0.0274 -0.0221 0.0051, 0.0641 -0.0173 0.0051, 0.0641 0.0177 0.0051, 0.0694 0.0177 0.0051, 0.2438 0.5391 0.0051, 0.2438 -0.0219 0.0051, 0.2438 -0.5391 0.0051, 0.0036 0.0134 0.0051, 0.0036 0.0004 0.0051, -0.0113 0.0134 0.0051, -0.0103 0.0004 0.0051, -0.0103 -0.0039 0.0051, -0.0199 -0.0216 0.0051, -0.0122 -0.0173 0.0051, -0.0122 -0.0216 0.0051, -0.0199 0.0177 0.0051, -0.031 0.0177 0.0051, -0.0694 0.0177 0.0051, -0.2438 0.5391 0.0051, -0.0747 0.0177 0.0051, -0.2438 -0.0219 0.0051, -0.0337 0.0172 0.0051, -0.0422 0.0147 0.0051, -0.0454 0.0128 0.0051, -0.0473 0.0109 0.0051, -0.0489 0.0083 0.0051, -0.0503 0.0046 0.0051, -0.0516 -0.0015 0.0051, -0.0545 -0.0216 0.0051, -0.051 -0.0038 0.0051, -0.0479 -0.0127 0.0051, -0.0458 -0.0159 0.0051, 0.0036 -0.0039 0.0051, 0.0036 -0.0173 0.0051, -0.0113 0.0177 0.0051, 0.0089 0.0177 0.0051, 0.0089 -0.0216 0.0051, -0.0437 -0.0178 0.0051, -0.041 -0.0193 0.0051, -0.037 -0.0205 0.0051, -0.09 -0.0216 0.0051, -0.0843 -0.0216 0.0051, -0.0306 -0.0216 0.0051, -0.0803 -0.0106 0.0051, -0.064 -0.0106 0.0051, -0.0603 -0.0216 0.0051, -0.2438 -0.5391 0.0051, -0.2756 0.0689 0.1626, -0.2756 0.5513 0.1626, -0.2728 0.0689 0.1311, -0.2634 0.5391 0.0231, -0.2728 -0.0689 0.1311, -0.2634 -0.5391 0.0231, -0.2756 -0.0689 0.1626, -0.2756 -0.5513 0.1626, -0.2582 0.5339 0.3612, -0.2582 -0.5339 0.3612, 0.2386 -0.5535 0.3612, -0.2386 -0.5535 0.3612, 0.256 -0.5709 0.1626, -0.256 -0.5709 0.1626, 0.2756 0.4429 0.1626, 0.2756 0.5513 0.1626, 0.2582 0.5339 0.3612, 0.2756 -0.5513 0.1626, 0.2756 -0.4429 0.1626, 0.2582 -0.5339 0.3612, 0.2756 -0.3051 0.1626, 0.2756 0.3051 0.1626, -0.2386 0.5535 0.3612, 0.2386 0.5535 0.3612, -0.256 0.5709 0.1626, 0.256 0.5709 0.1626, -0.2386 0.5339 0.3791, -0.2386 -0.5339 0.3791, 0.2386 0.5339 0.3791, 0.2386 -0.5339 0.3791, 0.2438 -0.5587 0.0231, -0.2438 -0.5587 0.0231, 0.2438 0.5587 0.0231, -0.2438 0.5587 0.0231, 0.2634 0.5391 0.0231, 0.2728 0.4429 0.1311, 0.2728 0.3051 0.1311, 0.2634 -0.5391 0.0231, 0.2728 -0.4429 0.1311, 0.2728 -0.3051 0.1311
            ]
        }
        coordIndex [
            0,1,2,-1,1,3,4,-1,0,2,5,-1,6,7,8,-1,8,7,9,-1,8,9,10,-1,11,2,12,-1,12,2,1,-1,12,1,13,-1,13,1,4,-1,13,4,14,-1,14,4,15,-1,14,15,16,-1,16,15,17,-1,18,19,20,-1,20,19,21,-1,20,21,22,-1,22,23,20,-1,20,23,24,-1,20,24,25,-1,26,15,27,-1,27,15,28,-1,5,2,20,-1,20,2,29,-1,20,29,18,-1,30,31,24,-1,24,31,32,-1,24,32,25,-1,10,33,8,-1,8,33,34,-1,8,34,35,-1,35,34,36,-1,36,37,35,-1,35,37,38,-1,35,38,15,-1,15,38,39,-1,15,39,28,-1,26,40,15,-1,15,40,41,-1,15,41,17,-1,3,42,4,-1,4,42,43,-1,4,43,44,-1,44,43,45,-1,44,45,7,-1,46,35,47,-1,47,35,15,-1,47,15,48,-1,48,15,49,-1,48,49,6,-1,6,49,50,-1,6,50,7,-1,7,50,51,-1,7,51,44,-1,52,53,54,-1,54,53,55,-1,54,55,56,-1,57,58,59,-1,15,60,61,-1,15,62,63,-1,63,62,64,-1,63,64,65,-1,61,66,15,-1,15,66,67,-1,15,67,62,-1,67,68,62,-1,62,68,69,-1,62,69,70,-1,70,71,62,-1,62,71,72,-1,62,72,73,-1,72,74,73,-1,73,74,75,-1,73,75,76,-1,56,77,78,-1,78,58,56,-1,56,58,57,-1,56,57,54,-1,54,57,60,-1,54,60,79,-1,79,60,15,-1,79,15,80,-1,80,15,4,-1,80,4,81,-1,76,82,73,-1,73,82,83,-1,73,83,84,-1,85,86,4,-1,87,57,4,-1,4,57,59,-1,4,59,81,-1,88,89,86,-1,86,89,90,-1,86,90,4,-1,4,90,73,-1,4,73,87,-1,87,73,84,-1,64,85,65,-1,65,85,4,-1,65,4,91,-1,91,4,44,-1,92,93,94,-1,94,93,95,-1,94,95,96,-1,96,95,97,-1,96,97,98,-1,98,97,99,-1,100,93,92,-1,100,92,101,-1,101,92,98,-1,101,98,99,-1,102,103,104,-1,104,103,105,-1,106,107,108,-1,109,110,111,-1,111,110,112,-1,111,112,108,-1,108,112,113,-1,108,113,106,-1,114,115,116,-1,116,115,117,-1,118,119,120,-1,120,119,121,-1,104,105,122,-1,122,105,123,-1,124,125,117,-1,117,125,116,-1,126,107,106,-1,106,127,126,-1,126,127,128,-1,126,128,129,-1,110,109,130,-1,130,109,129,-1,130,129,131,-1,131,129,128,-1,131,128,112,-1,112,128,113,-1,
        ]
    }
}
Shape{
    appearance Appearance {
        material  Material {
            diffuseColor 0.8313725490196079 0.8313725490196079 0.8196078431372549
            specularColor 0.6666666666666666 0.6666666666666666 0.6549019607843137
            ambientIntensity 0.83
            transparency 0.0
            shininess 0.5
        }
    }
    geometry IndexedFaceSet {
        ccw TRUE
        solid FALSE
        coord DEF co Coordinate {
            point [
                -0.3771 0.0689 0.1466, -0.3771 -0.0689 0.1466, -0.3744 -0.0689 0.1519, -0.3744 0.0689 0.1519, -0.3705 -0.0689 0.1564, -0.3705 0.0689 0.1564, -0.3657 -0.0689 0.1598, -0.3657 0.0689 0.1598, -0.3602 -0.0689 0.1619, -0.3602 0.0689 0.1619, -0.3543 -0.0689 0.1626, -0.3543 0.0689 0.1626, -0.2756 0.0689 0.1626, -0.2756 -0.0689 0.1626, -0.3354 0.0689 0.1311, -0.2728 0.0689 0.1311, -0.3354 -0.0689 0.1311, -0.2728 -0.0689 0.1311, -0.3401 0.0689 0.1305, -0.3401 -0.0689 0.1305, -0.3446 0.0689 0.1288, -0.3446 -0.0689 0.1288, -0.3486 0.0689 0.126, -0.3486 -0.0689 0.126, -0.3517 0.0689 0.1224, -0.3517 -0.0689 0.1224, -0.3539 0.0689 0.1181, -0.3539 -0.0689 0.1181, -0.3906 0.0689 0.016, -0.3906 -0.0689 0.016, -0.3933 -0.0689 0.0107, -0.3933 0.0689 0.0107, -0.3972 -0.0689 0.0062, -0.3972 0.0689 0.0062, -0.402 -0.0689 0.0028, -0.402 0.0689 0.0028, -0.4075 -0.0689 0.0007, -0.4075 0.0689 0.0007, -0.4134 -0.0689 0.0, -0.4134 0.0689 0.0, -0.4921 0.0689 0.0, -0.4921 -0.0689 0.0, -0.4921 0.0689 0.0315, -0.4921 -0.0689 0.0315, -0.4324 0.0689 0.0315, -0.4324 -0.0689 0.0315, -0.4276 0.0689 0.0321, -0.4276 -0.0689 0.0321, -0.4231 0.0689 0.0338, -0.4231 -0.0689 0.0338, -0.4192 0.0689 0.0366, -0.4192 -0.0689 0.0366, -0.416 0.0689 0.0402, -0.416 -0.0689 0.0402, -0.4138 0.0689 0.0445, -0.4138 -0.0689 0.0445, 0.3539 0.4429 0.1181, 0.3906 0.4429 0.016, 0.3539 0.3051 0.1181, 0.3906 0.3051 0.016, 0.3517 0.4429 0.1224, 0.3517 0.3051 0.1224, 0.3486 0.4429 0.126, 0.3486 0.3051 0.126, 0.3446 0.4429 0.1288, 0.3446 0.3051 0.1288, 0.3401 0.4429 0.1305, 0.3401 0.3051 0.1305, 0.3354 0.4429 0.1311, 0.3354 0.3051 0.1311, 0.2728 0.4429 0.1311, 0.2728 0.3051 0.1311, 0.3543 0.4429 0.1626, 0.2756 0.4429 0.1626, 0.3543 0.3051 0.1626, 0.2756 0.3051 0.1626, 0.3602 0.3051 0.1619, 0.3602 0.4429 0.1619, 0.3657 0.3051 0.1598, 0.3657 0.4429 0.1598, 0.3705 0.3051 0.1564, 0.3705 0.4429 0.1564, 0.3744 0.3051 0.1519, 0.3744 0.4429 0.1519, 0.3771 0.3051 0.1466, 0.3771 0.4429 0.1466, 0.4138 0.4429 0.0445, 0.4138 0.3051 0.0445, 0.416 0.4429 0.0402, 0.416 0.3051 0.0402, 0.4192 0.4429 0.0366, 0.4192 0.3051 0.0366, 0.4231 0.4429 0.0338, 0.4231 0.3051 0.0338, 0.4276 0.4429 0.0321, 0.4276 0.3051 0.0321, 0.4324 0.4429 0.0315, 0.4324 0.3051 0.0315, 0.4921 0.4429 0.0315, 0.4921 0.3051 0.0315, 0.4921 0.4429 0.0, 0.4921 0.3051 0.0, 0.4134 0.4429 0.0, 0.4134 0.3051 0.0, 0.4075 0.3051 0.0007, 0.4075 0.4429 0.0007, 0.402 0.3051 0.0028, 0.402 0.4429 0.0028, 0.3972 0.3051 0.0062, 0.3972 0.4429 0.0062, 0.3933 0.3051 0.0107, 0.3933 0.4429 0.0107, 0.3906 -0.4429 0.016, 0.3539 -0.4429 0.1181, 0.3906 -0.3051 0.016, 0.3539 -0.3051 0.1181, 0.3933 -0.3051 0.0107, 0.3933 -0.4429 0.0107, 0.3972 -0.3051 0.0062, 0.3972 -0.4429 0.0062, 0.402 -0.3051 0.0028, 0.402 -0.4429 0.0028, 0.4075 -0.3051 0.0007, 0.4075 -0.4429 0.0007, 0.4134 -0.3051 0.0, 0.4134 -0.4429 0.0, 0.4921 -0.4429 0.0, 0.4921 -0.3051 0.0, 0.4921 -0.4429 0.0315, 0.4921 -0.3051 0.0315, 0.4324 -0.4429 0.0315, 0.4324 -0.3051 0.0315, 0.4276 -0.4429 0.0321, 0.4276 -0.3051 0.0321, 0.4231 -0.4429 0.0338, 0.4231 -0.3051 0.0338, 0.4192 -0.4429 0.0366, 0.4192 -0.3051 0.0366, 0.416 -0.4429 0.0402, 0.416 -0.3051 0.0402, 0.4138 -0.4429 0.0445, 0.4138 -0.3051 0.0445, 0.3771 -0.4429 0.1466, 0.3771 -0.3051 0.1466, 0.3744 -0.3051 0.1519, 0.3744 -0.4429 0.1519, 0.3705 -0.3051 0.1564, 0.3705 -0.4429 0.1564, 0.3657 -0.3051 0.1598, 0.3657 -0.4429 0.1598, 0.3602 -0.3051 0.1619, 0.3602 -0.4429 0.1619, 0.3543 -0.3051 0.1626, 0.3543 -0.4429 0.1626, 0.2756 -0.4429 0.1626, 0.2756 -0.3051 0.1626, 0.3354 -0.4429 0.1311, 0.2728 -0.4429 0.1311, 0.3354 -0.3051 0.1311, 0.2728 -0.3051 0.1311, 0.3401 -0.4429 0.1305, 0.3401 -0.3051 0.1305, 0.3446 -0.4429 0.1288, 0.3446 -0.3051 0.1288, 0.3486 -0.4429 0.126, 0.3486 -0.3051 0.126, 0.3517 -0.4429 0.1224, 0.3517 -0.3051 0.1224, 0.0694 -0.0216 0.0051, 0.0694 -0.0216 0.0091, 0.0694 0.0177 0.0051, 0.0694 0.0177 0.0091, 0.0492 -0.0216 0.0051, 0.0492 -0.0216 0.0091, 0.0492 -0.0173 0.0051, 0.0492 -0.0173 0.0091, 0.0641 -0.0173 0.0051, 0.0641 -0.0173 0.0091, 0.0641 0.0177 0.0051, 0.0641 0.0177 0.0091, 0.0258 0.0139 0.0091, 0.0258 0.0139 0.0051, 0.021 0.0133 0.0051, 0.021 0.0133 0.0091, 0.0166 0.0114 0.0051, 0.0166 0.0114 0.0091, 0.0166 0.0166 0.0051, 0.0166 0.0166 0.0091, 0.0211 0.0179 0.0051, 0.0211 0.0179 0.0091, 0.0258 0.0182 0.0051, 0.0258 0.0182 0.0091, 0.0321 0.0169 0.0051, 0.0321 0.0169 0.0091, 0.036 0.0155 0.0051, 0.036 0.0155 0.0091, 0.0386 0.0139 0.0051, 0.0386 0.0139 0.0091, 0.0406 0.0119 0.0051, 0.0406 0.0119 0.0091, 0.0426 0.0086 0.0051, 0.0426 0.0086 0.0091, 0.0454 -0.0005 0.0051, 0.0454 -0.0005 0.0091, 0.0458 -0.0027 0.0051, 0.0458 -0.0027 0.0091, 0.0274 -0.0221 0.0051, 0.0274 -0.0221 0.0091, 0.0283 -0.0219 0.0051, 0.0305 -0.0213 0.0091, 0.0305 -0.0213 0.0051, 0.0379 -0.0186 0.0091, 0.0379 -0.0186 0.0051, 0.0408 -0.0167 0.0091, 0.0408 -0.0167 0.0051, 0.0425 -0.0147 0.0091, 0.0425 -0.0147 0.0051, 0.0438 -0.0122 0.0091, 0.0438 -0.0122 0.0051, 0.0449 -0.0085 0.0091, 0.0449 -0.0085 0.0051, 0.0166 -0.0196 0.0051, 0.0166 -0.0196 0.0091, 0.0218 -0.0216 0.0091, 0.025 -0.0219 0.0051, 0.0218 -0.0216 0.0051, 0.0166 -0.0153 0.0051, 0.0166 -0.0153 0.0091, 0.0214 -0.0172 0.0051, 0.0214 -0.0172 0.0091, 0.0267 -0.0178 0.0051, 0.0267 -0.0178 0.0091, 0.0311 -0.0168 0.0051, 0.0311 -0.0168 0.0091, 0.0338 -0.0158 0.0051, 0.0338 -0.0158 0.0091, 0.0357 -0.0146 0.0051, 0.0357 -0.0146 0.0091, 0.0369 -0.0134 0.0051, 0.0369 -0.0134 0.0091, 0.0382 -0.0113 0.0051, 0.0382 -0.0113 0.0091, 0.0396 -0.0072 0.0051, 0.0396 -0.0072 0.0091, 0.0406 -0.0024 0.0051, 0.0406 -0.0024 0.0091, 0.0399 0.0024 0.0051, 0.0399 0.0024 0.0091, 0.039 0.0055 0.0051, 0.039 0.0055 0.0091, 0.038 0.0076 0.0051, 0.038 0.0076 0.0091, 0.0366 0.0092 0.0051, 0.0366 0.0092 0.0091, 0.0342 0.0109 0.0051, 0.0342 0.0109 0.0091, 0.0277 0.0133 0.0051, 0.0277 0.0133 0.0091, -0.0103 0.0004 0.0051, -0.0103 0.0004 0.0091, -0.0103 -0.0039 0.0051, -0.0103 -0.0039 0.0091, 0.0036 0.0004 0.0051, 0.0036 0.0004 0.0091, 0.0036 0.0134 0.0051, 0.0036 0.0134 0.0091, -0.0113 0.0134 0.0051, -0.0113 0.0134 0.0091, -0.0113 0.0177 0.0051, -0.0113 0.0177 0.0091, 0.0089 0.0177 0.0051, 0.0089 0.0177 0.0091, 0.0089 -0.0216 0.0051, 0.0089 -0.0216 0.0091, -0.0122 -0.0216 0.0051, -0.0122 -0.0216 0.0091, -0.0122 -0.0173 0.0051, -0.0122 -0.0173 0.0091, 0.0036 -0.0173 0.0051, 0.0036 -0.0173 0.0091, 0.0036 -0.0039 0.0051, 0.0036 -0.0039 0.0091, -0.064 -0.0106 0.0051, -0.064 -0.0106 0.0091, -0.0603 -0.0216 0.0051, -0.0603 -0.0216 0.0091, -0.0803 -0.0106 0.0051, -0.0803 -0.0106 0.0091, -0.0843 -0.0216 0.0051, -0.0843 -0.0216 0.0091, -0.09 -0.0216 0.0051, -0.09 -0.0216 0.0091, -0.0747 0.0177 0.0051, -0.0747 0.0177 0.0091, -0.0694 0.0177 0.0051, -0.0694 0.0177 0.0091, -0.0545 -0.0216 0.0051, -0.0545 -0.0216 0.0091, -0.0785 -0.0063 0.0091, -0.0653 -0.0063 0.0091, -0.0712 0.0102 0.0091, -0.0754 0.0022 0.0091, -0.0785 -0.0063 0.0051, -0.0653 -0.0063 0.0051, -0.0712 0.0102 0.0051, -0.0754 0.0022 0.0051, -0.045 0.0037 0.0091, -0.0463 -0.0016 0.0091, -0.0516 -0.0015 0.0091, -0.051 -0.0038 0.0091, -0.0456 -0.0063 0.0091, -0.0479 -0.0127 0.0091, -0.0447 -0.0093 0.0091, -0.0437 -0.0114 0.0091, -0.0458 -0.0159 0.0091, -0.0424 -0.0129 0.0091, -0.0437 -0.0178 0.0091, -0.0404 -0.0144 0.0091, -0.041 -0.0193 0.0091, -0.0363 -0.016 0.0091, -0.0503 0.0046 0.0091, -0.0489 0.0083 0.0091, -0.0434 0.0077 0.0091, -0.0473 0.0109 0.0091, -0.042 0.0097 0.0091, -0.0454 0.0128 0.0091, -0.0405 0.0109 0.0091, -0.0422 0.0147 0.0091, -0.0385 0.0119 0.0091, -0.0356 0.0127 0.0091, -0.0337 0.0172 0.0091, -0.031 0.0134 0.0091, -0.031 0.0177 0.0091, -0.0252 0.0134 0.0091, -0.0199 0.0177 0.0091, -0.0252 -0.0173 0.0091, -0.0199 -0.0216 0.0091, -0.0308 -0.0173 0.0091, -0.0306 -0.0216 0.0091, -0.037 -0.0205 0.0091, -0.0199 -0.0216 0.0051, -0.0199 0.0177 0.0051, -0.0306 -0.0216 0.0051, -0.037 -0.0205 0.0051, -0.041 -0.0193 0.0051, -0.0437 -0.0178 0.0051, -0.0458 -0.0159 0.0051, -0.0479 -0.0127 0.0051, -0.051 -0.0038 0.0051, -0.0516 -0.0015 0.0051, -0.0503 0.0046 0.0051, -0.0489 0.0083 0.0051, -0.0473 0.0109 0.0051, -0.0454 0.0128 0.0051, -0.0422 0.0147 0.0051, -0.0337 0.0172 0.0051, -0.031 0.0177 0.0051, -0.031 0.0134 0.0051, -0.0356 0.0127 0.0051, -0.0385 0.0119 0.0051, -0.0405 0.0109 0.0051, -0.042 0.0097 0.0051, -0.0434 0.0077 0.0051, -0.045 0.0037 0.0051, -0.0463 -0.0016 0.0051, -0.0252 0.0134 0.0051, -0.0252 -0.0173 0.0051, -0.0308 -0.0173 0.0051, -0.0456 -0.0063 0.0051, -0.0447 -0.0093 0.0051, -0.0437 -0.0114 0.0051, -0.0424 -0.0129 0.0051, -0.0404 -0.0144 0.0051, -0.0363 -0.016 0.0051
            ]
        }
        coordIndex [
            0,1,2,-1,0,2,3,-1,3,2,4,-1,3,4,5,-1,5,4,6,-1,5,6,7,-1,7,6,8,-1,7,8,9,-1,9,8,10,-1,9,10,11,-1,12,11,13,-1,13,11,10,-1,14,15,16,-1,16,15,17,-1,14,16,18,-1,18,16,19,-1,18,19,20,-1,20,19,21,-1,20,21,22,-1,22,21,23,-1,22,23,24,-1,24,23,25,-1,24,25,26,-1,26,25,27,-1,28,26,29,-1,29,26,27,-1,28,29,30,-1,28,30,31,-1,31,30,32,-1,31,32,33,-1,33,32,34,-1,33,34,35,-1,35,34,36,-1,35,36,37,-1,37,36,38,-1,37,38,39,-1,40,39,41,-1,41,39,38,-1,42,40,43,-1,43,40,41,-1,44,42,45,-1,45,42,43,-1,44,45,46,-1,46,45,47,-1,46,47,48,-1,48,47,49,-1,48,49,50,-1,50,49,51,-1,50,51,52,-1,52,51,53,-1,52,53,54,-1,54,53,55,-1,0,54,1,-1,1,54,55,-1,0,3,22,-1,28,31,50,-1,11,12,15,-1,39,40,42,-1,3,5,22,-1,22,5,7,-1,22,7,20,-1,20,7,9,-1,20,9,18,-1,18,9,11,-1,18,11,14,-1,14,11,15,-1,31,33,50,-1,50,33,35,-1,50,35,48,-1,48,35,37,-1,48,37,46,-1,46,37,39,-1,46,39,44,-1,44,39,42,-1,50,52,28,-1,28,52,54,-1,28,54,26,-1,26,54,0,-1,26,0,24,-1,24,0,22,-1,34,51,36,-1,36,51,49,-1,36,49,38,-1,1,55,29,-1,29,55,53,-1,29,53,30,-1,30,53,51,-1,30,51,32,-1,32,51,34,-1,6,23,8,-1,8,23,21,-1,8,21,10,-1,6,4,23,-1,23,4,2,-1,23,2,25,-1,25,2,1,-1,25,1,27,-1,27,1,29,-1,43,41,45,-1,45,41,38,-1,45,38,47,-1,47,38,49,-1,17,13,16,-1,16,13,10,-1,16,10,19,-1,19,10,21,-1,56,57,58,-1,58,57,59,-1,56,58,60,-1,60,58,61,-1,60,61,62,-1,62,61,63,-1,62,63,64,-1,64,63,65,-1,64,65,66,-1,66,65,67,-1,66,67,68,-1,68,67,69,-1,70,68,71,-1,71,68,69,-1,72,73,74,-1,74,73,75,-1,72,74,76,-1,72,76,77,-1,77,76,78,-1,77,78,79,-1,79,78,80,-1,79,80,81,-1,81,80,82,-1,81,82,83,-1,83,82,84,-1,83,84,85,-1,86,85,87,-1,87,85,84,-1,86,87,88,-1,88,87,89,-1,88,89,90,-1,90,89,91,-1,90,91,92,-1,92,91,93,-1,92,93,94,-1,94,93,95,-1,94,95,96,-1,96,95,97,-1,98,96,99,-1,99,96,97,-1,100,98,101,-1,101,98,99,-1,102,100,103,-1,103,100,101,-1,102,103,104,-1,102,104,105,-1,105,104,106,-1,105,106,107,-1,107,106,108,-1,107,108,109,-1,109,108,110,-1,109,110,111,-1,111,110,59,-1,111,59,57,-1,72,77,64,-1,57,56,85,-1,85,56,60,-1,85,60,83,-1,83,60,62,-1,83,62,81,-1,81,62,64,-1,81,64,79,-1,79,64,77,-1,70,73,68,-1,68,73,72,-1,68,72,66,-1,66,72,64,-1,107,90,105,-1,105,90,92,-1,105,92,102,-1,85,86,57,-1,57,86,88,-1,57,88,111,-1,111,88,90,-1,111,90,109,-1,109,90,107,-1,98,100,96,-1,96,100,102,-1,96,102,94,-1,94,102,92,-1,74,75,71,-1,80,65,82,-1,82,65,63,-1,82,63,84,-1,71,69,74,-1,74,69,67,-1,74,67,76,-1,76,67,65,-1,76,65,78,-1,78,65,80,-1,103,101,99,-1,59,110,91,-1,91,89,59,-1,59,89,87,-1,59,87,58,-1,58,87,84,-1,58,84,61,-1,61,84,63,-1,99,97,103,-1,103,97,95,-1,103,95,104,-1,104,95,93,-1,104,93,106,-1,106,93,91,-1,106,91,108,-1,108,91,110,-1,112,113,114,-1,114,113,115,-1,112,114,116,-1,112,116,117,-1,117,116,118,-1,117,118,119,-1,119,118,120,-1,119,120,121,-1,121,120,122,-1,121,122,123,-1,123,122,124,-1,123,124,125,-1,126,125,127,-1,127,125,124,-1,128,126,129,-1,129,126,127,-1,130,128,131,-1,131,128,129,-1,130,131,132,-1,132,131,133,-1,132,133,134,-1,134,133,135,-1,134,135,136,-1,136,135,137,-1,136,137,138,-1,138,137,139,-1,138,139,140,-1,140,139,141,-1,142,140,143,-1,143,140,141,-1,142,143,144,-1,142,144,145,-1,145,144,146,-1,145,146,147,-1,147,146,148,-1,147,148,149,-1,149,148,150,-1,149,150,151,-1,151,150,152,-1,151,152,153,-1,154,153,155,-1,155,153,152,-1,156,157,158,-1,158,157,159,-1,156,158,160,-1,160,158,161,-1,160,161,162,-1,162,161,163,-1,162,163,164,-1,164,163,165,-1,164,165,166,-1,166,165,167,-1,166,167,113,-1,113,167,115,-1,153,154,157,-1,147,162,145,-1,145,162,164,-1,145,164,142,-1,157,156,153,-1,153,156,160,-1,153,160,151,-1,151,160,162,-1,151,162,149,-1,149,162,147,-1,112,140,113,-1,113,140,142,-1,113,142,166,-1,166,142,164,-1,125,126,128,-1,119,134,117,-1,117,134,136,-1,117,136,112,-1,112,136,138,-1,112,138,140,-1,119,121,134,-1,134,121,123,-1,134,123,132,-1,132,123,125,-1,132,125,130,-1,130,125,128,-1,152,150,163,-1,124,122,135,-1,114,115,143,-1,143,115,167,-1,143,167,144,-1,144,167,165,-1,144,165,146,-1,146,165,163,-1,146,163,148,-1,148,163,150,-1,159,155,158,-1,158,155,152,-1,158,152,161,-1,161,152,163,-1,143,141,114,-1,114,141,139,-1,114,139,116,-1,116,139,137,-1,116,137,118,-1,118,137,135,-1,118,135,120,-1,120,135,122,-1,129,127,131,-1,131,127,124,-1,131,124,133,-1,133,124,135,-1,168,169,170,-1,170,169,171,-1,172,173,168,-1,168,173,169,-1,174,175,172,-1,172,175,173,-1,176,177,174,-1,174,177,175,-1,178,179,176,-1,176,179,177,-1,178,170,179,-1,179,170,171,-1,179,171,177,-1,177,171,169,-1,177,169,175,-1,175,169,173,-1,180,181,182,-1,180,182,183,-1,183,182,184,-1,183,184,185,-1,186,187,184,-1,184,187,185,-1,187,186,188,-1,187,188,189,-1,189,188,190,-1,189,190,191,-1,191,190,192,-1,191,192,193,-1,193,192,194,-1,193,194,195,-1,195,194,196,-1,195,196,197,-1,197,196,198,-1,197,198,199,-1,199,198,200,-1,199,200,201,-1,201,200,202,-1,201,202,203,-1,203,202,204,-1,203,204,205,-1,206,207,208,-1,208,207,209,-1,208,209,210,-1,210,209,211,-1,210,211,212,-1,212,211,213,-1,212,213,214,-1,214,213,215,-1,214,215,216,-1,216,215,217,-1,216,217,218,-1,218,217,219,-1,218,219,220,-1,220,219,205,-1,220,205,204,-1,221,222,223,-1,207,206,224,-1,207,224,223,-1,223,224,225,-1,223,225,221,-1,226,227,221,-1,221,227,222,-1,227,226,228,-1,227,228,229,-1,229,228,230,-1,229,230,231,-1,231,230,232,-1,231,232,233,-1,233,232,234,-1,233,234,235,-1,235,234,236,-1,235,236,237,-1,237,236,238,-1,237,238,239,-1,239,238,240,-1,239,240,241,-1,241,240,242,-1,241,242,243,-1,243,242,244,-1,243,244,245,-1,245,244,246,-1,245,246,247,-1,247,246,248,-1,247,248,249,-1,249,248,250,-1,249,250,251,-1,251,250,252,-1,251,252,253,-1,253,252,254,-1,253,254,255,-1,255,254,256,-1,255,256,257,-1,257,256,181,-1,257,181,180,-1,185,187,183,-1,183,187,189,-1,183,189,180,-1,180,189,191,-1,180,191,257,-1,257,191,193,-1,257,193,255,-1,243,217,241,-1,241,217,215,-1,241,215,239,-1,239,215,213,-1,239,213,237,-1,237,213,211,-1,193,195,255,-1,255,195,197,-1,255,197,253,-1,253,197,199,-1,253,199,251,-1,251,199,201,-1,251,201,249,-1,222,227,223,-1,223,227,229,-1,223,229,207,-1,207,229,231,-1,207,231,209,-1,209,231,233,-1,209,233,211,-1,211,233,235,-1,211,235,237,-1,249,201,247,-1,247,201,203,-1,247,203,245,-1,245,203,205,-1,245,205,243,-1,243,205,219,-1,243,219,217,-1,258,259,260,-1,260,259,261,-1,262,263,258,-1,258,263,259,-1,264,265,262,-1,262,265,263,-1,266,267,264,-1,264,267,265,-1,268,269,266,-1,266,269,267,-1,270,271,268,-1,268,271,269,-1,272,273,270,-1,270,273,271,-1,274,275,272,-1,272,275,273,-1,276,277,274,-1,274,277,275,-1,278,279,276,-1,276,279,277,-1,280,281,278,-1,278,281,279,-1,280,260,281,-1,281,260,261,-1,273,275,277,-1,277,279,273,-1,273,279,281,-1,273,281,271,-1,267,269,265,-1,265,269,271,-1,265,271,263,-1,263,271,281,-1,263,281,259,-1,259,281,261,-1,282,283,284,-1,284,283,285,-1,286,287,282,-1,282,287,283,-1,288,289,286,-1,286,289,287,-1,290,291,288,-1,288,291,289,-1,292,293,290,-1,290,293,291,-1,294,295,292,-1,292,295,293,-1,296,297,294,-1,294,297,295,-1,296,284,297,-1,297,284,285,-1,298,291,293,-1,299,300,295,-1,295,300,293,-1,293,300,301,-1,293,301,298,-1,297,285,283,-1,289,291,287,-1,287,291,298,-1,287,298,283,-1,283,298,299,-1,283,299,297,-1,297,299,295,-1,298,302,299,-1,299,302,303,-1,300,304,305,-1,300,305,301,-1,301,305,302,-1,301,302,298,-1,303,304,299,-1,299,304,300,-1,306,307,308,-1,308,307,309,-1,309,307,310,-1,309,310,311,-1,310,312,311,-1,311,312,313,-1,311,313,314,-1,314,313,315,-1,314,315,316,-1,316,315,317,-1,316,317,318,-1,318,317,319,-1,308,320,306,-1,306,320,321,-1,306,321,322,-1,322,321,323,-1,322,323,324,-1,324,323,325,-1,324,325,326,-1,326,325,327,-1,326,327,328,-1,328,327,329,-1,329,327,330,-1,329,330,331,-1,331,330,332,-1,331,332,333,-1,333,332,334,-1,333,334,335,-1,335,334,336,-1,335,336,337,-1,337,336,338,-1,337,338,319,-1,319,338,339,-1,319,339,318,-1,340,336,341,-1,341,336,334,-1,342,338,340,-1,340,338,336,-1,338,342,343,-1,338,343,339,-1,339,343,344,-1,339,344,318,-1,318,344,345,-1,318,345,316,-1,316,345,346,-1,316,346,314,-1,314,346,347,-1,314,347,311,-1,311,347,348,-1,311,348,309,-1,309,348,349,-1,309,349,308,-1,308,349,350,-1,308,350,320,-1,320,350,351,-1,320,351,321,-1,321,351,352,-1,321,352,323,-1,323,352,353,-1,323,353,325,-1,325,353,354,-1,325,354,327,-1,327,354,355,-1,327,355,330,-1,330,355,356,-1,330,356,332,-1,356,341,332,-1,332,341,334,-1,331,357,358,-1,331,358,329,-1,329,358,359,-1,329,359,328,-1,328,359,360,-1,328,360,326,-1,326,360,361,-1,326,361,324,-1,324,361,362,-1,324,362,322,-1,322,362,363,-1,322,363,306,-1,306,363,364,-1,306,364,307,-1,333,365,331,-1,331,365,357,-1,335,366,333,-1,333,366,365,-1,337,367,335,-1,335,367,366,-1,307,364,368,-1,307,368,310,-1,310,368,369,-1,310,369,312,-1,312,369,370,-1,312,370,313,-1,313,370,371,-1,313,371,315,-1,315,371,372,-1,315,372,317,-1,317,372,373,-1,317,373,319,-1,319,373,367,-1,319,367,337,-1,
        ]
    }
}
Shape{
    appearance Appearance {
        material  Material {
            diffuseColor 0.20784313725490197 0.20784313725490197 0.20784313725490197
            specularColor 0.01568627450980392 0.01568627450980392 0.01568627450980392
            ambientIntensity 0.298
            transparency 0.0
            shininess 0.5
        }
    }
    geometry IndexedFaceSet {
        ccw TRUE
        solid FALSE
        coord DEF co Coordinate {
            point [
                -0.0712 0.0102 0.0051, -0.0653 -0.0063 0.0051, -0.0754 0.0022 0.0051, -0.0785 -0.0063 0.0051, -0.031 0.0134 0.0051, -0.0252 0.0134 0.0051, -0.0456 -0.0063 0.0051, -0.0447 -0.0093 0.0051, -0.0385 0.0119 0.0051, -0.0356 0.0127 0.0051, -0.045 0.0037 0.0051, -0.0463 -0.0016 0.0051, -0.0252 -0.0173 0.0051, -0.0308 -0.0173 0.0051, -0.0363 -0.016 0.0051, -0.0404 -0.0144 0.0051, -0.0424 -0.0129 0.0051, -0.0437 -0.0114 0.0051, -0.0405 0.0109 0.0051, -0.0434 0.0077 0.0051, -0.042 0.0097 0.0051, 0.0127 -0.5391 0.0051, 0.2438 -0.5391 0.0051, 0.2438 -0.5439 0.0057, 0.2438 -0.5587 0.0231, -0.2438 -0.5587 0.0231, 0.2438 -0.5577 0.0185, -0.2438 -0.5577 0.0185, 0.2438 -0.5576 0.0183, -0.2438 -0.5576 0.0183, 0.2438 -0.5556 0.0141, -0.2438 -0.5556 0.0141, 0.2438 -0.5555 0.014, -0.2438 -0.5555 0.014, 0.2438 -0.5524 0.0103, -0.2438 -0.5524 0.0103, 0.2438 -0.5523 0.0103, -0.2438 -0.5523 0.0103, 0.2438 -0.5484 0.0075, -0.2438 -0.5484 0.0075, 0.2438 -0.5484 0.0075, -0.2438 -0.5484 0.0075, 0.2438 -0.5439 0.0057, -0.2438 -0.5439 0.0057, -0.2438 -0.5439 0.0057, -0.2438 -0.5391 0.0051, 0.245 -0.5437 0.0057, 0.2531 -0.5391 0.0075, 0.2532 -0.5391 0.0075, 0.2528 -0.5415 0.0075, 0.2571 -0.5391 0.0103, 0.2571 -0.5391 0.0103, 0.2567 -0.5425 0.0103, 0.2597 -0.5433 0.0141, 0.2618 -0.5439 0.0185, 0.2599 -0.5484 0.0185, 0.2488 -0.558 0.0227, 0.2535 -0.556 0.0225, 0.2488 -0.558 0.0227, 0.2486 -0.5571 0.0185, 0.2627 -0.5441 0.0227, 0.2627 -0.5441 0.0227, 0.2607 -0.5488 0.0225, 0.2607 -0.5488 0.0225, 0.2576 -0.5529 0.0224, 0.2634 -0.5391 0.0231, 0.2624 -0.5391 0.0185, 0.2624 -0.5391 0.0183, 0.2603 -0.5391 0.0141, 0.2602 -0.5391 0.014, 0.248 -0.555 0.0141, 0.2581 -0.5473 0.0141, 0.257 -0.5522 0.0185, 0.2472 -0.552 0.0103, 0.2553 -0.5457 0.0103, 0.2554 -0.5507 0.0141, 0.2462 -0.5481 0.0075, 0.2532 -0.5485 0.0103, 0.2519 -0.5437 0.0075, 0.2485 -0.5403 0.0057, 0.2535 -0.556 0.0225, 0.2531 -0.5552 0.0185, 0.252 -0.5533 0.0141, 0.2505 -0.5506 0.0103, 0.2485 -0.5472 0.0075, 0.2462 -0.5432 0.0057, 0.2486 -0.5391 0.0057, 0.2486 -0.5391 0.0057, 0.2504 -0.5457 0.0075, 0.248 -0.5415 0.0057, 0.2472 -0.5425 0.0057, -0.2486 -0.5391 0.0057, -0.2485 -0.5403 0.0057, -0.2462 -0.5481 0.0075, -0.2472 -0.552 0.0103, -0.248 -0.555 0.0141, -0.2486 -0.5571 0.0185, -0.2531 -0.5552 0.0185, -0.2627 -0.5441 0.0227, -0.2634 -0.5391 0.0231, -0.2624 -0.5391 0.0185, -0.2607 -0.5488 0.0225, -0.2627 -0.5441 0.0227, -0.2618 -0.5439 0.0185, -0.2488 -0.558 0.0227, -0.2488 -0.558 0.0227, -0.2535 -0.556 0.0225, -0.2535 -0.556 0.0225, -0.2576 -0.5529 0.0224, -0.2624 -0.5391 0.0183, -0.2597 -0.5433 0.0141, -0.252 -0.5533 0.0141, -0.257 -0.5522 0.0185, -0.2603 -0.5391 0.0141, -0.2602 -0.5391 0.014, -0.2567 -0.5425 0.0103, -0.2505 -0.5506 0.0103, -0.2554 -0.5507 0.0141, -0.2571 -0.5391 0.0103, -0.2571 -0.5391 0.0103, -0.2528 -0.5415 0.0075, -0.2532 -0.5485 0.0103, -0.2485 -0.5472 0.0075, -0.245 -0.5437 0.0057, -0.2607 -0.5488 0.0225, -0.2599 -0.5484 0.0185, -0.2581 -0.5473 0.0141, -0.2553 -0.5457 0.0103, -0.2519 -0.5437 0.0075, -0.248 -0.5415 0.0057, -0.2504 -0.5457 0.0075, -0.2462 -0.5432 0.0057, -0.2472 -0.5425 0.0057, -0.2532 -0.5391 0.0075, -0.2531 -0.5391 0.0075, -0.2486 -0.5391 0.0057, 0.2438 -0.0219 0.0051, 0.2438 0.5391 0.0051, 0.2486 0.5391 0.0057, 0.2486 0.5391 0.0057, 0.2531 0.5391 0.0075, 0.2532 0.5391 0.0075, 0.2571 0.5391 0.0103, 0.2571 0.5391 0.0103, 0.2602 0.5391 0.014, 0.2603 0.5391 0.0141, 0.2624 0.5391 0.0183, 0.2624 0.5391 0.0185, 0.2634 0.5391 0.0231, 0.256 -0.5709 0.1626, 0.2611 -0.5702 0.1626, 0.2635 -0.5694 0.1626, 0.2658 -0.5682 0.1626, 0.2679 -0.5668 0.1626, 0.2699 -0.5651 0.1626, 0.2715 -0.5632 0.1626, 0.273 -0.5611 0.1626, 0.2741 -0.5588 0.1626, 0.2749 -0.5563 0.1626, 0.2756 -0.5513 0.1626, -0.2756 -0.5513 0.1626, -0.2749 -0.5563 0.1626, -0.2741 -0.5588 0.1626, -0.273 -0.5611 0.1626, -0.2715 -0.5632 0.1626, -0.2699 -0.5651 0.1626, -0.2679 -0.5668 0.1626, -0.2658 -0.5682 0.1626, -0.2635 -0.5694 0.1626, -0.2611 -0.5702 0.1626, -0.256 -0.5709 0.1626, -0.2438 -0.0219 0.0051, -0.2634 0.5391 0.0231, -0.2624 0.5391 0.0185, -0.2624 0.5391 0.0183, -0.2603 0.5391 0.0141, -0.2602 0.5391 0.014, -0.2571 0.5391 0.0103, -0.2571 0.5391 0.0103, -0.2532 0.5391 0.0075, -0.2531 0.5391 0.0075, -0.2486 0.5391 0.0057, -0.2486 0.5391 0.0057, -0.2438 0.5391 0.0051, 0.0127 0.5391 0.0051, -0.2438 0.5439 0.0057, 0.2438 0.5439 0.0057, 0.2438 0.5439 0.0057, -0.2438 0.5439 0.0057, 0.2438 0.5484 0.0075, -0.2438 0.5484 0.0075, 0.2438 0.5484 0.0075, -0.2438 0.5484 0.0075, 0.2438 0.5523 0.0103, -0.2438 0.5523 0.0103, 0.2438 0.5524 0.0103, -0.2438 0.5524 0.0103, 0.2438 0.5555 0.014, -0.2438 0.5555 0.014, 0.2438 0.5556 0.0141, -0.2438 0.5556 0.0141, 0.2438 0.5576 0.0183, -0.2438 0.5576 0.0183, 0.2438 0.5577 0.0185, -0.2438 0.5577 0.0185, 0.2438 0.5587 0.0231, -0.2438 0.5587 0.0231, 0.2485 0.5403 0.0057, 0.2462 0.5481 0.0075, 0.2472 0.552 0.0103, 0.248 0.555 0.0141, 0.2486 0.5571 0.0185, 0.2531 0.5552 0.0185, 0.2627 0.5441 0.0227, 0.2607 0.5488 0.0225, 0.2627 0.5441 0.0227, 0.2618 0.5439 0.0185, 0.2488 0.558 0.0227, 0.2488 0.558 0.0227, 0.2535 0.556 0.0225, 0.2535 0.556 0.0225, 0.2576 0.5529 0.0224, 0.2597 0.5433 0.0141, 0.252 0.5533 0.0141, 0.257 0.5522 0.0185, 0.2567 0.5425 0.0103, 0.2505 0.5506 0.0103, 0.2554 0.5507 0.0141, 0.2528 0.5415 0.0075, 0.2532 0.5485 0.0103, 0.2485 0.5472 0.0075, 0.245 0.5437 0.0057, 0.2607 0.5488 0.0225, 0.2599 0.5484 0.0185, 0.2581 0.5473 0.0141, 0.2553 0.5457 0.0103, 0.2519 0.5437 0.0075, 0.248 0.5415 0.0057, 0.2504 0.5457 0.0075, 0.2462 0.5432 0.0057, 0.2472 0.5425 0.0057, 0.2582 -0.5339 0.3612, 0.2576 -0.5382 0.3615, 0.2575 -0.5389 0.3615, 0.2561 -0.5423 0.3617, 0.2555 -0.5436 0.3618, 0.2538 -0.546 0.3618, 0.2524 -0.5477 0.3619, 0.2507 -0.549 0.3618, 0.2484 -0.5508 0.3618, 0.247 -0.5514 0.3617, 0.2437 -0.5528 0.3615, 0.243 -0.5529 0.3615, 0.2386 -0.5535 0.3612, -0.2386 -0.5535 0.3612, -0.2386 -0.5525 0.3658, 0.2386 -0.5525 0.3658, -0.2386 -0.5525 0.3659, 0.2386 -0.5525 0.3659, -0.2386 -0.5504 0.3702, 0.2386 -0.5504 0.3702, -0.2386 -0.5503 0.3703, 0.2386 -0.5503 0.3703, -0.2386 -0.5472 0.3739, 0.2386 -0.5472 0.3739, -0.2386 -0.5472 0.374, 0.2386 -0.5472 0.374, -0.2386 -0.5433 0.3767, 0.2386 -0.5433 0.3767, -0.2386 -0.5432 0.3768, 0.2386 -0.5432 0.3768, -0.2386 -0.5387 0.3785, 0.2386 -0.5387 0.3785, -0.2386 -0.5387 0.3785, 0.2386 -0.5387 0.3785, 0.2386 -0.5339 0.3791, -0.2386 -0.5339 0.3791, -0.2437 -0.5528 0.3615, -0.2437 -0.5528 0.3615, -0.2484 -0.5508 0.3618, -0.2484 -0.5508 0.3618, -0.2524 -0.5477 0.3619, -0.2555 -0.5437 0.3618, -0.2555 -0.5436 0.3618, -0.2575 -0.5389 0.3615, -0.2575 -0.5389 0.3615, -0.2582 -0.5339 0.3612, -0.245 0.5437 0.0057, -0.2528 0.5415 0.0075, -0.2567 0.5425 0.0103, -0.2597 0.5433 0.0141, -0.2618 0.5439 0.0185, -0.2599 0.5484 0.0185, -0.2488 0.558 0.0227, -0.2535 0.556 0.0225, -0.2488 0.558 0.0227, -0.2486 0.5571 0.0185, -0.2627 0.5441 0.0227, -0.2627 0.5441 0.0227, -0.2607 0.5488 0.0225, -0.2607 0.5488 0.0225, -0.2576 0.5529 0.0224, -0.248 0.555 0.0141, -0.2581 0.5473 0.0141, -0.257 0.5522 0.0185, -0.2472 0.552 0.0103, -0.2553 0.5457 0.0103, -0.2554 0.5507 0.0141, -0.2462 0.5481 0.0075, -0.2532 0.5485 0.0103, -0.2519 0.5437 0.0075, -0.2485 0.5403 0.0057, -0.2535 0.556 0.0225, -0.2531 0.5552 0.0185, -0.252 0.5533 0.0141, -0.2505 0.5506 0.0103, -0.2485 0.5472 0.0075, -0.2462 0.5432 0.0057, -0.2504 0.5457 0.0075, -0.248 0.5415 0.0057, -0.2472 0.5425 0.0057, 0.2756 0.5513 0.1626, 0.2749 0.5563 0.1626, 0.2741 0.5588 0.1626, 0.273 0.5611 0.1626, 0.2715 0.5632 0.1626, 0.2699 0.5651 0.1626, 0.2679 0.5668 0.1626, 0.2658 0.5682 0.1626, 0.2635 0.5694 0.1626, 0.2611 0.5702 0.1626, 0.256 0.5709 0.1626, 0.2572 -0.5339 0.3659, 0.2551 -0.5339 0.3702, 0.2547 -0.5376 0.3702, 0.255 -0.5339 0.3703, 0.252 -0.5339 0.3739, 0.2516 -0.5369 0.3739, 0.2478 -0.536 0.3767, 0.2433 -0.535 0.3785, 0.243 -0.536 0.3785, 0.2407 -0.5383 0.3785, 0.2416 -0.5377 0.3785, 0.2397 -0.5386 0.3785, 0.2434 -0.5339 0.3785, 0.2568 -0.538 0.3658, 0.2554 -0.542 0.3658, 0.2532 -0.5455 0.3658, 0.2502 -0.5485 0.3658, 0.2467 -0.5507 0.3658, 0.2428 -0.5521 0.3658, 0.2519 -0.5339 0.374, 0.248 -0.5339 0.3767, 0.2479 -0.5339 0.3768, 0.2435 -0.5339 0.3785, 0.246 -0.5397 0.3767, 0.2445 -0.5412 0.3767, 0.2427 -0.5423 0.3767, 0.2407 -0.543 0.3767, 0.2471 -0.538 0.3767, 0.2424 -0.5369 0.3785, 0.2506 -0.5397 0.3739, 0.2491 -0.5422 0.3739, 0.2469 -0.5443 0.3739, 0.2444 -0.5459 0.3739, 0.2416 -0.5469 0.3739, 0.2535 -0.541 0.3702, 0.2515 -0.5442 0.3702, 0.2489 -0.5468 0.3702, 0.2458 -0.5488 0.3702, 0.2423 -0.55 0.3702, 0.2572 -0.5339 0.3658, -0.2421 -0.5468 0.3739, -0.241 -0.543 0.3767, -0.2399 -0.5386 0.3785, -0.241 -0.5381 0.3785, -0.2428 -0.5363 0.3785, -0.242 -0.5373 0.3785, -0.2433 -0.5351 0.3785, -0.2434 -0.5519 0.3658, -0.2479 -0.55 0.3658, -0.2518 -0.5471 0.3658, -0.2548 -0.5432 0.3658, -0.2566 -0.5387 0.3658, -0.2572 -0.5339 0.3658, -0.2434 -0.5339 0.3785, -0.2433 -0.542 0.3767, -0.2453 -0.5405 0.3767, -0.2467 -0.5386 0.3767, -0.2477 -0.5363 0.3767, -0.2435 -0.5339 0.3785, -0.2479 -0.5339 0.3768, -0.248 -0.5339 0.3767, -0.2519 -0.5339 0.374, -0.2453 -0.5455 0.3739, -0.2481 -0.5433 0.3739, -0.2502 -0.5406 0.3739, -0.2515 -0.5373 0.3739, -0.2429 -0.5498 0.3702, -0.2469 -0.5482 0.3702, -0.2503 -0.5456 0.3702, -0.2529 -0.5421 0.3702, -0.2546 -0.5382 0.3702, -0.252 -0.5339 0.3739, -0.255 -0.5339 0.3703, -0.2551 -0.5339 0.3702, -0.2572 -0.5339 0.3659, -0.256 0.5709 0.1626, -0.2611 0.5702 0.1626, -0.2635 0.5694 0.1626, -0.2658 0.5682 0.1626, -0.2679 0.5668 0.1626, -0.2699 0.5651 0.1626, -0.2715 0.5632 0.1626, -0.273 0.5611 0.1626, -0.2741 0.5588 0.1626, -0.2749 0.5563 0.1626, -0.2756 0.5513 0.1626, 0.2386 0.5535 0.3612, 0.243 0.5529 0.3615, 0.2437 0.5528 0.3615, 0.247 0.5514 0.3617, 0.2484 0.5508 0.3618, 0.2507 0.549 0.3618, 0.2524 0.5477 0.3619, 0.2538 0.546 0.3618, 0.2555 0.5436 0.3618, 0.2561 0.5423 0.3617, 0.2575 0.5389 0.3615, 0.2576 0.5382 0.3615, 0.2582 0.5339 0.3612, 0.2572 0.5339 0.3658, 0.2572 0.5339 0.3659, 0.2551 0.5339 0.3702, 0.255 0.5339 0.3703, 0.252 0.5339 0.3739, 0.2519 0.5339 0.374, 0.248 0.5339 0.3767, 0.2479 0.5339 0.3768, 0.2435 0.5339 0.3785, 0.2434 0.5339 0.3785, 0.2386 0.5339 0.3791, -0.2582 0.5339 0.3612, -0.2572 0.5339 0.3658, -0.2572 0.5339 0.3659, -0.2551 0.5339 0.3702, -0.255 0.5339 0.3703, -0.252 0.5339 0.3739, -0.2519 0.5339 0.374, -0.248 0.5339 0.3767, -0.2479 0.5339 0.3768, -0.2435 0.5339 0.3785, -0.2434 0.5339 0.3785, -0.2386 0.5339 0.3791, -0.2576 0.5382 0.3615, -0.2575 0.5389 0.3615, -0.2561 0.5423 0.3617, -0.2555 0.5436 0.3618, -0.2538 0.546 0.3618, -0.2524 0.5477 0.3619, -0.2507 0.549 0.3618, -0.2484 0.5508 0.3618, -0.247 0.5514 0.3617, -0.2437 0.5528 0.3615, -0.243 0.5529 0.3615, -0.2386 0.5535 0.3612, 0.2386 0.5525 0.3659, 0.2386 0.5504 0.3702, 0.2423 0.55 0.3702, 0.2386 0.5503 0.3703, 0.2386 0.5472 0.3739, 0.2416 0.5469 0.3739, 0.2407 0.543 0.3767, 0.2397 0.5386 0.3785, 0.2407 0.5383 0.3785, 0.243 0.536 0.3785, 0.2424 0.5369 0.3785, 0.2433 0.535 0.3785, 0.2386 0.5387 0.3785, 0.2428 0.5521 0.3658, 0.2467 0.5507 0.3658, 0.2502 0.5485 0.3658, 0.2532 0.5455 0.3658, 0.2554 0.542 0.3658, 0.2568 0.538 0.3658, 0.2386 0.5472 0.374, 0.2386 0.5433 0.3767, 0.2386 0.5432 0.3768, 0.2386 0.5387 0.3785, 0.2445 0.5412 0.3767, 0.246 0.5397 0.3767, 0.2471 0.538 0.3767, 0.2478 0.536 0.3767, 0.2427 0.5423 0.3767, 0.2416 0.5377 0.3785, 0.2444 0.5459 0.3739, 0.2469 0.5443 0.3739, 0.2491 0.5422 0.3739, 0.2506 0.5397 0.3739, 0.2516 0.5369 0.3739, 0.2458 0.5488 0.3702, 0.2489 0.5468 0.3702, 0.2515 0.5442 0.3702, 0.2535 0.541 0.3702, 0.2547 0.5376 0.3702, 0.2386 0.5525 0.3658, -0.2547 0.5376 0.3702, -0.2516 0.5369 0.3739, -0.2478 0.536 0.3767, -0.2433 0.535 0.3785, -0.243 0.536 0.3785, -0.2407 0.5383 0.3785, -0.2416 0.5377 0.3785, -0.2397 0.5386 0.3785, -0.2568 0.538 0.3658, -0.2554 0.542 0.3658, -0.2532 0.5455 0.3658, -0.2502 0.5485 0.3658, -0.2467 0.5507 0.3658, -0.2428 0.5521 0.3658, -0.2386 0.5525 0.3658, -0.2386 0.5387 0.3785, -0.246 0.5397 0.3767, -0.2445 0.5412 0.3767, -0.2427 0.5423 0.3767, -0.2407 0.543 0.3767, -0.2471 0.538 0.3767, -0.2424 0.5369 0.3785, -0.2386 0.5387 0.3785, -0.2386 0.5432 0.3768, -0.2386 0.5433 0.3767, -0.2386 0.5472 0.374, -0.2506 0.5397 0.3739, -0.2491 0.5422 0.3739, -0.2469 0.5443 0.3739, -0.2444 0.5459 0.3739, -0.2416 0.5469 0.3739, -0.2535 0.541 0.3702, -0.2515 0.5442 0.3702, -0.2489 0.5468 0.3702, -0.2458 0.5488 0.3702, -0.2423 0.55 0.3702, -0.2386 0.5472 0.3739, -0.2386 0.5503 0.3703, -0.2386 0.5504 0.3702, -0.2386 0.5525 0.3659
            ]
        }
        coordIndex [
            0,1,2,-1,2,1,3,-1,4,5,6,-1,6,5,7,-1,8,9,10,-1,4,6,9,-1,9,6,11,-1,9,11,10,-1,12,13,5,-1,5,13,14,-1,5,14,15,-1,15,16,5,-1,5,16,17,-1,5,17,7,-1,8,10,18,-1,18,10,19,-1,18,19,20,-1,21,22,23,-1,24,25,26,-1,26,25,27,-1,26,27,28,-1,28,27,29,-1,28,29,30,-1,30,29,31,-1,30,31,32,-1,32,31,33,-1,32,33,34,-1,34,33,35,-1,34,35,36,-1,36,35,37,-1,36,37,38,-1,38,37,39,-1,38,39,40,-1,40,39,41,-1,40,41,42,-1,42,41,43,-1,42,43,23,-1,23,43,44,-1,23,44,21,-1,21,44,45,-1,23,22,46,-1,47,48,49,-1,50,51,52,-1,53,54,55,-1,56,24,26,-1,57,58,59,-1,59,58,56,-1,60,61,54,-1,54,61,62,-1,54,62,55,-1,55,62,63,-1,55,63,64,-1,65,60,66,-1,66,60,54,-1,66,54,67,-1,67,54,53,-1,67,53,68,-1,68,53,69,-1,56,26,59,-1,59,26,28,-1,59,28,70,-1,51,69,52,-1,52,69,53,-1,52,53,71,-1,71,53,55,-1,71,55,72,-1,72,55,64,-1,28,30,70,-1,70,30,32,-1,70,32,73,-1,48,50,49,-1,49,50,52,-1,49,52,74,-1,74,52,71,-1,74,71,75,-1,75,71,72,-1,32,34,73,-1,73,34,36,-1,73,36,76,-1,75,77,74,-1,74,77,78,-1,74,78,49,-1,49,78,79,-1,49,79,47,-1,80,57,81,-1,81,57,59,-1,81,59,82,-1,82,59,70,-1,82,70,83,-1,83,70,73,-1,83,73,84,-1,84,73,76,-1,84,76,85,-1,85,76,46,-1,85,46,22,-1,22,86,79,-1,79,86,87,-1,79,87,47,-1,77,88,78,-1,78,88,89,-1,78,89,79,-1,79,89,22,-1,88,90,89,-1,89,90,22,-1,36,38,76,-1,76,38,40,-1,76,40,46,-1,46,40,42,-1,46,42,23,-1,64,80,72,-1,72,80,81,-1,72,81,75,-1,75,81,82,-1,75,82,77,-1,77,82,83,-1,77,83,88,-1,88,83,84,-1,88,84,90,-1,90,84,85,-1,90,85,22,-1,91,45,92,-1,41,39,93,-1,37,35,94,-1,95,96,97,-1,98,99,100,-1,101,102,103,-1,103,102,98,-1,104,105,96,-1,96,105,106,-1,96,106,97,-1,97,106,107,-1,97,107,108,-1,25,104,27,-1,27,104,96,-1,27,96,29,-1,29,96,95,-1,29,95,31,-1,31,95,33,-1,98,100,103,-1,103,100,109,-1,103,109,110,-1,35,33,94,-1,94,33,95,-1,94,95,111,-1,111,95,97,-1,111,97,112,-1,112,97,108,-1,109,113,110,-1,110,113,114,-1,110,114,115,-1,39,37,93,-1,93,37,94,-1,93,94,116,-1,116,94,111,-1,116,111,117,-1,117,111,112,-1,114,118,115,-1,115,118,119,-1,115,119,120,-1,117,121,116,-1,116,121,122,-1,116,122,93,-1,93,122,123,-1,93,123,41,-1,124,101,125,-1,125,101,103,-1,125,103,126,-1,126,103,110,-1,126,110,127,-1,127,110,115,-1,127,115,128,-1,128,115,120,-1,128,120,129,-1,129,120,92,-1,129,92,45,-1,45,44,123,-1,123,44,43,-1,123,43,41,-1,121,130,122,-1,122,130,131,-1,122,131,123,-1,123,131,45,-1,130,132,131,-1,131,132,45,-1,119,133,120,-1,120,133,134,-1,120,134,92,-1,92,134,135,-1,92,135,91,-1,108,124,112,-1,112,124,125,-1,112,125,117,-1,117,125,126,-1,117,126,121,-1,121,126,127,-1,121,127,130,-1,130,127,128,-1,130,128,132,-1,132,128,129,-1,132,129,45,-1,136,137,138,-1,22,136,86,-1,86,136,138,-1,86,138,87,-1,87,138,139,-1,87,139,47,-1,47,139,140,-1,47,140,48,-1,48,140,141,-1,48,141,50,-1,50,141,142,-1,50,142,51,-1,51,142,143,-1,51,143,69,-1,69,143,144,-1,69,144,68,-1,68,144,145,-1,68,145,67,-1,67,145,146,-1,67,146,66,-1,66,146,147,-1,66,147,65,-1,65,147,148,-1,24,56,149,-1,149,56,150,-1,150,56,151,-1,151,56,58,-1,151,58,152,-1,152,58,57,-1,152,57,153,-1,153,57,80,-1,153,80,154,-1,154,80,64,-1,154,64,155,-1,155,64,63,-1,155,63,156,-1,156,63,62,-1,156,62,157,-1,157,62,61,-1,157,61,158,-1,61,60,158,-1,158,60,65,-1,158,65,159,-1,99,98,160,-1,160,98,161,-1,161,98,162,-1,162,98,102,-1,162,102,163,-1,163,102,101,-1,163,101,164,-1,164,101,124,-1,164,124,165,-1,165,124,108,-1,165,108,166,-1,166,108,107,-1,166,107,167,-1,167,107,106,-1,167,106,168,-1,168,106,105,-1,168,105,169,-1,105,104,169,-1,169,104,25,-1,169,25,170,-1,171,45,91,-1,99,172,100,-1,100,172,173,-1,100,173,109,-1,109,173,174,-1,109,174,113,-1,113,174,175,-1,113,175,114,-1,114,175,176,-1,114,176,118,-1,118,176,177,-1,118,177,119,-1,119,177,178,-1,119,178,133,-1,133,178,179,-1,133,179,134,-1,134,179,180,-1,134,180,135,-1,135,180,181,-1,135,181,91,-1,91,181,182,-1,91,182,171,-1,171,182,183,-1,184,183,185,-1,137,184,186,-1,186,184,185,-1,186,185,187,-1,187,185,188,-1,187,188,189,-1,189,188,190,-1,189,190,191,-1,191,190,192,-1,191,192,193,-1,193,192,194,-1,193,194,195,-1,195,194,196,-1,195,196,197,-1,197,196,198,-1,197,198,199,-1,199,198,200,-1,199,200,201,-1,201,200,202,-1,201,202,203,-1,203,202,204,-1,203,204,205,-1,205,204,206,-1,138,137,207,-1,189,191,208,-1,193,195,209,-1,210,211,212,-1,213,148,147,-1,214,215,216,-1,216,215,213,-1,217,218,211,-1,211,218,219,-1,211,219,212,-1,212,219,220,-1,212,220,221,-1,205,217,203,-1,203,217,211,-1,203,211,201,-1,201,211,210,-1,201,210,199,-1,199,210,197,-1,213,147,216,-1,216,147,146,-1,216,146,222,-1,195,197,209,-1,209,197,210,-1,209,210,223,-1,223,210,212,-1,223,212,224,-1,224,212,221,-1,146,145,222,-1,222,145,144,-1,222,144,225,-1,191,193,208,-1,208,193,209,-1,208,209,226,-1,226,209,223,-1,226,223,227,-1,227,223,224,-1,144,143,225,-1,225,143,142,-1,225,142,228,-1,227,229,226,-1,226,229,230,-1,226,230,208,-1,208,230,231,-1,208,231,189,-1,232,214,233,-1,233,214,216,-1,233,216,234,-1,234,216,222,-1,234,222,235,-1,235,222,225,-1,235,225,236,-1,236,225,228,-1,236,228,237,-1,237,228,207,-1,237,207,137,-1,137,186,231,-1,231,186,187,-1,231,187,189,-1,229,238,230,-1,230,238,239,-1,230,239,231,-1,231,239,137,-1,238,240,239,-1,239,240,137,-1,142,141,228,-1,228,141,140,-1,228,140,207,-1,207,140,139,-1,207,139,138,-1,221,232,224,-1,224,232,233,-1,224,233,227,-1,227,233,234,-1,227,234,229,-1,229,234,235,-1,229,235,238,-1,238,235,236,-1,238,236,240,-1,240,236,237,-1,240,237,137,-1,159,241,242,-1,159,242,158,-1,158,242,243,-1,158,243,157,-1,157,243,244,-1,157,244,156,-1,156,244,245,-1,156,245,155,-1,155,245,246,-1,155,246,154,-1,154,246,247,-1,154,247,153,-1,153,247,248,-1,153,248,152,-1,152,248,249,-1,152,249,151,-1,151,249,250,-1,151,250,150,-1,150,250,251,-1,150,251,149,-1,149,251,252,-1,149,252,253,-1,254,253,255,-1,255,253,256,-1,255,256,257,-1,257,256,258,-1,257,258,259,-1,259,258,260,-1,259,260,261,-1,261,260,262,-1,261,262,263,-1,263,262,264,-1,263,264,265,-1,265,264,266,-1,265,266,267,-1,267,266,268,-1,267,268,269,-1,269,268,270,-1,269,270,271,-1,271,270,272,-1,271,272,273,-1,272,274,273,-1,273,274,275,-1,273,275,276,-1,254,277,170,-1,170,277,169,-1,169,277,168,-1,168,277,278,-1,168,278,167,-1,167,278,279,-1,167,279,166,-1,166,279,280,-1,166,280,165,-1,165,280,281,-1,165,281,164,-1,164,281,282,-1,164,282,163,-1,163,282,283,-1,163,283,162,-1,162,283,284,-1,162,284,161,-1,284,285,161,-1,161,285,286,-1,161,286,160,-1,185,183,287,-1,180,179,288,-1,178,177,289,-1,290,291,292,-1,293,206,204,-1,294,295,296,-1,296,295,293,-1,297,298,291,-1,291,298,299,-1,291,299,292,-1,292,299,300,-1,292,300,301,-1,172,297,173,-1,173,297,291,-1,173,291,174,-1,174,291,290,-1,174,290,175,-1,175,290,176,-1,293,204,296,-1,296,204,202,-1,296,202,302,-1,177,176,289,-1,289,176,290,-1,289,290,303,-1,303,290,292,-1,303,292,304,-1,304,292,301,-1,202,200,302,-1,302,200,198,-1,302,198,305,-1,179,178,288,-1,288,178,289,-1,288,289,306,-1,306,289,303,-1,306,303,307,-1,307,303,304,-1,198,196,305,-1,305,196,194,-1,305,194,308,-1,307,309,306,-1,306,309,310,-1,306,310,288,-1,288,310,311,-1,288,311,180,-1,312,294,313,-1,313,294,296,-1,313,296,314,-1,314,296,302,-1,314,302,315,-1,315,302,305,-1,315,305,316,-1,316,305,308,-1,316,308,317,-1,317,308,287,-1,317,287,183,-1,183,182,311,-1,311,182,181,-1,311,181,180,-1,309,318,310,-1,310,318,319,-1,310,319,311,-1,311,319,183,-1,318,320,319,-1,319,320,183,-1,194,192,308,-1,308,192,190,-1,308,190,287,-1,287,190,188,-1,287,188,185,-1,301,312,304,-1,304,312,313,-1,304,313,307,-1,307,313,314,-1,307,314,309,-1,309,314,315,-1,309,315,318,-1,318,315,316,-1,318,316,320,-1,320,316,317,-1,320,317,183,-1,148,213,321,-1,321,213,322,-1,322,213,323,-1,323,213,215,-1,323,215,324,-1,324,215,214,-1,324,214,325,-1,325,214,232,-1,325,232,326,-1,326,232,221,-1,326,221,327,-1,327,221,220,-1,327,220,328,-1,328,220,219,-1,328,219,329,-1,329,219,218,-1,329,218,330,-1,218,217,330,-1,330,217,205,-1,330,205,331,-1,332,333,334,-1,335,336,337,-1,338,339,340,-1,275,341,342,-1,343,341,275,-1,340,339,275,-1,344,275,339,-1,242,345,243,-1,243,345,346,-1,243,346,244,-1,244,346,245,-1,245,346,347,-1,245,347,246,-1,246,347,247,-1,247,347,348,-1,247,348,248,-1,248,348,249,-1,249,348,349,-1,249,349,250,-1,250,349,251,-1,251,349,350,-1,251,350,252,-1,252,350,256,-1,252,256,253,-1,274,343,275,-1,351,352,338,-1,338,352,353,-1,338,353,339,-1,339,353,354,-1,339,354,344,-1,355,342,356,-1,356,342,341,-1,356,341,357,-1,357,341,343,-1,357,343,358,-1,336,351,337,-1,337,351,338,-1,337,338,359,-1,359,338,340,-1,359,340,360,-1,360,340,275,-1,274,272,343,-1,343,272,270,-1,343,270,358,-1,358,270,268,-1,358,268,266,-1,361,355,362,-1,362,355,356,-1,362,356,363,-1,363,356,357,-1,363,357,364,-1,364,357,358,-1,364,358,365,-1,365,358,266,-1,334,361,366,-1,366,361,362,-1,366,362,367,-1,367,362,363,-1,367,363,368,-1,368,363,364,-1,368,364,369,-1,369,364,365,-1,369,365,370,-1,333,335,334,-1,334,335,337,-1,334,337,361,-1,361,337,359,-1,361,359,355,-1,355,359,360,-1,355,360,342,-1,342,360,275,-1,242,241,345,-1,345,241,371,-1,345,371,332,-1,266,264,365,-1,365,264,262,-1,365,262,370,-1,370,262,260,-1,370,260,258,-1,332,334,345,-1,345,334,366,-1,345,366,346,-1,346,366,367,-1,346,367,347,-1,347,367,368,-1,347,368,348,-1,348,368,369,-1,348,369,349,-1,349,369,370,-1,349,370,350,-1,350,370,258,-1,350,258,256,-1,261,263,372,-1,373,374,375,-1,276,376,377,-1,378,376,276,-1,375,374,276,-1,273,276,374,-1,379,278,277,-1,278,379,279,-1,279,379,380,-1,279,380,280,-1,280,380,381,-1,280,381,281,-1,281,381,382,-1,281,382,282,-1,282,382,283,-1,283,382,383,-1,283,383,284,-1,284,383,285,-1,285,383,384,-1,285,384,286,-1,385,378,276,-1,265,267,373,-1,373,267,269,-1,373,269,374,-1,374,269,271,-1,374,271,273,-1,386,377,387,-1,387,377,376,-1,387,376,388,-1,388,376,378,-1,388,378,389,-1,385,390,378,-1,378,390,391,-1,378,391,389,-1,389,391,392,-1,389,392,393,-1,372,386,394,-1,394,386,387,-1,394,387,395,-1,395,387,388,-1,395,388,396,-1,396,388,389,-1,396,389,397,-1,397,389,393,-1,257,259,398,-1,398,259,261,-1,261,372,398,-1,398,372,394,-1,398,394,399,-1,399,394,395,-1,399,395,400,-1,400,395,396,-1,400,396,401,-1,401,396,397,-1,401,397,402,-1,263,265,372,-1,372,265,373,-1,372,373,386,-1,386,373,375,-1,386,375,377,-1,377,375,276,-1,257,379,255,-1,255,379,277,-1,255,277,254,-1,393,403,397,-1,397,403,404,-1,397,404,402,-1,402,404,405,-1,402,405,406,-1,257,398,379,-1,379,398,399,-1,379,399,380,-1,380,399,400,-1,380,400,381,-1,381,400,401,-1,381,401,382,-1,382,401,402,-1,382,402,383,-1,383,402,406,-1,383,406,384,-1,206,293,407,-1,407,293,408,-1,408,293,409,-1,409,293,295,-1,409,295,410,-1,410,295,294,-1,410,294,411,-1,411,294,312,-1,411,312,412,-1,412,312,301,-1,412,301,413,-1,413,301,300,-1,413,300,414,-1,414,300,299,-1,414,299,415,-1,415,299,298,-1,415,298,416,-1,298,297,416,-1,416,297,172,-1,416,172,417,-1,331,418,419,-1,331,419,330,-1,330,419,420,-1,330,420,329,-1,329,420,421,-1,329,421,328,-1,328,421,422,-1,328,422,327,-1,327,422,423,-1,327,423,326,-1,326,423,424,-1,326,424,325,-1,325,424,425,-1,325,425,324,-1,324,425,426,-1,324,426,323,-1,323,426,427,-1,323,427,322,-1,322,427,428,-1,322,428,321,-1,321,428,429,-1,321,429,430,-1,241,430,371,-1,371,430,431,-1,371,431,332,-1,332,431,432,-1,332,432,333,-1,333,432,433,-1,333,433,335,-1,335,433,434,-1,335,434,336,-1,336,434,435,-1,336,435,351,-1,351,435,436,-1,351,436,352,-1,352,436,437,-1,352,437,353,-1,353,437,438,-1,353,438,354,-1,354,438,439,-1,354,439,344,-1,439,440,344,-1,344,440,441,-1,344,441,275,-1,442,286,443,-1,443,286,384,-1,443,384,444,-1,444,384,406,-1,444,406,445,-1,445,406,405,-1,445,405,446,-1,446,405,404,-1,446,404,447,-1,447,404,403,-1,447,403,448,-1,448,403,393,-1,448,393,449,-1,449,393,392,-1,449,392,450,-1,450,392,391,-1,450,391,451,-1,451,391,390,-1,451,390,452,-1,390,385,452,-1,452,385,276,-1,452,276,453,-1,417,442,454,-1,417,454,416,-1,416,454,455,-1,416,455,415,-1,415,455,456,-1,415,456,414,-1,414,456,457,-1,414,457,413,-1,413,457,458,-1,413,458,412,-1,412,458,459,-1,412,459,411,-1,411,459,460,-1,411,460,410,-1,410,460,461,-1,410,461,409,-1,409,461,462,-1,409,462,408,-1,408,462,463,-1,408,463,407,-1,407,463,464,-1,407,464,465,-1,466,467,468,-1,469,470,471,-1,472,473,474,-1,441,475,476,-1,477,475,441,-1,474,473,441,-1,478,441,473,-1,419,479,420,-1,420,479,480,-1,420,480,421,-1,421,480,422,-1,422,480,481,-1,422,481,423,-1,423,481,424,-1,424,481,482,-1,424,482,425,-1,425,482,426,-1,426,482,483,-1,426,483,427,-1,427,483,428,-1,428,483,484,-1,428,484,429,-1,429,484,431,-1,429,431,430,-1,440,477,441,-1,485,486,472,-1,472,486,487,-1,472,487,473,-1,473,487,488,-1,473,488,478,-1,489,476,490,-1,490,476,475,-1,490,475,491,-1,491,475,477,-1,491,477,492,-1,470,485,471,-1,471,485,472,-1,471,472,493,-1,493,472,474,-1,493,474,494,-1,494,474,441,-1,440,439,477,-1,477,439,438,-1,477,438,492,-1,492,438,437,-1,492,437,436,-1,495,489,496,-1,496,489,490,-1,496,490,497,-1,497,490,491,-1,497,491,498,-1,498,491,492,-1,498,492,499,-1,499,492,436,-1,468,495,500,-1,500,495,496,-1,500,496,501,-1,501,496,497,-1,501,497,502,-1,502,497,498,-1,502,498,503,-1,503,498,499,-1,503,499,504,-1,467,469,468,-1,468,469,471,-1,468,471,495,-1,495,471,493,-1,495,493,489,-1,489,493,494,-1,489,494,476,-1,476,494,441,-1,419,418,479,-1,479,418,505,-1,479,505,466,-1,436,435,499,-1,499,435,434,-1,499,434,504,-1,504,434,433,-1,504,433,432,-1,466,468,479,-1,479,468,500,-1,479,500,480,-1,480,500,501,-1,480,501,481,-1,481,501,502,-1,481,502,482,-1,482,502,503,-1,482,503,483,-1,483,503,504,-1,483,504,484,-1,484,504,432,-1,484,432,431,-1,444,445,506,-1,446,447,507,-1,508,509,510,-1,453,511,512,-1,513,511,453,-1,510,509,453,-1,452,453,509,-1,454,514,455,-1,455,514,515,-1,455,515,456,-1,456,515,457,-1,457,515,516,-1,457,516,458,-1,458,516,459,-1,459,516,517,-1,459,517,460,-1,460,517,461,-1,461,517,518,-1,461,518,462,-1,462,518,463,-1,463,518,519,-1,463,519,464,-1,464,519,520,-1,464,520,465,-1,521,513,453,-1,448,449,508,-1,508,449,450,-1,508,450,509,-1,509,450,451,-1,509,451,452,-1,522,512,523,-1,523,512,511,-1,523,511,524,-1,524,511,513,-1,524,513,525,-1,447,448,507,-1,507,448,508,-1,507,508,526,-1,526,508,510,-1,526,510,527,-1,527,510,453,-1,521,528,513,-1,513,528,529,-1,513,529,525,-1,525,529,530,-1,525,530,531,-1,532,522,533,-1,533,522,523,-1,533,523,534,-1,534,523,524,-1,534,524,535,-1,535,524,525,-1,535,525,536,-1,536,525,531,-1,506,532,537,-1,537,532,533,-1,537,533,538,-1,538,533,534,-1,538,534,539,-1,539,534,535,-1,539,535,540,-1,540,535,536,-1,540,536,541,-1,445,446,506,-1,506,446,507,-1,506,507,532,-1,532,507,526,-1,532,526,522,-1,522,526,527,-1,522,527,512,-1,512,527,453,-1,454,442,514,-1,514,442,443,-1,514,443,444,-1,531,542,536,-1,536,542,543,-1,536,543,541,-1,541,543,544,-1,541,544,545,-1,444,506,514,-1,514,506,537,-1,514,537,515,-1,515,537,538,-1,515,538,516,-1,516,538,539,-1,516,539,517,-1,517,539,540,-1,517,540,518,-1,518,540,541,-1,518,541,519,-1,519,541,545,-1,519,545,520,-1,418,465,505,-1,505,465,520,-1,505,520,466,-1,466,520,545,-1,466,545,467,-1,467,545,544,-1,467,544,469,-1,469,544,543,-1,469,543,470,-1,470,543,542,-1,470,542,485,-1,485,542,531,-1,485,531,486,-1,486,531,530,-1,486,530,487,-1,487,530,529,-1,487,529,488,-1,488,529,528,-1,488,528,478,-1,528,521,478,-1,478,521,453,-1,478,453,441,-1,
        ]
    }
}